<?xml version="1.0" encoding="UTF-8" standalone="no"?>
<svg width="50px" height="50px" viewBox="0 0 50 50" version="1.1" xmlns="http://www.w3.org/2000/svg" xmlns:xlink="http://www.w3.org/1999/xlink">
    <!-- Generator: Sketch 45.2 (43514) - http://www.bohemiancoding.com/sketch -->
    <title>c4</title>
    <desc>Created with Sketch.</desc>
    <defs></defs>
    <g id="Symbols" stroke="none" stroke-width="1" fill="none" fill-rule="evenodd">
        <g id="c4">
            <g id="Group-17">
                <g id="c4">
                    <rect id="Rectangle-28" fill="#FFFFFF" x="0" y="0" width="49.0196078" height="50"></rect>
                    <g id="Group-6" transform="translate(1.960784, 6.000000)">
                        <polygon id="Rectangle-11" fill="#D8D8D8" points="15.0632 4.06575815e-20 21.3479983 4.06575815e-20 21.3479983 1.93306122 15.0632 1.93306122"></polygon>
                        <rect id="Rectangle-12" fill="#D8D8D8" x="16.56952" y="1.53633216" width="3.54091512" height="1.6133699"></rect>
                        <polygon id="Rectangle-11" fill="#FFC001" points="15.0632 4.06575815e-20 21.3479983 4.06575815e-20 21.3479983 1.93306122 15.0632 1.93306122"></polygon>
                        <rect id="Rectangle-12" fill="#FFC001" x="16.56952" y="1.53633216" width="3.54091512" height="1.6133699"></rect>
                        <ellipse id="Oval-9" stroke="#D8D8D8" cx="17.5315156" cy="21.7216467" rx="17.5315156" ry="17.8808163"></ellipse>
                        <path d="M17.0367361,5.37716257 C8.41848554,5.62376795 1.50632,12.8267694 1.50632,21.6763597 C1.50632,30.6817626 8.66403014,37.9820842 17.4935131,37.9820842 C26.322996,37.9820842 33.4807061,30.6817626 33.4807061,21.6763597 C33.4807061,21.520547 33.4785633,21.3652447 33.4743062,21.2104818 L17.0367361,21.2104818 L17.0367361,5.37716257 Z" id="Combined-Shape" fill="#D8D8D8"></path>
                        <path d="" id="Path-8" stroke="#979797"></path>
                        <path d="M28.5415799,17.5270542 C27.5351397,16.8839559 27.6547356,15.797672 28.9003675,14.2682025 C30.1459994,12.7387331 30.1459994,11.5674406 28.9003675,10.7543251 C30.9208554,11.8999439 31.5635854,12.8324136 30.8285574,13.5517344 C29.7260154,14.6307156 28.1610207,16.2950577 29.494789,18.2199025 C30.3839679,19.5031325 30.0662315,19.272183 28.5415799,17.5270542 Z" id="Path-4" fill="#979797" transform="translate(29.494789, 14.894929) scale(-1, 1) translate(-29.494789, -14.894929) "></path>
                        <path d="M26.1872757,17.3433064 C25.3222917,16.7905962 25.4250783,15.8569906 26.4956354,14.5424896 C27.5661925,13.2279886 27.5661925,12.2213225 26.4956354,11.5224912 C28.2321417,12.5070921 28.7845353,13.3085023 28.1528162,13.9267218 C27.2052376,14.854051 25.8602045,16.2844682 27.0065104,17.9387741 C27.7707143,19.0416448 27.4976361,18.8431555 26.1872757,17.3433064 Z" id="Path-4" fill="#979797" transform="translate(27.006510, 15.081129) scale(-1, 1) translate(-27.006510, -15.081129) "></path>
                        <path d="M44.6702226,39.2956904 C44.6702226,30.7449186 37.8738642,23.8131485 29.4901313,23.8131485 C21.1063983,23.8131485 14.31004,30.7449186 14.31004,39.2956904" id="Oval-7" stroke="#979797" fill="#FFFFFF"></path>
                        <path d="M12.7516239,39.6764701 C12.6405794,39.6764701 12.55056,39.7664895 12.55056,39.877534 C12.55056,39.9885786 12.6405794,40.0785979 12.7516239,40.0785979 L45.5205547,40.0785979 C45.6315992,40.0785979 45.7216186,39.9885786 45.7216186,39.877534 C45.7216186,39.7664895 45.6315992,39.6764701 45.5205547,39.6764701 L12.7516239,39.6764701 Z" id="Rectangle-9" stroke="#979797"></path>
                        <ellipse id="Oval-8" stroke="#979797" cx="28.8321816" cy="21.7249779" rx="1.71842163" ry="1.75265974"></ellipse>
                        <path d="M17.5612532,35.0593364 C18.7382111,31.4219976 20.7874907,29.0235232 23.709092,27.8639131" id="Path-9" stroke="#979797" stroke-linecap="round" transform="translate(20.635173, 31.461625) rotate(4.000000) translate(-20.635173, -31.461625) "></path>
                        <rect id="Rectangle-13" fill="#D8D8D8" transform="translate(29.976700, 6.764429) rotate(44.000000) translate(-29.976700, -6.764429) " x="28.5552256" y="5.16807676" width="2.84294847" height="3.1927049"></rect>
                        <ellipse id="Oval-9" stroke="#FFC001" cx="17.5315156" cy="21.7216467" rx="17.5315156" ry="17.8808163"></ellipse>
                        <path d="M17.0367361,5.37716257 C8.41848554,5.62376795 1.50632,12.8267694 1.50632,21.6763597 C1.50632,30.6817626 8.66403014,37.9820842 17.4935131,37.9820842 C26.322996,37.9820842 33.4807061,30.6817626 33.4807061,21.6763597 C33.4807061,21.520547 33.4785633,21.3652447 33.4743062,21.2104818 L17.0367361,21.2104818 L17.0367361,5.37716257 Z" id="Combined-Shape" fill="#FFC001"></path>
                        <path d="M28.5415799,17.5270542 C27.5351397,16.8839559 27.6547356,15.797672 28.9003675,14.2682025 C30.1459994,12.7387331 30.1459994,11.5674406 28.9003675,10.7543251 C30.9208554,11.8999439 31.5635854,12.8324136 30.8285574,13.5517344 C29.7260154,14.6307156 28.1610207,16.2950577 29.494789,18.2199025 C30.3839679,19.5031325 30.0662315,19.272183 28.5415799,17.5270542 Z" id="Path-4" fill="#5F5F5F" transform="translate(29.494789, 14.894929) scale(-1, 1) translate(-29.494789, -14.894929) "></path>
                        <path d="M26.1872757,17.3433064 C25.3222917,16.7905962 25.4250783,15.8569906 26.4956354,14.5424896 C27.5661925,13.2279886 27.5661925,12.2213225 26.4956354,11.5224912 C28.2321417,12.5070921 28.7845353,13.3085023 28.1528162,13.9267218 C27.2052376,14.854051 25.8602045,16.2844682 27.0065104,17.9387741 C27.7707143,19.0416448 27.4976361,18.8431555 26.1872757,17.3433064 Z" id="Path-4" fill="#5F5F5F" transform="translate(27.006510, 15.081129) scale(-1, 1) translate(-27.006510, -15.081129) "></path>
                        <path d="M44.6702226,39.2956904 C44.6702226,30.7449186 37.8738642,23.8131485 29.4901313,23.8131485 C21.1063983,23.8131485 14.31004,30.7449186 14.31004,39.2956904" id="Oval-7" stroke="#5F5F5F" fill="#FFFFFF"></path>
                        <path d="M12.7516239,39.6764701 C12.6405794,39.6764701 12.55056,39.7664895 12.55056,39.877534 C12.55056,39.9885786 12.6405794,40.0785979 12.7516239,40.0785979 L45.5205547,40.0785979 C45.6315992,40.0785979 45.7216186,39.9885786 45.7216186,39.877534 C45.7216186,39.7664895 45.6315992,39.6764701 45.5205547,39.6764701 L12.7516239,39.6764701 Z" id="Rectangle-9" stroke="#5F5F5F"></path>
                        <ellipse id="Oval-8" stroke="#5F5F5F" cx="28.8321816" cy="21.7249779" rx="1.71842163" ry="1.75265974"></ellipse>
                        <path d="M17.5612532,35.0593364 C18.7382111,31.4219976 20.7874907,29.0235232 23.709092,27.8639131" id="Path-9" stroke="#5F5F5F" stroke-linecap="round" transform="translate(20.635173, 31.461625) rotate(4.000000) translate(-20.635173, -31.461625) "></path>
                        <rect id="Rectangle-13" fill="#FFC001" transform="translate(29.976700, 6.764429) rotate(44.000000) translate(-29.976700, -6.764429) " x="28.5552256" y="5.16807676" width="2.84294847" height="3.1927049"></rect>
                    </g>
                </g>
            </g>
        </g>
    </g>
</svg>