<?xml version="1.0" encoding="UTF-8" standalone="no"?>
<svg width="46px" height="46px" viewBox="0 0 46 46" version="1.1" xmlns="http://www.w3.org/2000/svg" xmlns:xlink="http://www.w3.org/1999/xlink">
    <!-- Generator: Sketch 46.2 (44496) - http://www.bohemiancoding.com/sketch -->
    <title>c4</title>
    <desc>Created with Sketch.</desc>
    <defs></defs>
    <g id="Symbols" stroke="none" stroke-width="1" fill="none" fill-rule="evenodd">
        <g id="c4">
            <g id="Group-17" transform="translate(1.000000, 5.000000)">
                <g id="c4">
                    <g id="Group-6" transform="translate(0.803922, 0.520000)">
                        <polygon id="Rectangle-11" fill="#D8D8D8" points="13.858144 3.38813179e-20 19.6401584 3.38813179e-20 19.6401584 1.77841633 13.858144 1.77841633"></polygon>
                        <rect id="Rectangle-12" fill="#D8D8D8" x="15.2439584" y="1.41342559" width="3.25764191" height="1.48430031"></rect>
                        <polygon id="Rectangle-11" fill="#FFC001" points="13.858144 3.38813179e-20 19.6401584 3.38813179e-20 19.6401584 1.77841633 13.858144 1.77841633"></polygon>
                        <rect id="Rectangle-12" fill="#FFC001" x="15.2439584" y="1.41342559" width="3.25764191" height="1.48430031"></rect>
                        <ellipse id="Oval-9" stroke="#D8D8D8" cx="16.1289943" cy="19.983915" rx="16.1289943" ry="16.450351"></ellipse>
                        <path d="M15.6737972,4.94698956 C7.74500669,5.17386652 1.3858144,11.8006279 1.3858144,19.9422509 C1.3858144,28.2272216 7.97090773,34.9435174 16.094032,34.9435174 C24.2171563,34.9435174 30.8022496,28.2272216 30.8022496,19.9422509 C30.8022496,19.7989032 30.8002783,19.6560251 30.7963617,19.5136433 L15.6737972,19.5136433 L15.6737972,4.94698956 Z" id="Combined-Shape" fill="#D8D8D8"></path>
                        <path d="" id="Path-8" stroke="#979797"></path>
                        <path d="M26.2582535,16.1248899 C25.3323285,15.5332394 25.4423567,14.5338583 26.5883381,13.1267463 C27.7343195,11.7196344 27.7343195,10.6420453 26.5883381,9.89397912 C28.447187,10.9479484 29.0384986,11.8058205 28.3622728,12.4675956 C27.3479342,13.4602583 25.908139,14.9914531 27.1352059,16.7623103 C27.9532505,17.9428819 27.660933,17.7304084 26.2582535,16.1248899 Z" id="Path-4" fill="#979797" transform="translate(27.135206, 13.703334) scale(-1, 1) translate(-27.135206, -13.703334) "></path>
                        <path d="M24.0922937,15.9558418 C23.2965084,15.4473485 23.391072,14.5884313 24.3759846,13.3790904 C25.3608971,12.1697495 25.3608971,11.2436167 24.3759846,10.6006919 C25.9735704,11.5065247 26.4817725,12.2438221 25.9005909,12.812584 C25.0288186,13.6657269 23.7913882,14.9817107 24.8459896,16.5036722 C25.5490571,17.5183132 25.2978252,17.3357031 24.0922937,15.9558418 Z" id="Path-4" fill="#979797" transform="translate(24.845990, 13.874638) scale(-1, 1) translate(-24.845990, -13.874638) "></path>
                        <path d="M41.0966047,36.1520352 C41.0966047,28.2853251 34.843955,21.9080966 27.1309208,21.9080966 C19.4178865,21.9080966 13.1652368,28.2853251 13.1652368,36.1520352" id="Oval-7" stroke="#979797" fill="#FFFFFF"></path>
                        <path d="M11.731494,36.5423525 C11.6514244,36.5423525 11.5865152,36.6072617 11.5865152,36.6873313 C11.5865152,36.7674009 11.6514244,36.8323101 11.731494,36.8323101 L41.8789103,36.8323101 C41.9589799,36.8323101 42.0238891,36.7674009 42.0238891,36.6873313 C42.0238891,36.6072617 41.9589799,36.5423525 41.8789103,36.5423525 L11.731494,36.5423525 Z" id="Rectangle-9" stroke="#979797"></path>
                        <ellipse id="Oval-8" stroke="#979797" cx="26.5256071" cy="19.9869796" rx="1.5809479" ry="1.61244696"></ellipse>
                        <path d="M16.1563529,32.2545895 C17.2391542,28.9082378 19.1244915,26.7016413 21.8123647,25.6348001" id="Path-9" stroke="#979797" stroke-linecap="round" transform="translate(18.984359, 28.944695) rotate(4.000000) translate(-18.984359, -28.944695) "></path>
                        <rect id="Rectangle-13" fill="#D8D8D8" transform="translate(27.578564, 6.223275) rotate(44.000000) translate(-27.578564, -6.223275) " x="26.2708076" y="4.75463062" width="2.61551259" height="2.93728851"></rect>
                        <ellipse id="Oval-9" stroke="#FFC001" cx="16.1289943" cy="19.983915" rx="16.1289943" ry="16.450351"></ellipse>
                        <path d="M15.6737972,4.94698956 C7.74500669,5.17386652 1.3858144,11.8006279 1.3858144,19.9422509 C1.3858144,28.2272216 7.97090773,34.9435174 16.094032,34.9435174 C24.2171563,34.9435174 30.8022496,28.2272216 30.8022496,19.9422509 C30.8022496,19.7989032 30.8002783,19.6560251 30.7963617,19.5136433 L15.6737972,19.5136433 L15.6737972,4.94698956 Z" id="Combined-Shape" fill="#FFC001"></path>
                        <path d="M26.2582535,16.1248899 C25.3323285,15.5332394 25.4423567,14.5338583 26.5883381,13.1267463 C27.7343195,11.7196344 27.7343195,10.6420453 26.5883381,9.89397912 C28.447187,10.9479484 29.0384986,11.8058205 28.3622728,12.4675956 C27.3479342,13.4602583 25.908139,14.9914531 27.1352059,16.7623103 C27.9532505,17.9428819 27.660933,17.7304084 26.2582535,16.1248899 Z" id="Path-4" fill="#5F5F5F" transform="translate(27.135206, 13.703334) scale(-1, 1) translate(-27.135206, -13.703334) "></path>
                        <path d="M24.0922937,15.9558418 C23.2965084,15.4473485 23.391072,14.5884313 24.3759846,13.3790904 C25.3608971,12.1697495 25.3608971,11.2436167 24.3759846,10.6006919 C25.9735704,11.5065247 26.4817725,12.2438221 25.9005909,12.812584 C25.0288186,13.6657269 23.7913882,14.9817107 24.8459896,16.5036722 C25.5490571,17.5183132 25.2978252,17.3357031 24.0922937,15.9558418 Z" id="Path-4" fill="#5F5F5F" transform="translate(24.845990, 13.874638) scale(-1, 1) translate(-24.845990, -13.874638) "></path>
                        <path d="M41.0966047,36.1520352 C41.0966047,28.2853251 34.843955,21.9080966 27.1309208,21.9080966 C19.4178865,21.9080966 13.1652368,28.2853251 13.1652368,36.1520352" id="Oval-7" stroke="#5F5F5F" fill="#FFFFFF"></path>
                        <path d="M11.731494,36.5423525 C11.6514244,36.5423525 11.5865152,36.6072617 11.5865152,36.6873313 C11.5865152,36.7674009 11.6514244,36.8323101 11.731494,36.8323101 L41.8789103,36.8323101 C41.9589799,36.8323101 42.0238891,36.7674009 42.0238891,36.6873313 C42.0238891,36.6072617 41.9589799,36.5423525 41.8789103,36.5423525 L11.731494,36.5423525 Z" id="Rectangle-9" stroke="#5F5F5F"></path>
                        <ellipse id="Oval-8" stroke="#5F5F5F" cx="26.5256071" cy="19.9869796" rx="1.5809479" ry="1.61244696"></ellipse>
                        <path d="M16.1563529,32.2545895 C17.2391542,28.9082378 19.1244915,26.7016413 21.8123647,25.6348001" id="Path-9" stroke="#5F5F5F" stroke-linecap="round" transform="translate(18.984359, 28.944695) rotate(4.000000) translate(-18.984359, -28.944695) "></path>
                        <rect id="Rectangle-13" fill="#FFC001" transform="translate(27.578564, 6.223275) rotate(44.000000) translate(-27.578564, -6.223275) " x="26.2708076" y="4.75463062" width="2.61551259" height="2.93728851"></rect>
                    </g>
                </g>
            </g>
        </g>
    </g>
</svg>