<?xml version="1.0" encoding="UTF-8" standalone="no"?>
<svg width="20px" height="20px" viewBox="0 0 20 20" version="1.1" xmlns="http://www.w3.org/2000/svg" xmlns:xlink="http://www.w3.org/1999/xlink">
    <!-- Generator: Sketch 45.2 (43514) - http://www.bohemiancoding.com/sketch -->
    <title>close</title>
    <desc>Created with Sketch.</desc>
    <defs></defs>
    <g id="Symbols" stroke="none" stroke-width="1" fill="none" fill-rule="evenodd">
        <g id="close" fill="#BCBCBC">
            <path d="M10.5358586,9.2631313 L10.5358586,3.53585857 C10.5358586,3.18440464 10.2509489,2.89949494 9.89949494,2.89949494 C9.548041,2.89949494 9.2631313,3.18440464 9.2631313,3.53585857 L9.2631313,3.53585857 L9.2631313,9.2631313 L3.53585857,9.2631313 C3.18440464,9.2631313 2.89949494,9.548041 2.89949494,9.89949494 C2.89949494,10.2509489 3.18440464,10.5358586 3.53585857,10.5358586 L3.53585857,10.5358586 L9.2631313,10.5358586 L9.2631313,16.2631313 C9.2631313,16.6145852 9.548041,16.8994949 9.89949494,16.8994949 C10.2509489,16.8994949 10.5358586,16.6145852 10.5358586,16.2631313 L10.5358586,10.5358586 L16.2631313,10.5358586 C16.6145852,10.5358586 16.8994949,10.2509489 16.8994949,9.89949494 C16.8994949,9.548041 16.6145852,9.2631313 16.2631313,9.2631313 L16.2631313,9.2631313 L10.5358586,9.2631313 Z" id="Combined-Shape" transform="translate(9.899495, 9.899495) rotate(-315.000000) translate(-9.899495, -9.899495) "></path>
        </g>
    </g>
</svg>