<?xml version="1.0" encoding="UTF-8" standalone="no"?>
<svg width="40px" height="35px" viewBox="0 0 40 35" version="1.1" xmlns="http://www.w3.org/2000/svg" xmlns:xlink="http://www.w3.org/1999/xlink">
    <!-- Generator: Sketch 46.2 (44496) - http://www.bohemiancoding.com/sketch -->
    <title>Artboard</title>
    <desc>Created with Sketch.</desc>
    <defs></defs>
    <g id="Page-1" stroke="none" stroke-width="1" fill="none" fill-rule="evenodd">
        <g id="Artboard" stroke="#FFFFFF" stroke-width="1.5">
            <g id="Group-17" transform="translate(7.000000, 6.000000)">
                <path d="M1,3.89285714 C0.861928813,3.89285714 0.75,4.00478596 0.75,4.14285714 L0.75,21.0698529 C0.75,21.1693454 0.830654586,21.25 0.930147059,21.25 L25,21.25 C25.1380712,21.25 25.25,21.1380712 25.25,21 L25.25,4.14285714 C25.25,4.00478596 25.1380712,3.89285714 25,3.89285714 L1,3.89285714 Z" id="Combined-Shape"></path>
                <path d="M5.75,0.75 L5.75,6.58333333 L6.25,6.58333333 L6.25,0.75 L5.75,0.75 Z" id="Rectangle-9"></path>
                <path d="M19.75,0.75 L19.75,6.58333333 L20.25,6.58333333 L20.25,0.75 L19.75,0.75 Z" id="Rectangle-9"></path>
                <path d="M0.75,11.2261905 L0.75,11.8214286 L25.25,11.8214286 L25.25,11.2261905 L0.75,11.2261905 Z" id="Rectangle-12"></path>
            </g>
        </g>
    </g>
</svg>