<?xml version="1.0" encoding="UTF-8" standalone="no"?>
<svg width="46px" height="46px" viewBox="0 0 46 46" version="1.1" xmlns="http://www.w3.org/2000/svg" xmlns:xlink="http://www.w3.org/1999/xlink">
    <!-- Generator: Sketch 46.2 (44496) - http://www.bohemiancoding.com/sketch -->
    <title>c1</title>
    <desc>Created with Sketch.</desc>
    <defs>
        <path d="M11.2957417,9.04382418 C11.2957417,8.12503797 11.2957417,7.76268753 11.2957417,5.9251151 L27.4656556,5.9251151 L27.4656556,18.5416357 C27.4656556,19.6299261 26.560716,20.5121598 25.4444164,20.5121598 C20.4409209,20.5121598 17.7042037,20.5121598 15.2024559,20.5121598" id="path-1"></path>
        <rect id="path-2" x="18.5999607" y="10.3073207" width="1" height="8.08435583" rx="0.5"></rect>
        <rect id="path-3" x="22.9824921" y="10.3073207" width="1" height="8.08435583" rx="0.5"></rect>
        <path d="M1.33941322,17.2126452 L13.4880879,17.2126452 L13.4880879,17.2126452 C14.0403726,17.2126452 14.4880879,17.6603604 14.4880879,18.2126452 L14.4880879,19.5988022 L14.4880879,19.5988022 C14.4880879,20.1510869 14.0403726,20.5988022 13.4880879,20.5988022 L1.33941322,20.5988022 L1.33941322,20.5988022 C0.787128472,20.5988022 0.339413222,20.1510869 0.339413222,19.5988022 L0.339413222,18.2126452 L0.339413222,18.2126452 C0.339413222,17.6603604 0.787128472,17.2126452 1.33941322,17.2126452 Z" id="path-4"></path>
    </defs>
    <g id="Symbols" stroke="none" stroke-width="1" fill="none" fill-rule="evenodd">
        <g id="c1">
            <g transform="translate(0.328947, 2.592105)" id="Group-3">
                <g transform="translate(0.920000, 0.760000)">
                    <ellipse id="Oval-2" fill="#FFC001" cx="26.120956" cy="8.48324529" rx="3.45242235" ry="3.45216566"></ellipse>
                    <path d="M25.6237436,12.9699956 C27.5943344,12.9370873 28.8957764,12.1464978 29.5280696,10.5982271 C30.1603628,9.04995652 31.8757822,5.84387099 34.6743277,0.979970583 C35.9916616,0.400242521 36.5399871,0.690106552 36.3193044,1.84956268 C36.0986217,3.0090188 34.6431075,6.19977714 31.9527619,11.4218377 C37.2971611,17.2173151 40.0571604,21.241827 40.2327598,23.4953733 C38.1239887,24.1848711 37.0696031,24.5296199 37.0696031,24.5296199 L37.1186312,35.9249278 C36.3008202,37.3203774 35.2353893,37.3203774 33.9223383,35.9249278 L34.0579263,25.365064 C33.3048099,25.365064 32.9282517,25.365064 32.9282517,25.365064 L33.0039916,36.0980348 C31.9920971,37.0519264 31.0382473,36.9942241 30.1424422,35.9249278 L30.3307777,26.0314582 L28.1775995,26.6640425 C27.5182563,19.1449335 26.666971,15.3653184 25.6237436,15.3251972 C24.2543385,17.106982 23.0412598,17.6590986 21.9845073,16.981547 C20.9277549,16.3039955 21.2790665,14.2926411 23.0384421,10.947484 C24.1955048,10.2699325 24.8217118,10.64635 24.9170629,12.0767366 L23.7045477,14.7304801 L25.6237436,12.9699956 Z" id="Path-4" fill="#FFC001"></path>
                    <ellipse id="Oval" fill="#FFC001" transform="translate(10.429453, 9.096518) scale(-1, 1) translate(-10.429453, -9.096518) " cx="10.429453" cy="9.09651839" rx="3.57393344" ry="3.46949218"></ellipse>
                    <path d="M17.3378382,24.2384133 L17.3340282,23.9254478 C17.9408617,21.9301216 18.123176,18.5066065 17.8809711,13.6549027 C20.6562366,10.960739 21.6897338,6.69497979 20.981463,0.857625119 C20.5189187,-0.0404294456 19.8251024,-0.0404294456 18.9000139,0.857625119 C19.5938303,11.6342799 13.4622959,12.6465645 8.74278633,13.9543455 C4.02327671,15.2621265 2.60871118,18.1402971 2.94223765,19.4750461 C3.27576411,20.809795 5.71750308,22.4109347 7.61596763,24.2973912 C7.65407296,24.3352555 7.7150678,24.3799776 7.79895216,24.4315575 C9.18658488,24.4315575 9.417857,23.7580165 8.49276852,22.4109347 C8.03022428,21.9619074 7.04709192,20.8667456 5.54337144,19.1254494 C5.92314104,18.0012368 7.1403122,17.2981517 9.19488492,17.0161942 C10.7162218,19.2046541 10.482183,21.9009555 8.49276852,25.1050984 C8.49276852,25.1050984 5.71750308,28.9218303 0.166972211,36.5552941 C-0.295572028,38.8004305 0.461791542,39.4739714 2.43906292,38.5759168 C2.43906292,38.5759168 6.02411705,34.5963639 13.1942253,26.6372579 C14.2540955,27.8406889 14.9782292,29.0789069 15.3666264,30.3519122 C15.8483901,29.7148221 16.3995013,29.2227348 16.9755975,28.8735861 C17.8016838,29.4735711 18.2116236,29.3935012 18.2054167,28.6333765 C18.1958601,27.4630234 17.9066673,25.9980357 17.3378382,24.2384133 Z" id="Combined-Shape" fill="#FFC001"></path>
                    <g id="Group-2" transform="translate(12.179099, 19.821835)">
                        <path d="M27.3650235,8.84658547 L27.3650235,8.84658547 L30.0600092,8.84658547 L30.0600092,8.84658547 C30.432109,8.84658547 30.7337556,9.14820959 30.7337556,9.52028179 L30.7337556,16.9309413 L30.7337556,16.9309413 C30.7337556,17.3030135 30.432109,17.6046376 30.0600092,17.6046376 L27.3650235,17.6046376 L27.3650235,17.6046376" id="Rectangle-4" stroke="#5F5F5F"></path>
                        <g id="Rectangle-2">
                            <use fill="#FFFFFF" fill-rule="evenodd" xlink:href="#path-1"></use>
                            <path stroke="#5F5F5F" stroke-width="1" d="M11.7957417,8.96099806 L15.5603447,20.0121598 C19.0803426,20.0121598 19.2952164,20.0121598 25.4444164,20.0121598 C26.2873772,20.0121598 26.9656556,19.3509002 26.9656556,18.5416357 L26.9656556,6.4251151 L11.7957417,6.4251151 C11.7957417,7.57249586 11.7957417,7.70819573 11.7957417,8.3723838 C11.7957417,8.64839572 11.7957417,8.68244342 11.7957417,8.92687982 L11.7957417,8.96099806 Z"></path>
                        </g>
                        <g id="Rectangle-3">
                            <use fill="#D8D8D8" fill-rule="evenodd" xlink:href="#path-2"></use>
                            <rect stroke="#5F5F5F" stroke-width="1" x="19.0999607" y="10.8073207" width="1" height="7.08435583" rx="0.5"></rect>
                        </g>
                        <g id="Rectangle-3">
                            <use fill="#D8D8D8" fill-rule="evenodd" xlink:href="#path-3"></use>
                            <rect stroke="#5F5F5F" stroke-width="1" x="23.4824921" y="10.8073207" width="1" height="7.08435583" rx="0.5"></rect>
                        </g>
                        <path d="M13.8420669,13.4489474 C13.8420669,10.5100372 10.9829054,8.68899339 7.45595102,8.68899339 C3.9289966,8.68899339 1.06983512,10.5100372 1.06983512,13.4489474 L13.8420669,13.4489474 Z" id="Oval-3" stroke="#5F5F5F" fill="#FFFFFF"></path>
                        <path d="M1.06983512,16.3049532 C1.71309626,14.9033952 2.63494672,14.6497733 3.8353865,15.5440876 C5.03582627,16.4384019 6.26472262,16.4782042 7.52207555,15.6634943 C8.44748993,15.0078904 9.67578316,15.1544391 11.2069552,16.1031404 C12.4279013,16.5769427 13.4322703,16.2266623 14.2200623,15.0522991" id="Path-6" stroke="#5F5F5F"></path>
                        <g id="Rectangle-6">
                            <use fill="#FFFFFF" fill-rule="evenodd" xlink:href="#path-4"></use>
                            <path stroke="#5F5F5F" stroke-width="1" d="M1.33941322,17.7126452 C1.06327085,17.7126452 0.839413222,17.9365028 0.839413222,18.2126452 L0.839413222,19.5988022 C0.839413222,19.8749445 1.06327085,20.0988022 1.33941322,20.0988022 L13.4880879,20.0988022 C13.7642303,20.0988022 13.9880879,19.8749445 13.9880879,19.5988022 L13.9880879,18.2126452 C13.9880879,17.9365028 13.7642303,17.7126452 13.4880879,17.7126452 L1.33941322,17.7126452 Z"></path>
                        </g>
                        <path d="M15.7964423,2.32046466 C16.5708633,0.982379238 18.0179128,0.0821743572 19.675232,0.0821743572 C21.5300934,0.0821743572 23.1215721,1.2097664 23.8014888,2.81681961 C24.3634937,1.91169914 25.3665533,1.30901066 26.5103887,1.30901066 C28.2700974,1.30901066 29.6966232,2.73543034 29.6966232,4.49500819 C29.6966232,6.25458604 28.2700974,7.68100573 26.5103887,7.68100573 C25.3883004,7.68100573 24.4016859,7.10101661 23.8340204,6.22449255 C23.1734055,7.87346813 21.5603401,9.03813458 19.675232,9.03813458 C17.9166816,9.03813458 16.3948726,8.02459977 15.6621684,6.54985263 C15.0523543,7.24334906 14.1584819,7.68100573 13.1623818,7.68100573 C11.3246632,7.68100573 9.83489792,6.19135123 9.83489792,4.35376929 C9.83489792,2.51618734 11.3246632,1.02653285 13.1623818,1.02653285 C14.2343254,1.02653285 15.1878813,1.53337352 15.7964423,2.32046466 Z" id="Combined-Shape" stroke="#5F5F5F" fill="#FFFFFF" stroke-linecap="square" stroke-linejoin="round"></path>
                    </g>
                </g>
            </g>
        </g>
    </g>
</svg>