<?xml version="1.0" encoding="UTF-8" standalone="no"?>
<svg width="50px" height="50px" viewBox="0 0 50 50" version="1.1" xmlns="http://www.w3.org/2000/svg" xmlns:xlink="http://www.w3.org/1999/xlink">
    <!-- Generator: Sketch 45.2 (43514) - http://www.bohemiancoding.com/sketch -->
    <title>c1</title>
    <desc>Created with Sketch.</desc>
    <defs>
        <path d="M12.2779801,9.83024368 C12.2779801,8.83156301 12.2779801,8.43770384 12.2779801,6.4403425 L29.8539735,6.4403425 L29.8539735,20.1539518 C29.8539735,21.3368762 28.8703435,22.2958259 27.6569743,22.2958259 C22.2183923,22.2958259 19.2436997,22.2958259 16.5244086,22.2958259" id="path-1"></path>
        <rect id="path-2" x="20.2173486" y="11.2036094" width="1" height="8.78734329" rx="0.5"></rect>
        <rect id="path-3" x="24.9809697" y="11.2036094" width="1" height="8.78734329" rx="0.5"></rect>
        <path d="M1.36892742,18.7093969 L14.7479216,18.7093969 L14.7479216,18.7093969 C15.3002064,18.7093969 15.7479216,19.1571122 15.7479216,19.7093969 L15.7479216,21.3900024 L15.7479216,21.3900024 C15.7479216,21.9422871 15.3002064,22.3900024 14.7479216,22.3900024 L1.36892742,22.3900024 L1.36892742,22.3900024 C0.816642666,22.3900024 0.368927415,21.9422871 0.368927415,21.3900024 L0.368927415,19.7093969 L0.368927415,19.7093969 C0.368927415,19.1571122 0.816642666,18.7093969 1.36892742,18.7093969 Z" id="path-4"></path>
    </defs>
    <g id="Page-1" stroke="none" stroke-width="1" fill="none" fill-rule="evenodd">
        <g id="c1">
            <g>
                <rect id="Rectangle-28" fill="#FFFFFF" x="0" y="0" width="50" height="50"></rect>
                <g id="Group-3" transform="translate(1.000000, 3.000000)">
                    <ellipse id="Oval-2" fill="#FFC001" cx="28.3923434" cy="9.22091879" rx="3.75263299" ry="3.75235398"></ellipse>
                    <path d="M27.8518952,14.0978213 C29.9938417,14.0620514 31.4084526,13.202715 32.0957278,11.5198121 C32.7830031,9.83690926 34.6475893,6.35203369 37.6894866,1.06518542 C39.1213713,0.435046218 39.7173773,0.750115817 39.4775048,2.01039421 C39.2376322,3.27067261 37.6555516,6.7388882 34.7312629,12.415041 C40.5403925,18.714473 43.5403917,23.0889424 43.7312606,25.5384493 C41.4391181,26.2879033 40.2930469,26.6626303 40.2930469,26.6626303 L40.3463383,39.0488346 C39.4574133,40.5656277 38.2993362,40.5656277 36.8721069,39.0488346 L37.0194852,27.5707217 C36.2008803,27.5707217 35.7915779,27.5707217 35.7915779,27.5707217 L35.8739039,39.2369943 C34.7740186,40.273833 33.7372253,40.2111131 32.7635241,39.0488346 L32.9682366,28.2950633 L30.6278256,28.9826549 C29.9111482,20.8097103 28.9858381,16.701433 27.8518952,16.6578231 C26.3634114,18.5945456 25.0448476,19.1946723 23.8962036,18.4582033 C22.7475597,17.7217342 23.1294201,15.5354795 25.0417848,11.8994391 C26.2994617,11.1629701 26.9801215,11.5721195 27.0837641,13.1268876 L25.7658127,16.0113914 L27.8518952,14.0978213 Z" id="Path-4" fill="#FFC001"></path>
                    <ellipse id="Oval" fill="#FFC001" transform="translate(11.336362, 9.887520) scale(-1, 1) translate(-11.336362, -9.887520) " cx="11.336362" cy="9.88751999" rx="3.88471026" ry="3.77118715"></ellipse>
                    <path d="M18.8454763,26.3461014 L18.841335,26.0059215 C19.5009366,23.8370887 19.6991043,20.1158767 19.4358382,14.8422855 C22.452431,11.9138467 23.5757977,7.27715195 22.805938,0.932201217 C22.3031725,-0.0439450496 21.5490243,-0.0439450496 20.5434934,0.932201217 C21.2976416,12.6459564 14.6329304,13.7462658 9.50302862,15.1677669 C4.37312686,16.589268 2.83555563,19.7177143 3.1980844,21.1685284 C3.56061317,22.6193424 6.21467726,24.3597116 8.27822569,26.4102078 C8.31964452,26.4513647 8.38594326,26.4999756 8.47712191,26.5560407 C9.98541834,26.5560407 10.2368011,25.823931 9.23127013,24.3597116 C8.72850465,23.8716385 7.65988252,22.6812453 6.02540374,20.788532 C6.43819678,19.5665618 7.76120891,18.8023388 9.99444014,18.4958632 C11.6480672,20.874624 11.3936772,23.8053864 9.23127013,27.2881504 C9.23127013,27.2881504 6.21467726,31.436772 0.181491534,39.7340153 C-0.321273944,42.174381 0.501947328,42.9064907 2.65115535,41.9303444 C2.65115535,41.9303444 6.54795332,37.6047433 14.3415492,28.9535412 C15.493582,30.2616183 16.2806839,31.6075075 16.7028548,32.9912089 C17.226511,32.2987196 17.8255449,31.7638422 18.4517364,31.3843327 C19.3496563,32.0364903 19.795243,31.9494578 19.7884964,31.1232353 C19.7781088,29.8511124 19.4637688,28.2587344 18.8454763,26.3461014 Z" id="Combined-Shape" fill="#FFC001"></path>
                    <g id="Group-2" transform="translate(13.238151, 21.545473)">
                        <path d="M29.7445908,9.61585377 L29.7445908,9.61585377 L32.673923,9.61585377 L32.673923,9.61585377 C33.0783794,9.61585377 33.4062561,9.94370607 33.4062561,10.3481324 L33.4062561,18.4031971 L33.4062561,18.4031971 C33.4062561,18.8076234 33.0783794,19.1354757 32.673923,19.1354757 L29.7445908,19.1354757 L29.7445908,19.1354757" id="Rectangle-4" stroke="#5F5F5F"></path>
                        <g id="Rectangle-2">
                            <use fill="#FFFFFF" fill-rule="evenodd" xlink:href="#path-1"></use>
                            <path stroke="#5F5F5F" stroke-width="1" d="M12.7779801,9.74741755 L16.8822974,21.7958259 C20.7382038,21.7958259 20.9537001,21.7958259 27.6569743,21.7958259 C28.5970047,21.7958259 29.3539735,21.0578503 29.3539735,20.1539518 L29.3539735,6.9403425 L12.7779801,6.9403425 C12.7779801,8.22515639 12.7779801,8.36364375 12.7779801,9.10041718 C12.7779801,9.40380741 12.7779801,9.43823838 12.7779801,9.71219064 L12.7779801,9.74741755 Z"></path>
                        </g>
                        <g id="Rectangle-3">
                            <use fill="#D8D8D8" fill-rule="evenodd" xlink:href="#path-2"></use>
                            <rect stroke="#5F5F5F" stroke-width="1" x="20.7173486" y="11.7036094" width="1" height="7.78734329" rx="0.5"></rect>
                        </g>
                        <g id="Rectangle-3">
                            <use fill="#D8D8D8" fill-rule="evenodd" xlink:href="#path-3"></use>
                            <rect stroke="#5F5F5F" stroke-width="1" x="25.4809697" y="11.7036094" width="1" height="7.78734329" rx="0.5"></rect>
                        </g>
                        <path d="M15.0457249,14.618421 C15.0457249,11.4239535 11.9379407,9.44455803 8.10429459,9.44455803 C4.27064848,9.44455803 1.16286426,11.4239535 1.16286426,14.618421 L15.0457249,14.618421 Z" id="Oval-3" stroke="#5F5F5F" fill="#FFFFFF"></path>
                        <path d="M1.16286426,17.7227752 C1.86206116,16.1993426 2.86407252,15.9236666 4.16889837,16.8957474 C5.47372421,17.8678282 6.80948111,17.9110915 8.17616907,17.0255373 C9.18205427,16.3129244 10.5171556,16.4722164 12.1814731,17.5034135 C13.5085883,18.018416 14.6002938,17.6376764 15.4565895,16.3611947" id="Path-6" stroke="#5F5F5F"></path>
                        <g id="Rectangle-6">
                            <use fill="#FFFFFF" fill-rule="evenodd" xlink:href="#path-4"></use>
                            <path stroke="#5F5F5F" stroke-width="1" d="M1.36892742,19.2093969 C1.09278504,19.2093969 0.868927415,19.4332546 0.868927415,19.7093969 L0.868927415,21.3900024 C0.868927415,21.6661447 1.09278504,21.8900024 1.36892742,21.8900024 L14.7479216,21.8900024 C15.024064,21.8900024 15.2479216,21.6661447 15.2479216,21.3900024 L15.2479216,19.7093969 C15.2479216,19.4332546 15.024064,19.2093969 14.7479216,19.2093969 L1.36892742,19.2093969 Z"></path>
                        </g>
                        <path d="M17.170046,2.52224419 C18.0118079,1.06780352 19.5846878,0.0893199535 21.3861217,0.0893199535 C23.4022755,0.0893199535 25.1321436,1.31496348 25.8711835,3.06176044 C26.4820584,2.07793385 27.5723405,1.42283767 28.8156399,1.42283767 C30.7283668,1.42283767 32.2789382,2.97329385 32.2789382,4.88587847 C32.2789382,6.79846309 30.7283668,8.34891927 28.8156399,8.34891927 C27.5959787,8.34891927 26.5235716,7.71849632 25.9065439,6.76575277 C25.1884843,8.55811753 23.4351522,9.82405932 21.3861217,9.82405932 C19.4746539,9.82405932 17.8205136,8.72239106 17.0240961,7.11940504 C16.3612546,7.8732055 15.3896543,8.34891927 14.3069367,8.34891927 C12.3094165,8.34891927 10.6901064,6.7297296 10.6901064,4.73235792 C10.6901064,2.73498624 12.3094165,1.11579657 14.3069367,1.11579657 C15.4720929,1.11579657 16.5085666,1.66671035 17.170046,2.52224419 Z" id="Combined-Shape" stroke="#5F5F5F" fill="#FFFFFF" stroke-linecap="square" stroke-linejoin="round"></path>
                    </g>
                </g>
            </g>
        </g>
    </g>
</svg>