<?xml version="1.0" encoding="UTF-8"?>
<svg width="26px" height="31px" viewBox="0 0 26 31" version="1.1" xmlns="http://www.w3.org/2000/svg" xmlns:xlink="http://www.w3.org/1999/xlink">
    <!-- Generator: Sketch 48.2 (47327) - http://www.bohemiancoding.com/sketch -->
    <title>Location Red</title>
    <desc>Created with Sketch.</desc>
    <defs>
        <path d="M10,25 C16.6666667,18.6818983 20,13.6818983 20,10 C20,4.4771525 15.5228475,0 10,0 C4.4771525,0 0,4.4771525 0,10 C0,13.6818983 3.33333333,18.6818983 10,25 Z" id="path-1"></path>
        <filter x="-25.0%" y="-12.0%" width="150.0%" height="144.0%" filterUnits="objectBoundingBox" id="filter-2">
            <feMorphology radius="0.5" operator="dilate" in="SourceAlpha" result="shadowSpreadOuter1"></feMorphology>
            <feOffset dx="0" dy="3" in="shadowSpreadOuter1" result="shadowOffsetOuter1"></feOffset>
            <feGaussianBlur stdDeviation="1" in="shadowOffsetOuter1" result="shadowBlurOuter1"></feGaussianBlur>
            <feComposite in="shadowBlurOuter1" in2="SourceAlpha" operator="out" result="shadowBlurOuter1"></feComposite>
            <feColorMatrix values="0 0 0 0 0   0 0 0 0 0   0 0 0 0 0  0 0 0 0.4 0" type="matrix" in="shadowBlurOuter1"></feColorMatrix>
        </filter>
        <rect id="path-3" x="5" y="0" width="2" height="2" rx="1"></rect>
    </defs>
    <g id="Page-1" stroke="none" stroke-width="1" fill="none" fill-rule="evenodd">
        <g id="Location-Red">
            <g transform="translate(3.000000, 1.000000)">
                <g id="Oval-26">
                    <use fill="black" fill-opacity="1" filter="url(#filter-2)" xlink:href="#path-1"></use>
                    <use stroke="#FFFFFF" stroke-width="1" fill="#FF0301" fill-rule="evenodd" xlink:href="#path-1"></use>
                </g>
                <g id="Group-72" transform="translate(4.000000, 5.000000)">
                    <path d="M11,7 C11,4.23857625 8.76142375,2 6,2 C3.23857625,2 1,4.23857625 1,7 C1.27016766,7 1.43683432,7 1.5,7 C3.65905655,7 6.82572321,7 11,7 Z" id="Oval-27" stroke="#FFFFFF" stroke-linecap="round" stroke-linejoin="round"></path>
                    <g id="Rectangle-48">
                        <use fill="#D8D8D8" fill-rule="evenodd" xlink:href="#path-3"></use>
                        <rect stroke="#FFFFFF" stroke-width="1" x="5.5" y="0.5" width="1" height="1" rx="0.5"></rect>
                    </g>
                    <rect id="Rectangle-49" fill="#FFFFFF" x="0" y="8" width="12" height="1" rx="0.5"></rect>
                </g>
            </g>
        </g>
    </g>
</svg>