<?xml version="1.0" encoding="UTF-8"?>
<svg width="177px" height="53px" viewBox="0 0 177 53" version="1.1" xmlns="http://www.w3.org/2000/svg" xmlns:xlink="http://www.w3.org/1999/xlink">
    <!-- Generator: Sketch 48.2 (47327) - http://www.bohemiancoding.com/sketch -->
    <title>LogoBlack</title>
    <desc>Created with Sketch.</desc>
    <defs></defs>
    <g id="Page-1" stroke="none" stroke-width="1" fill="none" fill-rule="evenodd">
        <g id="LogoBlack" fill="#FFC001" fill-rule="nonzero">
            <g id="Group">
                <path d="M62.7093633,29.1202456 C62.7093633,23.4278596 66.7334342,19.3366316 72.1893946,19.3366316 C77.6453549,19.3366316 81.7544154,23.4278596 81.7544154,29.1202456 C81.7544154,35.0134737 77.6508977,38.9466316 72.1893946,38.9466316 C66.7278914,38.9466316 62.7093633,35.0134737 62.7093633,29.1202456 Z M79.3377557,29.1202456 C79.3377557,24.4971579 76.1340188,21.4696491 72.196785,21.4696491 C68.2595511,21.4696491 65.0927662,24.4990175 65.0927662,29.1202456 C65.0927662,33.7061404 68.2521608,36.744807 72.196785,36.744807 C76.1414092,36.744807 79.3359081,33.7061404 79.3359081,29.1202456 L79.3377557,29.1202456 Z" id="Shape"></path>
                <path d="M90.4233507,22.0424211 C89.767453,22.0424211 89.767453,22.1205263 89.767453,22.6598246 C89.767453,24.2182105 89.6455115,28.4247368 89.6455115,31.4596842 C89.6455115,34.6545614 89.7249582,36.8210526 92.9268476,36.8210526 C93.2963674,36.8210526 93.6658873,36.7782807 94.0779019,36.7429474 L94.2441858,36.7429474 C94.516064,36.7486732 94.7741302,36.8646375 94.9598765,37.0645491 C95.1456227,37.2644608 95.2433146,37.5313856 95.2308038,37.804807 C95.2308038,38.8666667 94.2441858,39.0749474 92.6035177,39.0749474 C87.3489457,39.0749474 87.3489457,34.6117895 87.3489457,32.8153684 C87.3489457,30.1951228 87.4283925,25.190807 87.4283925,23.1972632 L87.4283925,22.5445263 C87.4283925,22.1354035 87.3064509,22.0572982 87.0182255,22.0572982 L84.5997182,22.0572982 C83.8218789,22.0572982 83.4486639,21.5254386 83.4486639,20.9954386 C83.4486639,20.4654386 83.8181837,19.9335789 84.5997182,19.9335789 L86.9812735,19.9335789 C87.3507933,19.9335789 87.4339353,19.890807 87.4339353,19.5244561 C87.4339353,19.3589474 87.4764301,17.3932982 87.4764301,15.9650877 L87.4764301,14.9385614 C87.4733025,14.6218317 87.5983297,14.3174508 87.8227596,14.0954156 C88.0471896,13.8733803 88.3517071,13.7527999 88.6662839,13.7614035 C89.2852296,13.7614035 89.8542902,14.1705263 89.8542902,15.0315439 C89.8542902,16.2161404 89.7748434,19.4947018 89.7748434,19.4947018 C89.7748434,19.9465965 89.8542902,19.9465965 90.3937891,19.9465965 L94.0427975,19.9465965 C94.8206367,19.9465965 95.1938518,20.4784561 95.1938518,21.0084561 C95.1938518,21.5384561 94.8243319,22.0703158 94.0427975,22.0703158 L90.4233507,22.0703158 L90.4233507,22.0424211 Z" id="Shape-2"></path>
                <path d="M54.6353549,31.5898596 C54.6353549,34.7847368 54.7148017,36.9512281 57.916691,36.9512281 C58.2862109,36.9512281 58.6557307,36.9084561 59.0677453,36.8731228 L59.2340292,36.8731228 C59.5059074,36.8788486 59.7639736,36.9948129 59.9497199,37.1947246 C60.1354661,37.3946363 60.233158,37.661561 60.2206472,37.9349825 C60.2206472,38.9968421 59.2340292,39.2051228 57.5933612,39.2051228 C52.3387891,39.2051228 52.3387891,34.7419649 52.3387891,32.9455439 C52.3387891,30.3252982 52.4607307,10.1499649 52.4607307,10.1499649 C52.4555923,9.83228439 52.5794746,9.52625083 52.8037265,9.30264258 C53.0279784,9.07903432 53.3331769,8.95721857 53.648737,8.96536842 C54.2676827,8.96536842 54.8367432,9.37449123 54.8367432,10.2355088 C54.8441336,11.4145263 54.6353549,28.5604912 54.6353549,31.5898596 Z" id="Shape-3"></path>
                <path d="M108.413424,39.4115439 C102.79118,39.4115439 98.6026722,35.1975789 98.6026722,29.0979298 C98.6026722,22.8383509 103.03691,18.5388421 108.326587,18.5388421 C113.991326,18.5388421 117.195063,22.6728421 117.195063,25.7803158 C117.195063,27.703193 115.920219,29.2615789 113.294781,29.3396842 C112.019937,29.3824561 111.157109,29.3824561 103.195804,29.3824561 C102.951921,29.3824561 102.865084,29.7134737 102.865084,30.1579298 C102.907578,33.5536491 105.534864,35.5992632 108.450376,35.5992632 C111.037015,35.5992632 112.596388,34.3718947 113.784395,33.1017544 C114.134326,32.6911385 114.64372,32.4530916 115.18118,32.4490175 C116.289739,32.4490175 117.353956,33.4327719 117.353956,34.5801754 C117.354854,35.1245124 117.130604,35.6446625 116.73501,36.0158246 C114.776555,38.0632982 112.559436,39.4115439 108.413424,39.4115439 Z M112.932651,25.0922456 C112.932651,24.517614 112.069823,22.1056491 108.376472,22.1056491 C105.050793,22.1056491 103.243841,24.9695088 103.243841,25.6650175 C103.243841,26.0369474 103.654008,26.0369474 107.469301,26.0369474 C109.154311,26.0369474 110.996367,26.0369474 112.104927,25.9941754 C112.33516,25.9855024 112.552384,25.8845102 112.708209,25.713697 C112.864033,25.5428839 112.945514,25.3164387 112.934499,25.084807 L112.932651,25.0922456 Z" id="Shape-4"></path>
                <path d="M136.046117,38.3087719 C135.599779,37.9286617 135.224381,37.4714667 134.937557,36.9586667 C134.904822,36.8933414 134.843014,36.8477201 134.771273,36.8359298 C134.677406,36.844053 134.590167,36.8879572 134.52739,36.9586667 C133.130605,38.552386 130.547662,39.4134035 128.121764,39.4134035 C123.608079,39.4134035 120.938299,36.1404211 120.938299,32.9901754 C120.938299,30.9017895 122.1688,28.8134035 124.918027,27.8724211 C127.746701,26.8886667 131.281159,26.113193 131.938904,26.0704211 C132.349071,26.0276491 132.677944,25.5385614 132.677944,24.6775439 C132.677944,24.1903158 132.556002,22.1000702 129.762432,22.1000702 C128.242949,22.08553 126.785641,22.7064675 125.738361,23.8146667 C125.365029,24.2748373 124.809773,24.5467969 124.219635,24.5585263 C123.15357,24.5585263 122.248246,23.7402807 122.248246,22.6784211 C122.248246,20.7109123 125.86215,18.5444211 130.008163,18.5444211 C134.521848,18.5444211 136.98285,20.7555439 136.98285,25.4641754 C136.98285,25.9960351 136.940355,26.4907018 136.903403,27.0578947 C136.774666,28.1853303 136.704977,29.3188046 136.694624,30.453614 C136.684165,30.7679117 136.698374,31.08255 136.737119,31.3945965 C137.106639,34.6675789 138.623518,34.7903158 138.954238,35.0413684 C139.392996,35.3831417 139.637946,35.9192963 139.610136,36.4770175 C139.610136,37.6262807 138.710355,38.9317544 137.514958,38.9317544 C136.969974,38.8949729 136.452899,38.6756646 136.046117,38.3087719 Z M132.267777,29.5089123 C125.330042,30.3699298 124.919875,32.086386 124.919875,33.0682807 C124.919875,34.3384211 126.028434,35.6085614 128.123612,35.6085614 C131.44929,35.6085614 132.88118,33.9348772 132.88118,31.0226667 C132.88118,30.4052632 132.801733,29.5089123 132.304729,29.5089123 L132.267777,29.5089123 Z" id="Shape-5"></path>
                <path d="M148.781618,39.3334386 C143.772777,39.3334386 141.677599,36.5123509 141.677599,35.1566667 C141.677599,34.0520351 142.706712,33.1891579 143.772777,33.1891579 C144.423734,33.1925014 145.032626,33.5134921 145.406054,34.0501754 C145.982505,34.7940351 147.046722,35.4858246 148.731733,35.4858246 C150.904509,35.4858246 151.769186,34.3365614 151.769186,33.3974386 C151.769186,32.0956842 150.869405,31.3090526 146.061952,29.1407018 C143.514113,28.0360702 142.366754,26.0332281 142.366754,24.0229474 C142.366754,21.2334737 144.663319,18.5388421 148.607944,18.5388421 C152.386284,18.5388421 154.926733,20.383614 154.926733,21.9773333 C154.903862,23.1046433 153.996064,24.0101298 152.875898,24.0229474 C152.22576,23.9973363 151.61543,23.7009585 151.190887,23.2047018 C150.78072,22.7955789 150.039833,22.2209474 148.604248,22.2209474 C147.207463,22.2209474 146.431472,22.9964211 146.431472,23.8946316 C146.431472,24.5120351 146.841639,25.2447368 147.783914,25.6966316 C148.849979,26.2284912 150.699426,27.0467368 151.929927,27.6994737 C154.758601,29.2132281 155.953998,31.3034737 155.953998,33.3044561 C155.965084,36.5123509 152.885136,39.3334386 148.781618,39.3334386 Z" id="Shape-6"></path>
                <path d="M159.481065,49.8702105 C158.171117,49.8702105 157.633466,48.7209474 157.633466,47.7018596 C157.633466,46.6827719 158.165574,45.6562456 159.481065,45.6134737 C162.187797,45.4907368 163.460793,43.6106316 165.188299,39.6347018 C165.243682,39.4216815 165.270402,39.2021419 165.267745,38.9819649 C165.275339,38.6169733 165.204105,38.2546742 165.058967,37.9201053 C163.828466,34.8479649 159.682453,25.0290175 158.695835,22.3232281 C158.586146,22.03727 158.529776,21.7334078 158.529551,21.4268772 C158.529551,20.1567368 159.638111,19.3384912 160.704175,19.3384912 C161.533111,19.3305181 162.275488,19.8535711 162.551775,20.6402456 C166.367067,30.9984912 167.438674,33.6168772 167.684405,33.6168772 C167.97263,33.6168772 170.965741,25.9923158 172.772693,20.7257895 C173.103413,19.7420351 173.960699,19.3329123 174.781033,19.3329123 C175.889593,19.3329123 176.998152,20.0767719 176.998152,21.3357544 C177.001093,21.6751167 176.929815,22.010974 176.789374,22.3195088 C174.817985,27.1062456 171.290919,35.4542105 168.865021,41.2693333 C166.577693,46.7627368 164.238633,49.8274386 159.481065,49.8702105 Z" id="Shape-7"></path>
                <path d="M6.15804802,3.32691228 C5.62619822,4.72246653 5.22777695,6.16588858 4.96819415,7.63757895 C4.69640241,9.14095942 4.5364489,10.6626582 4.48966597,12.19 C4.44005102,13.7264121 4.49808626,15.2644334 4.66334029,16.7926316 C4.74648225,17.5550877 4.84810021,18.3249825 4.98482255,19.0781404 L5.0919833,19.647193 C5.10861169,19.7401754 5.13263048,19.8480351 5.15849687,19.9484561 L5.22501044,20.2590175 L5.25826722,20.4189474 L5.29152401,20.595614 L5.34140919,20.8634035 C5.37466597,21.0493684 5.41531315,21.2353333 5.45780793,21.4212982 C5.79537982,22.9188797 6.23995989,24.3899689 6.78807933,25.8230877 C7.33185256,27.2474858 7.99571427,28.622442 8.77240084,29.9329123 C9.5252237,31.2152249 10.4256817,32.4036917 11.4551148,33.4736842 C12.4530872,34.5239233 13.6037054,35.4155584 14.8676305,36.1181053 C16.1270276,36.8066274 17.4892163,37.2845873 18.9009395,37.5332982 C19.6156295,37.6561099 20.3379312,37.7288111 21.0626305,37.7508772 C21.4321503,37.7508772 21.8016701,37.7508772 22.17119,37.7508772 C22.3559499,37.7508772 22.5517954,37.7341404 22.7420981,37.7174035 C22.9324008,37.7006667 23.1227035,37.6932281 23.3130063,37.6764912 C24.0816075,37.6169825 24.8335804,37.5165614 25.5855532,37.3919649 C26.3375261,37.2673684 27.0821086,37.1074386 27.8026722,36.9140351 C29.2538967,36.5327203 30.6567983,35.9848719 31.9837891,35.2812632 C33.2844874,34.5848343 34.4740291,33.6959489 35.5127035,32.6442807 C36.5313396,31.6141604 37.3463988,30.3987434 37.9145825,29.0625965 C38.1893841,28.4101137 38.3865978,27.7272241 38.502119,27.0281404 C38.5353758,26.8514737 38.5520042,26.6841053 38.5686326,26.5092982 C38.5822664,26.3646734 38.5878179,26.2193919 38.585261,26.0741404 C38.584022,25.9281887 38.5704238,25.782609 38.5446138,25.6389825 C38.5223973,25.4948193 38.4921725,25.3520223 38.4540814,25.2112632 C38.4128962,25.0687906 38.3629138,24.9290451 38.3044259,24.7928421 C38.2471503,24.6589474 38.1806367,24.5157544 38.1067328,24.3818596 C37.952487,24.1065996 37.7664345,23.8506695 37.552453,23.6194035 C37.1056858,23.1254048 36.5806194,22.7093989 35.9986221,22.3883158 C35.3845379,22.0468624 34.7285798,21.7880198 34.0475574,21.6184211 C33.3432285,21.4410281 32.6237388,21.3314356 31.8987996,21.2911228 C30.4057573,21.2195472 28.9105831,21.3769374 27.4645616,21.7578947 C26.7215512,21.9452869 25.9904264,22.1775435 25.2751566,22.4534035 C24.5564405,22.7304912 23.8451148,23.039193 23.1504175,23.3832281 C22.9767432,23.4762105 22.8030689,23.5598947 22.6293946,23.6510175 L22.1176096,23.9281053 L21.5965866,24.2219298 L21.0848017,24.5157544 C20.4067328,24.9174386 19.7286639,25.3358596 19.0764614,25.7710175 C17.7659306,26.643641 16.5204199,27.6113693 15.3498539,28.6664912 C14.1892235,29.716125 13.1295507,30.8736145 12.1849165,32.1235789 C11.2487987,33.3608307 10.4790881,34.7170783 9.89574113,36.1571579 C9.31413119,37.5813208 8.98399806,39.0967475 8.92020877,40.635193 C8.85795257,42.1610123 9.11999089,43.6826314 9.68881002,45.0983509 C10.2621124,46.5101301 11.1465839,47.7723632 12.2754489,48.7897544 C13.4448682,49.7952686 14.7979483,50.561498 16.2588727,51.0455088 C17.0023414,51.2947082 17.7615556,51.4935156 18.5314196,51.6405965 C19.3107587,51.7831708 20.0971089,51.8837352 20.8871086,51.9418596 C22.4819998,52.0446924 24.0826307,52.0135907 25.6723904,51.8488772 C27.2720379,51.6851429 28.8594015,51.4167862 30.4244154,51.0455088 C33.5752872,50.3030945 36.6269127,49.1849833 39.5146033,47.7148772 C36.6826629,49.3301828 33.6695307,50.5999815 30.5389666,51.4974035 C28.9711741,51.9501964 27.3757956,52.2999279 25.7629228,52.544386 C24.1390328,52.7960257 22.4965301,52.9055349 20.8538518,52.8716842 C20.0245968,52.8554966 19.1968541,52.7934146 18.3743737,52.6857193 C17.5456889,52.5692956 16.7254531,52.3984634 15.9189144,52.1743158 C14.2695108,51.7164524 12.7253362,50.9374342 11.3738205,49.8813684 C10.0051761,48.7803616 8.92653172,47.3574832 8.23290188,45.7380702 C7.88459144,44.931193 7.62140571,44.0897389 7.44767223,43.2275439 C7.27995215,42.3626185 7.19886761,41.4829386 7.20563674,40.6017193 C7.23229644,38.8558721 7.56245917,37.1282063 8.1811691,35.4969825 C8.79088978,33.8862903 9.60504554,32.3617467 10.6033716,30.9612982 C11.5861723,29.5784698 12.6999494,28.2948778 13.9290501,27.1285614 C15.1480965,25.9718184 16.4491633,24.9059038 17.8219415,23.9392632 C18.5074008,23.4538947 19.2020981,22.9927018 19.9134238,22.5575439 L20.4510752,22.2302456 L20.9887265,21.9122456 C21.3582463,21.7021053 21.7277662,21.4938246 22.097286,21.3004211 C22.8500623,20.9046442 23.622098,20.5471419 24.4104802,20.2292632 C25.2040741,19.9066758 26.0152472,19.6297612 26.8400731,19.3998596 C28.5221265,18.9211315 30.2657931,18.6979909 32.0133507,18.7378246 C32.9070797,18.7611002 33.7960955,18.8763791 34.6665031,19.0818596 C35.5666514,19.2884263 36.4361952,19.6122558 37.253142,20.0451579 C38.1066363,20.492916 38.8792378,21.0819613 39.5386221,21.7876491 C39.8826109,22.1544556 40.1850117,22.558623 40.4402505,22.9927018 C40.5715381,23.2143657 40.6899821,23.4434849 40.7949896,23.6789123 C40.899698,23.9165321 40.9909915,24.1599136 41.0684342,24.4078947 C41.146467,24.6602432 41.2081828,24.9174128 41.2531942,25.1777895 C41.2938413,25.4381404 41.3270981,25.6966316 41.3437265,25.9644211 C41.3602544,26.2263677 41.3602544,26.489106 41.3437265,26.7510526 C41.327714,26.9853684 41.3030793,27.2196842 41.2698225,27.454 C41.1393332,28.3773458 40.9005587,29.2818673 40.5584969,30.1486316 C39.8863848,31.847044 38.8987683,33.4009297 37.6485282,34.7270877 C36.4254906,36.0272573 35.0162092,37.1360855 33.4674113,38.016807 C31.9503739,38.8786649 30.3380963,39.5583655 28.6636534,40.0419649 C27.8377766,40.2855789 27.0008142,40.4864211 26.1509186,40.6444912 C25.301023,40.8025614 24.4640605,40.9290175 23.6141649,41.0164211 C23.3998434,41.0331579 23.1929123,41.059193 22.9785908,41.0759298 L22.3337787,41.1261404 C21.8958977,41.1521754 21.4580167,41.1689123 21.0108977,41.1689123 C20.1176316,41.1732947 19.2252679,41.1111367 18.3411169,40.9829474 C16.546823,40.7193795 14.8074411,40.1621876 13.191858,39.3334386 C11.5861271,38.4972574 10.1148994,37.422062 8.82782881,36.1441404 C7.55862045,34.8949462 6.44046556,33.4992165 5.49660752,31.9859649 C4.5663059,30.5076982 3.76277603,28.9523704 3.0947286,27.3368421 C2.42459253,25.729073 1.87493655,24.0730803 1.45036534,22.3827368 C1.40048017,22.1651579 1.34320459,21.9550175 1.30070981,21.73 L1.22680585,21.3952632 L1.21017745,21.3022807 L1.21017745,21.2520702 L1.17692067,21.1088772 L1.1085595,20.8280702 C1.08454071,20.7276491 1.06791232,20.6421053 1.04204593,20.526807 L0.909018789,19.890807 C0.735344468,19.0372281 0.594926931,18.1836491 0.478528184,17.3207719 C0.253982929,15.5945315 0.14903225,13.8546582 0.164436326,12.1137544 C0.176260779,10.3609565 0.320170522,8.61158676 0.594926931,6.88070175 C0.866722563,5.11733026 1.29966595,3.38297752 1.88824635,1.6997193 C2.15416423,0.915146231 2.82070842,0.336569194 3.63081416,0.187126836 C4.4409199,0.0376844774 5.26799834,0.34072898 5.79307179,0.979385776 C6.31814524,1.61804257 6.4591646,2.49251379 6.16174322,3.26554386 C6.16174322,3.2822807 6.16174322,3.2897193 6.14511482,3.30831579 L6.15804802,3.32691228 Z" id="Shape-8"></path>
            </g>
        </g>
    </g>
</svg>