<?xml version="1.0" encoding="UTF-8" standalone="no"?>
<svg width="44px" height="44px" viewBox="0 0 44 44" version="1.1" xmlns="http://www.w3.org/2000/svg" xmlns:xlink="http://www.w3.org/1999/xlink">
    <!-- Generator: Sketch 45.2 (43514) - http://www.bohemiancoding.com/sketch -->
    <title>logo</title>
    <desc>Created with Sketch.</desc>
    <defs></defs>
    <g id="Symbols" stroke="none" stroke-width="1" fill="none" fill-rule="evenodd">
        <g id="logo">
            <circle id="Oval" fill="#FFFFFF" cx="22" cy="22" r="21.9115349"></circle>
            <path d="M14.8584548,11.4992204 C14.6097407,12.1256436 14.4270912,12.8023352 14.298848,13.4906273 C14.1706047,14.1789193 14.0967677,14.8865454 14.0734508,15.5941716 C14.0501338,16.3017977 14.0773369,17.0171574 14.1550601,17.7209167 C14.1939217,18.0727963 14.2444417,18.4285428 14.3066203,18.7765556 L14.3571403,19.0394987 C14.3649127,19.0820336 14.3765711,19.1323021 14.3882296,19.1787038 L14.4193189,19.3217758 L14.4348635,19.3952451 L14.4504081,19.4764481 L14.4737251,19.600186 C14.4892697,19.6852558 14.5087005,19.7703257 14.5281313,19.8553955 C14.6835777,20.5398207 14.8973164,21.2281128 15.1538029,21.8893372 C15.4141755,22.5505616 15.721182,23.1885851 16.0864809,23.7879406 C16.4478937,24.387296 16.8675988,24.9441166 17.3455963,25.4274677 C17.8235939,25.9146857 18.3598837,26.3323011 18.9505799,26.6493795 C19.541276,26.9664579 20.178606,27.186866 20.8470253,27.3028703 C21.1812349,27.3608724 21.5232169,27.3918069 21.8651988,27.4034073 C22.0361898,27.4072741 22.211067,27.4072741 22.3859441,27.3995405 C22.4714396,27.3956737 22.5647074,27.3918069 22.6540891,27.3840733 C22.7434707,27.3802065 22.8328524,27.3724728 22.922234,27.3647392 C23.2836468,27.3376716 23.6372872,27.2912698 23.9909276,27.2332677 C24.3445681,27.1752656 24.6943223,27.1017962 25.0363043,27.0128596 C25.7241544,26.8311195 26.3886875,26.5836437 27.0027006,26.2588318 C27.6167136,25.930153 28.1840928,25.524138 28.6620903,25.0407868 C29.1400878,24.5574356 29.536476,23.9967483 29.7929625,23.3857924 C29.9212057,23.0803145 30.0183597,22.7632361 30.0688798,22.4461577 C30.0844244,22.3649547 30.0921967,22.2876185 30.099969,22.2064155 C30.1038552,22.136813 30.1116275,22.0710772 30.1077413,22.0053415 C30.1077413,21.9396057 30.099969,21.8700031 30.0883106,21.8042674 C30.0766521,21.7385316 30.0649936,21.6727959 30.0455628,21.6070601 C30.026132,21.5413243 30.0028151,21.4755886 29.975612,21.4137196 C29.9484088,21.3518507 29.9173196,21.2861149 29.8823441,21.224246 C29.8123933,21.1005081 29.7268978,20.980637 29.6258577,20.8723663 C29.4276636,20.6519582 29.1750633,20.4586177 28.8952598,20.3039453 C28.6154564,20.149273 28.3045637,20.0294019 27.9781264,19.9481989 C27.6516891,19.8669959 27.3135933,19.8167274 26.9677252,19.7973933 C26.2759889,19.7587252 25.568708,19.843795 24.8769718,20.0178015 C24.5311037,20.1028713 24.1852356,20.2111419 23.8471398,20.3387466 C23.509044,20.4663513 23.1748343,20.6094233 22.848397,20.7679625 C22.7667877,20.8104974 22.6851783,20.8491655 22.603569,20.8917004 C22.5219597,20.9342353 22.4442365,20.9767702 22.3626272,21.0193051 L22.1177992,21.1546434 L21.8768573,21.2899817 C21.5581923,21.4755886 21.2395273,21.668929 20.9325208,21.8700031 C20.3146215,22.2760181 19.7278116,22.7207012 19.1798632,23.2079192 C18.635801,23.6951371 18.1306004,24.2287568 17.6914645,24.8049114 C17.2523285,25.381066 16.8831435,26.0074891 16.6149985,26.6687135 C16.3468536,27.3299379 16.1797487,28.0298304 16.1564318,28.7374565 C16.1408872,29.0893362 16.1680903,29.4412158 16.2263826,29.7892287 C16.2885612,30.1333747 16.3857152,30.4736539 16.5178445,30.7984659 C16.7898757,31.4442231 17.1979223,32.0358449 17.7342122,32.5037289 C18.2705021,32.9716128 18.9194906,33.311892 19.6112268,33.5477674 C19.957095,33.6637717 20.3185077,33.7527083 20.6799205,33.8223108 C21.0452194,33.8880466 21.4144044,33.9344483 21.7874757,33.961516 C22.5336181,34.0117845 23.2875329,33.9924505 24.0375615,33.9189811 C24.7875902,33.8455117 25.5337326,33.717907 26.2721028,33.5477674 C27.7449569,33.2036214 29.1867217,32.6932025 30.5468773,32.0087773 C29.2216972,32.7550715 27.7993631,33.3389597 26.326509,33.7565751 C25.5881388,33.9653828 24.8381102,34.1277888 24.0803093,34.2399263 C23.3186222,34.3520637 22.5491628,34.4100659 21.771931,34.3907318 C21.3833152,34.3829982 20.9946993,34.3520637 20.6060834,34.3017952 C20.2174676,34.2476599 19.8327379,34.1703237 19.4518943,34.0659198 C18.6940934,33.8493785 17.9518371,33.5090993 17.3145071,33.0064141 C16.9997282,32.7550715 16.7043802,32.4650608 16.455666,32.1402488 C16.2030657,31.8193036 16.0009854,31.4635571 15.8338806,31.0923434 C15.670662,30.7211297 15.5463049,30.330582 15.4646956,29.9323006 C15.3869724,29.5340193 15.3481108,29.1280043 15.351997,28.7219893 C15.3597693,27.9099593 15.5268741,27.1095298 15.8105637,26.3632356 C16.0942533,25.6130746 16.4867553,24.9131821 16.9492082,24.2674249 C17.411661,23.6216678 17.9440648,23.0339127 18.5153301,22.4964262 C19.0904816,21.9589397 19.7044946,21.467855 20.3457108,21.0231719 C20.668262,20.7988969 20.9946993,20.5862224 21.328909,20.3851483 L21.5815093,20.2343428 L21.8341096,20.087404 C22.0051006,19.9907338 22.1799777,19.8940636 22.3548548,19.8051269 C22.7084953,19.6233869 23.069908,19.4571141 23.4429793,19.3101753 C23.8160505,19.1632366 24.196894,19.0317651 24.5855099,18.9273612 C25.3627416,18.7185535 26.1827211,18.5948156 27.0143591,18.6218833 C27.430178,18.6334837 27.8498832,18.6837522 28.261816,18.7804225 C28.677635,18.8770927 29.0856816,19.0201646 29.4742975,19.2251055 C29.8629133,19.4261796 30.2320984,19.6929895 30.5507634,20.0294019 C30.7100959,20.1956747 30.8538838,20.3851483 30.9743547,20.5862224 C31.0365333,20.6867595 31.0909395,20.7950301 31.1414595,20.9033008 C31.1880934,21.0115715 31.2347274,21.1237089 31.2697028,21.2397132 C31.3085644,21.3557175 31.3357675,21.4755886 31.3590844,21.5954597 C31.3785152,21.7153308 31.3940599,21.8352018 31.4018322,21.9589397 C31.4096045,22.0788108 31.4057183,22.2025487 31.397946,22.3224198 C31.3901737,22.4306905 31.3785152,22.5389612 31.3629706,22.6472318 C31.300792,23.0803145 31.1880934,23.4940631 31.0287609,23.8923444 C30.7139821,24.6889072 30.2359846,25.4004001 29.6608331,26.0074891 C29.0856816,26.6145782 28.4133762,27.1211302 27.6944368,27.5271452 C26.9754975,27.9331602 26.2099242,28.2386381 25.4326925,28.4629131 C25.0440766,28.5750506 24.6476884,28.667854 24.2513003,28.7413234 C23.8549121,28.8147927 23.4585239,28.8727949 23.0582496,28.9153298 C22.9572094,28.9230634 22.8600555,28.9346638 22.7590153,28.9423974 C22.6579752,28.9501311 22.5608212,28.9578647 22.455895,28.9655983 C22.2499286,28.9771987 22.0439621,28.9849323 21.8341096,28.9849323 C21.4182906,28.9849323 20.9985855,28.9578647 20.5788803,28.8959957 C19.7433562,28.7761246 18.9156044,28.5170484 18.1578035,28.1342343 C17.3961164,27.7514202 16.7082663,27.2410013 16.1059117,26.6609799 C15.5035571,26.0809585 14.986698,25.4274677 14.5475621,24.7391757 C14.10454,24.0508836 13.735355,23.3316571 13.4205761,22.5892297 C13.1057973,21.8468023 12.8493108,21.0889076 12.6472305,20.3000785 C12.6239136,20.1995415 12.5967105,20.1028713 12.5772797,19.9984674 L12.5423042,19.843795 L12.5345319,19.8012601 L12.5306458,19.7780593 C12.5306458,19.7741925 12.5306458,19.7819261 12.5306458,19.7819261 L12.5151011,19.7161903 L12.4840119,19.5847188 C12.4723534,19.5383171 12.4645811,19.499649 12.4529226,19.4455137 L12.3907441,19.1516362 C12.3091347,18.7572216 12.24307,18.362807 12.1886638,17.9645257 C12.0837375,17.167963 12.0332175,16.3636666 12.0409898,15.5593703 C12.0487621,14.7550739 12.1109406,13.9469108 12.24307,13.1426144 C12.3751994,12.3383181 12.5656212,11.5417553 12.8531969,10.7490594 C13.0552772,10.1961057 13.6692903,9.91382861 14.2211248,10.1110359 C14.7768455,10.31211 15.0605351,10.9230659 14.862341,11.4721528 C14.8584548,11.4798864 14.8584548,11.4837532 14.8545686,11.4914868 L14.8584548,11.4992204 Z" id="Shape" fill="#FFC001" fill-rule="nonzero"></path>
        </g>
    </g>
</svg>