<?xml version="1.0" encoding="UTF-8"?>
<svg width="100px" height="93px" viewBox="0 0 100 93" version="1.1" xmlns="http://www.w3.org/2000/svg" xmlns:xlink="http://www.w3.org/1999/xlink">
    <!-- Generator: Sketch 48.2 (47327) - http://www.bohemiancoding.com/sketch -->
    <title>Meet Friends now</title>
    <desc>Created with Sketch.</desc>
    <defs>
        <path d="M1.1716112,47.5 L56.5909,47.5 C57.237963,47.5 57.7625112,48.0245482 57.7625112,48.6716112 L57.7625112,48.6716112 C57.7625112,49.3186742 57.237963,49.8432224 56.5909,49.8432224 L1.1716112,49.8432224 C0.524548202,49.8432224 7.92423631e-17,49.3186742 0,48.6716112 L0,48.6716112 C-7.92423631e-17,48.0245482 0.524548202,47.5 1.1716112,47.5 Z" id="path-1"></path>
    </defs>
    <g id="Page-1" stroke="none" stroke-width="1" fill="none" fill-rule="evenodd">
        <g id="Meet-Friends-now">
            <g>
                <path d="M40,93 C17.90861,93 0,75.09139 0,53 C0,30.90861 17.90861,13 40,13 L60,13 C82.09139,13 100,30.90861 100,53 C100,75.09139 82.09139,93 60,93 L40,93 Z" id="Path-13" fill="#FFFFFF" fill-rule="nonzero" opacity="0.14"></path>
                <g id="Group-32" transform="translate(71.000000, 41.000000)" stroke="#FFFFFF">
                    <path d="M7.5,15 C19,15 12,2 11.5,0.5 C11.5,0.5 11.0898509,0.5 7.5,0.5 C3.91014913,0.5 3.5,0.5 3.5,0.5 C3,2 -4,15 7.5,15 Z" id="Oval-4" stroke-linecap="square"></path>
                    <path d="M4,23 L11,23" id="Path-8" stroke-linecap="round"></path>
                    <path d="M13.5,7.5 C10.5,9.83333333 6.5,11 1.5,11" id="Path-5" stroke-linecap="round"></path>
                    <path d="M7.5,15.5 L7.5,22.5" id="Path-8" stroke-linecap="round"></path>
                </g>
                <g id="Group-29" transform="translate(5.000000, 0.000000)">
                    <g id="Group-26" fill="#FFC001">
                        <ellipse id="Oval" transform="translate(12.188406, 13.369863) scale(-1, 1) translate(-12.188406, -13.369863) " cx="12.1884058" cy="13.369863" rx="5.46376812" ry="5.01369863"></ellipse>
                        <ellipse id="Oval-Copy" cx="44.1304348" cy="13.369863" rx="5.46376812" ry="5.01369863"></ellipse>
                        <path d="M9.53379374,20.8809841 C17.3552161,19.9231798 26.9465807,17.3035617 25.8763285,1.01785657 C27.3033314,-0.339285523 28.3735836,-0.339285523 29.087085,1.01785657 C30.1796342,9.83928018 28.5854043,16.2857051 24.3043956,20.3571314 C22.7717182,27.7240163 22.4904878,32.89764 23.4607042,35.8780025 C26.2341234,44.3975391 26.5153539,51.7774798 24.3043956,58.0178245 C21.6269649,59.7591819 20.2882495,59.1931542 20.2882495,56.3197415 C22.5150103,51.0744942 21.5373325,46.1258389 17.3552161,41.4737755 C16.5365365,53.1416777 16.1271966,58.9756288 16.1271966,58.9756288 C14.6646281,61.6747904 13.2815586,61.6747904 11.9779882,58.9756288 C11.2630635,47.9062279 10.9056012,40.4619638 10.9056012,36.6428365 C11.6205259,31.6493091 10.7375573,28.6261225 10.0226326,26.1489075 C7.41549184,27.1067117 5.94897514,27.7452479 5.62308254,28.064516 C5.13424365,28.5434181 3.17888805,29.5012224 3.17888805,32.3746351 C3.17888805,34.2902436 3.01594175,36.0462181 2.69004915,37.6425585 C1.06058615,38.6003628 0.245854652,38.4407287 0.245854652,37.1636564 C0.245854652,35.2480479 -0.735648487,28.7604275 1.22353245,26.6278096 C4.15656585,23.4351288 6.92665294,21.5195203 9.53379374,20.8809841 Z" id="Combined-Shape"></path>
                        <path d="M38.1135039,20.8809841 C45.9349263,19.9231798 55.5262908,17.3035617 54.4560386,1.01785657 C55.8830415,-0.339285523 56.9532937,-0.339285523 57.6667952,1.01785657 C58.7593443,9.83928018 57.1651145,16.2857051 52.8841057,20.3571314 C51.3514284,27.7240163 51.0701979,32.89764 52.0404144,35.8780025 C54.8138336,44.3975391 55.095064,51.7774798 52.8841057,58.0178245 C50.206675,59.7591819 48.8679597,59.1931542 48.8679597,56.3197415 C51.0947204,51.0744942 50.1170426,46.1258389 45.9349263,41.4737755 C45.1162466,53.1416777 44.7069068,58.9756288 44.7069068,58.9756288 C43.2443382,61.6747904 41.8612688,61.6747904 40.5576984,58.9756288 C39.8427737,47.9062279 39.4853113,40.4619638 39.4853113,36.6428365 C40.200236,31.6493091 39.3172675,28.6261225 38.6023428,26.1489075 C35.995202,27.1067117 34.5286853,27.7452479 34.2027927,28.064516 C33.7139538,28.5434181 31.7585982,29.5012224 31.7585982,32.3746351 C31.7585982,34.2902436 31.5956519,36.0462181 31.2697593,37.6425585 C29.6402963,38.6003628 28.8255648,38.4407287 28.8255648,37.1636564 C28.8255648,35.2480479 27.8440617,28.7604275 29.8032426,26.6278096 C32.736276,23.4351288 35.5063631,21.5195203 38.1135039,20.8809841 Z" id="Combined-Shape-Copy" transform="translate(43.289855, 30.500000) scale(-1, 1) translate(-43.289855, -30.500000) "></path>
                    </g>
                    <g id="Group-27" transform="translate(13.000000, 16.000000)">
                        <path d="M28.0389909,11.3185193 C26.3377117,10.2437796 26.5398758,8.42839249 28.645483,5.8723579 C30.7510902,3.31632331 30.7510902,1.35887067 28.645483,0 C32.0609012,1.91454695 33.1473673,3.47288138 31.9048813,4.67500329 C30.0411522,6.47818615 27.3956965,9.2596186 29.6502889,12.4764007 C31.1533505,14.6209221 30.6162512,14.2349617 28.0389909,11.3185193 Z" id="Path-4" fill="#FFFFFF" transform="translate(29.650289, 6.919736) scale(-1, 1) translate(-29.650289, -6.919736) "></path>
                        <path d="M23.6758024,11.3943566 C22.2136397,10.4706727 22.3873893,8.91044001 24.1970513,6.71365869 C26.0067133,4.51687736 26.0067133,2.83454668 24.1970513,1.66666667 C27.1324291,3.31212209 28.0661913,4.65143103 26.9983379,5.68459348 C25.3965578,7.23433716 23.1229236,9.62483645 25.0606307,12.3894966 C26.3524355,14.2326033 25.890826,13.90089 23.6758024,11.3943566 Z" id="Path-4" fill="#FFFFFF" transform="translate(25.060631, 7.613827) scale(-1, 1) translate(-25.060631, -7.613827) "></path>
                        <path d="M55.5235324,48.3742742 C55.5235324,34.0843071 44.0350172,22.5 29.8632155,22.5 C15.6914138,22.5 4.20289855,34.0843071 4.20289855,48.3742742" id="Oval-7" stroke="#5F5F5F" fill="#FFFFFF"></path>
                        <g id="Rectangle-9">
                            <use fill="#FFFFFF" fill-rule="evenodd" xlink:href="#path-1"></use>
                            <path stroke="#5F5F5F" stroke-width="1" d="M1.1716112,48 C0.800690577,48 0.5,48.3006906 0.5,48.6716112 C0.5,49.0425318 0.800690577,49.3432224 1.1716112,49.3432224 L56.5909,49.3432224 C56.9618206,49.3432224 57.2625112,49.0425318 57.2625112,48.6716112 C57.2625112,48.3006906 56.9618206,48 56.5909,48 L1.1716112,48 Z"></path>
                        </g>
                        <ellipse id="Oval-8" stroke="#5F5F5F" cx="28.1221988" cy="18.7623613" rx="2.90480754" ry="2.929028"></ellipse>
                        <path d="M9.65677439,40.7029481 C11.6462956,34.6242627 15.1103831,30.6159555 20.0490369,28.6780264" id="Path-9" stroke="#5F5F5F" stroke-linecap="round" transform="translate(14.852906, 34.690487) rotate(4.000000) translate(-14.852906, -34.690487) "></path>
                    </g>
                </g>
            </g>
        </g>
    </g>
</svg>