<?xml version="1.0" encoding="UTF-8" standalone="no"?>
<svg width="46px" height="46px" viewBox="0 0 46 46" version="1.1" xmlns="http://www.w3.org/2000/svg" xmlns:xlink="http://www.w3.org/1999/xlink">
    <!-- Generator: Sketch 46.2 (44496) - http://www.bohemiancoding.com/sketch -->
    <title>c2</title>
    <desc>Created with Sketch.</desc>
    <defs></defs>
    <g id="Symbols" stroke="none" stroke-width="1" fill="none" fill-rule="evenodd">
        <g id="c2">
            <g id="Group-20" transform="translate(0.000000, 7.000000)">
                <g id="c2">
                    <g id="Group-4" transform="translate(0.920000, 0.360000)">
                        <path d="M3.99529527,23.9434952 L39.3267635,23.9434952 C40.2991893,23.9434952 40.9474731,23.2952596 40.9474731,22.3229062 C40.9474731,12.275254 33.1680672,3.84819096 23.281739,3.03789644 L23.281739,2.17112749 C23.281739,1.19877406 22.6334551,0.550538442 21.6610294,0.550538442 C20.6886037,0.550538442 20.0403198,1.19877406 20.0403198,2.17112749 L20.0403198,3.19995534 C10.1539916,4.01024987 2.37458572,12.275254 2.37458572,22.4849651 C2.37458572,23.2952596 3.02286954,23.9434952 3.99529527,23.9434952 Z" id="Shape" fill="#FFC001" fill-rule="nonzero"></path>
                        <path d="M1.62070955,27.5358082 L40.6798098,27.5358082 C41.6522355,27.5358082 42.3005193,26.8875726 42.3005193,25.9152191 C42.3005193,24.9428657 41.6522355,24.2946301 40.6798098,24.2946301 L1.62070955,24.2946301 C0.648283821,24.2946301 0,24.9428657 0,25.9152191 C0,26.8875726 0.810354777,27.5358082 1.62070955,27.5358082 Z" id="Shape" fill="#FFC001" fill-rule="nonzero"></path>
                        <path d="M9.34031795,16.1164482 C10.7910097,11.7210547 13.3169053,8.82271624 16.9180049,7.42143281" id="Path-9" stroke="#FFFFFF" stroke-linecap="round" transform="translate(13.129161, 11.768941) rotate(9.000000) translate(-13.129161, -11.768941) "></path>
                        <ellipse id="Oval-13" stroke="#5F5F5F" fill="#FFFFFF" transform="translate(12.011011, 20.197060) rotate(-2.000000) translate(-12.011011, -20.197060) " cx="12.0110105" cy="20.1970601" rx="4.20176199" ry="4.28741047"></ellipse>
                        <path d="M26.0891152,25.8014229 C27.5192097,26.0197287 26.8606428,27.6432023 25.2512979,28.8652548 C23.2919349,30.3530926 21.0406934,31.2375011 18.4975734,31.5184801 L14.4917037,31.0674277 L14.4917037,35.3347963 L4.52249021,35.3347963 C5.74474455,29.2485877 7.3722663,25.9636915 9.40505547,25.4801077 C12.4542392,24.754732 13.0411769,25.927133 14.4917037,26.633498 C15.0330004,26.8970939 16.4771104,28.1809347 18.4975734,28.3355823 C19.5569484,28.4166676 21.4831291,27.8493061 24.2761156,26.633498 L26.0891152,25.8014229 Z" id="Path-10" stroke="#5F5F5F" fill="#FFFFFF" transform="translate(15.699783, 30.293266) rotate(-2.000000) translate(-15.699783, -30.293266) "></path>
                        <ellipse id="Oval-13" stroke="#5F5F5F" fill="#FFFFFF" transform="translate(35.005697, 19.394128) rotate(-2.000000) translate(-35.005697, -19.394128) " cx="35.0056968" cy="19.3941277" rx="4.20176199" ry="4.28741047"></ellipse>
                        <path d="M42.3831518,34.6466312 C41.7698688,29.2348048 40.2126447,25.3107838 38.1798556,24.8272 C35.1306718,24.1018243 32.5512608,26.2174001 30.6902815,27.8357381 C29.4496286,28.9146301 26.7083441,29.7664204 22.466428,30.3911089 C21.4941807,31.3233681 21.4941807,32.0540057 22.466428,32.5830218 C23.4386753,33.1120378 26.4071677,32.8475298 31.3719054,31.7894977 L34.2447068,30.3911089 L34.2447068,34.6466312 L42.3831518,34.6466312 Z" id="Path-10" stroke="#5F5F5F" fill="#FFFFFF" transform="translate(32.060197, 29.663527) rotate(-2.000000) translate(-32.060197, -29.663527) "></path>
                    </g>
                </g>
            </g>
        </g>
    </g>
</svg>