<?xml version="1.0" encoding="UTF-8" standalone="no"?>
<svg width="50px" height="50px" viewBox="0 0 50 50" version="1.1" xmlns="http://www.w3.org/2000/svg" xmlns:xlink="http://www.w3.org/1999/xlink">
    <!-- Generator: Sketch 45.2 (43514) - http://www.bohemiancoding.com/sketch -->
    <title>c2</title>
    <desc>Created with Sketch.</desc>
    <defs></defs>
    <g id="Symbols" stroke="none" stroke-width="1" fill="none" fill-rule="evenodd">
        <g id="c2">
            <g id="Group-20">
                <g id="c2">
                    <rect id="Rectangle-28" fill="#FFFFFF" x="0" y="0" width="50" height="50"></rect>
                    <g id="Group-4" transform="translate(1.000000, 8.000000)">
                        <path d="M4.34271225,26.0255383 L42.7464821,26.0255383 C43.8034666,26.0255383 44.5081229,25.3209343 44.5081229,24.2640284 C44.5081229,13.3426674 36.052247,4.18281626 25.306238,3.30206134 L25.306238,2.35992119 C25.306238,1.30301529 24.6015817,0.598411349 23.5445972,0.598411349 C22.4876127,0.598411349 21.7829564,1.30301529 21.7829564,2.35992119 L21.7829564,3.47821233 C11.0369474,4.35896725 2.58107143,13.3426674 2.58107143,24.4401794 C2.58107143,25.3209343 3.28572776,26.0255383 4.34271225,26.0255383 Z" id="Shape" fill="#FFC001" fill-rule="nonzero"></path>
                        <path d="M1.76164082,29.9302263 L44.2171846,29.9302263 C45.274169,29.9302263 45.9788254,29.2256224 45.9788254,28.1687164 C45.9788254,27.1118105 45.274169,26.4072066 44.2171846,26.4072066 L1.76164082,26.4072066 C0.704656328,26.4072066 0,27.1118105 0,28.1687164 C0,29.2256224 0.880820409,29.9302263 1.76164082,29.9302263 Z" id="Shape" fill="#FFC001" fill-rule="nonzero"></path>
                        <path d="M10.1525195,17.5178785 C11.7293583,12.7402769 14.4748971,9.58990896 18.3891358,8.06677479" id="Path-9" stroke="#FFFFFF" stroke-linecap="round" transform="translate(14.270828, 12.792327) rotate(9.000000) translate(-14.270828, -12.792327) "></path>
                        <ellipse id="Oval-13" stroke="#5F5F5F" fill="#FFFFFF" transform="translate(13.055446, 21.953326) rotate(-2.000000) translate(-13.055446, -21.953326) " cx="13.0554462" cy="21.9533262" rx="4.56713259" ry="4.66022877"></ellipse>
                        <path d="M28.3577339,28.0450249 C29.9121844,28.2823138 29.1963509,30.046959 27.4470629,31.3752769 C25.3173206,32.992492 22.870319,33.9538055 20.1060581,34.2592175 L15.7518519,33.7689432 L15.7518519,38.4073873 L4.91575023,38.4073873 C6.24428755,31.7919432 8.01333293,28.2214038 10.2228864,27.6957693 C13.5372165,26.9073174 14.1751922,28.1816663 15.7518519,28.9494543 C16.3402178,29.2359716 17.9099026,30.6314508 20.1060581,30.799546 C21.2575526,30.8876822 23.3512273,30.2709849 26.3870821,28.9494543 L28.3577339,28.0450249 Z" id="Path-10" stroke="#5F5F5F" fill="#FFFFFF" transform="translate(17.064981, 32.927463) rotate(-2.000000) translate(-17.064981, -32.927463) "></path>
                        <ellipse id="Oval-13" stroke="#5F5F5F" fill="#FFFFFF" transform="translate(38.049670, 21.080574) rotate(-2.000000) translate(-38.049670, -21.080574) " cx="38.0496704" cy="21.0805736" rx="4.56713259" ry="4.66022877"></ellipse>
                        <path d="M46.0686433,37.6593817 C45.4020313,31.7769617 43.7093965,27.5117215 41.499843,26.986087 C38.1855128,26.1976351 35.3818053,28.497174 33.3590016,30.2562371 C32.0104658,31.4289458 29.0308088,32.3548047 24.4200304,33.033814 C23.3632399,34.0471392 23.3632399,34.8413106 24.4200304,35.416328 C25.4768209,35.9913454 28.7034432,35.7038367 34.0998971,34.5538018 L37.2225074,33.033814 L37.2225074,37.6593817 L46.0686433,37.6593817 Z" id="Path-10" stroke="#5F5F5F" fill="#FFFFFF" transform="translate(34.848040, 32.242964) rotate(-2.000000) translate(-34.848040, -32.242964) "></path>
                    </g>
                </g>
            </g>
        </g>
    </g>
</svg>