<?xml version="1.0" encoding="UTF-8" standalone="no"?>
<svg width="22px" height="19px" viewBox="0 0 22 19" version="1.1" xmlns="http://www.w3.org/2000/svg" xmlns:xlink="http://www.w3.org/1999/xlink">
    <!-- Generator: Sketch 45.2 (43514) - http://www.bohemiancoding.com/sketch -->
    <title>memories</title>
    <desc>Created with Sketch.</desc>
    <defs></defs>
    <g id="Symbols" stroke="none" stroke-width="1" fill="none" fill-rule="evenodd">
        <g id="memories" stroke-width="1.5" stroke="#FFFFFF">
            <g id="Group-6">
                <path d="M14.0016918,0.75 L7.85141063,0.75 L6.58466977,3.13604674 L1,3.13604674 C0.861928813,3.13604674 0.75,3.24797555 0.75,3.38604674 L0.75,17.7706144 C0.75,17.9086856 0.861928813,18.0206144 1,18.0206144 L20.8964784,18.0206144 C21.0345496,18.0206144 21.1464784,17.9086856 21.1464784,17.7706144 L21.1464784,3.38604674 C21.1464784,3.24797555 21.0345496,3.13604674 20.8964784,3.13604674 L15.2684327,3.13604674 L14.0016918,0.75 Z" id="Combined-Shape"></path>
                <path d="M10.9828087,6.65974266 C8.34200624,4.88476687 5.09254721,6.99053237 6.23552264,10.1102986 C7.37849808,13.2300648 10.2709825,14.4305301 10.9828087,14.8575846 C13.6719335,13.7883942 15.3276229,12.2552823 15.9498769,10.2582488 C16.6485158,7.77288155 15.4502163,6.1487856 13.3670723,6.00824685 C12.5566869,5.95357442 11.7619324,6.17073969 10.9828087,6.65974266 Z" id="Oval-18"></path>
            </g>
        </g>
    </g>
</svg>