<?xml version="1.0" encoding="UTF-8" standalone="no"?>
<svg width="50px" height="42px" viewBox="0 0 50 42" version="1.1" xmlns="http://www.w3.org/2000/svg" xmlns:xlink="http://www.w3.org/1999/xlink">
    <!-- Generator: Sketch 46.2 (44496) - http://www.bohemiancoding.com/sketch -->
    <title>Artboard 3</title>
    <desc>Created with Sketch.</desc>
    <defs></defs>
    <g id="Page-1" stroke="none" stroke-width="1" fill="none" fill-rule="evenodd">
        <g id="Artboard-3">
            <g id="Group-18" transform="translate(9.000000, 13.000000)" stroke="#000" stroke-width="1.5">
                <path d="M1.13757324,20.0909424 L15.125,13.2916667" id="Path-20" stroke-linecap="round" stroke-linejoin="round"></path>
                <path d="M0.75,7.63052554 L0.75,20.0408256 C0.75,20.1788968 0.861928813,20.2908256 1,20.2908256 L24.6666667,20.2908256 C24.8047379,20.2908256 24.9166667,20.1788968 24.9166667,20.0408256 L24.9166667,7.34840327 L14.3025154,13.8296771 C13.7755914,14.1514305 13.1181151,14.1717251 12.5723497,13.8830829 L0.75,7.63052554 Z" id="Rectangle-21"></path>
                <path d="M2.75388815,8.26749668 L22.9905282,8.26749668 L22.9905282,1.00194408 C22.9905282,0.862799205 22.8777289,0.75 22.7385841,0.75 L3.00583223,0.75 C2.86668736,0.75 2.75388815,0.862799205 2.75388815,1.00194408 L2.75388815,8.26749668 Z" id="Rectangle-8"></path>
            </g>
           
        </g>
    </g>
</svg>