<?xml version="1.0" encoding="UTF-8" standalone="no"?>
<svg width="50px" height="50px" viewBox="0 0 50 50" version="1.1" xmlns="http://www.w3.org/2000/svg" xmlns:xlink="http://www.w3.org/1999/xlink">
    <!-- Generator: Sketch 45.2 (43514) - http://www.bohemiancoding.com/sketch -->
    <title>c5</title>
    <desc>Created with Sketch.</desc>
    <defs>
        <polygon id="path-1" points="16.714195 11.3073879 38.6705616 11.3073879 33.9656259 38.4998942 21.4191307 38.4998942"></polygon>
        <rect id="path-2" x="0.0532923361" y="25.6521196" width="31.5480704" height="6.05677917" rx="3.02838958"></rect>
    </defs>
    <g id="Symbols" stroke="none" stroke-width="1" fill="none" fill-rule="evenodd">
        <g id="c5">
            <g id="Group-11">
                <g id="c5">
                    <rect id="Rectangle-28" fill="#FFFFFF" x="0" y="0" width="49.0196078" height="50"></rect>
                    <g id="Group-8" transform="translate(0.980392, 3.000000)">
                        <path d="M2,2.09643229e-14 L22.8412451,2.09643229e-14 L22.8412451,2.04281037e-14 C23.9458146,2.2187303e-14 24.8412451,0.8954305 24.8412451,2 L24.8412451,38.7188706 L24.8412451,38.7188706 C24.8412451,39.8234401 23.9458146,40.7188706 22.8412451,40.7188706 L2,40.7188706 C0.8954305,40.7188706 -8.67738547e-17,39.8234401 -2.22044605e-16,38.7188706 L0,2 L-2.22044605e-16,2 C-3.57315355e-16,0.8954305 0.8954305,2.15191905e-14 2,2.13162821e-14 L2,2.09643229e-14 Z M4.34342215,5.65098041 L4.34342215,5.65098041 C3.23885265,5.65098041 2.34342215,6.54641091 2.34342215,7.65098041 L2.34342215,33.0678902 C2.34342215,34.1724597 3.23885265,35.0678902 4.34342215,35.0678902 L20.497823,35.0678902 C21.6023925,35.0678902 22.497823,34.1724597 22.497823,33.0678902 L22.497823,33.0678902 L22.497823,7.65098041 C22.497823,6.54641091 21.6023925,5.65098041 20.497823,5.65098041 L4.34342215,5.65098041 Z M9.77673706,1.80972758 C9.27699459,1.80972758 8.87187327,2.2148489 8.87187327,2.71459137 L8.87187327,2.71459137 C8.87187327,3.21433385 9.27699459,3.61945516 9.77673706,3.61945516 L9.77673706,3.61945516 L15.0645081,3.61945516 C15.5642506,3.61945516 15.9693719,3.21433385 15.9693719,2.71459137 L15.9693719,2.71459137 C15.9693719,2.2148489 15.5642506,1.80972758 15.0645081,1.80972758 L15.0645081,1.80972758 L9.77673706,1.80972758 Z" id="Combined-Shape" fill="#FFC001"></path>
                        <path d="M8.27635131,8.81628697 L4.17856822,15.1100986" id="Line-2" stroke="#FFC001" stroke-linecap="square"></path>
                        <path d="M11.31531,8.81628697 L4.9383079,18.9844829" id="Line-2" stroke="#FFC001" stroke-linecap="square"></path>
                        <g id="Group-7" transform="translate(9.187665, 5.622433)">
                            <g id="Rectangle-29">
                                <use fill="#FFFFFF" fill-rule="evenodd" xlink:href="#path-1"></use>
                                <path stroke="#5F5F5F" stroke-width="1" d="M17.3081357,11.8073879 L21.8400481,37.9998942 L33.5447084,37.9998942 L38.0766209,11.8073879 L17.3081357,11.8073879 Z"></path>
                            </g>
                            <ellipse id="Oval-20" stroke="#5F5F5F" fill="#FFFFFF" cx="27.5858061" cy="20.8891937" rx="5.11605229" ry="5.21798534"></ellipse>
                            <polyline id="Path-18" stroke="#5F5F5F" points="20.0566159 11.3806384 15.4320593 0.365670051 10.9261612 6.69196771"></polyline>
                            <path d="M29.1270043,28.6805092 C29.1270043,23.2447757 23.8558114,18.8382431 15.8273276,18.8382431 C7.79884369,18.8382431 2.5276508,23.2447757 2.5276508,28.6805092 C2.5276508,29.14703 3.80746163,28.7294985 6.5140501,28.6805092 C7.97549676,28.654057 11.0799226,28.654057 15.8273276,28.6805092 L22.9459409,28.6805092 C27.0666498,29.1259289 29.1270043,29.1259289 29.1270043,28.6805092 Z" id="Oval-19" stroke="#5F5F5F" fill="#FFFFFF"></path>
                            <path d="M2.5276508,30.9948896 C2.5276508,34.9810941 7.79884369,38.2125514 15.8273276,38.2125514 C23.8558114,38.2125514 29.1270043,34.9810941 29.1270043,30.9948896 C29.1270043,30.6527743 2.5276508,30.5049279 2.5276508,30.9948896 Z" id="Oval-19" stroke="#5F5F5F" fill="#FFFFFF"></path>
                            <g id="Rectangle-27">
                                <use fill="#FFFFFF" fill-rule="evenodd" xlink:href="#path-2"></use>
                                <rect stroke="#5F5F5F" stroke-width="1" x="0.553292336" y="26.1521196" width="30.5480704" height="5.05677917" rx="2.52838958"></rect>
                            </g>
                            <path d="M2.37224828,29.4761507 C2.87112712,28.0405012 3.44732965,27.489742 4.10085589,27.8238731 C5.08114525,28.3250699 5.67134256,30.1895276 6.68697127,29.4761507 C7.70259997,28.7627739 8.34006745,27.1172414 9.17733816,27.6672675 C10.0146089,28.2172935 10.4738694,30.5162293 11.8492345,29.4761507 C13.2245997,28.4360722 13.3593121,26.6846928 14.4959101,27.6672675 C15.6325081,28.6498421 15.9707993,31.2769691 17.9851421,29.7782178 C19.999485,28.2794665 20.4972563,27.218126 21.5649879,27.8238731 C22.6327195,28.4296203 23.0246238,30.4100659 24.2133247,29.7782178 C25.4020256,29.1463697 25.1834955,27.0972991 26.3353468,27.8238731 C27.4871981,28.5504471 28.6204737,30.5911595 29.2342305,29.7782178" id="Path-16" stroke="#5F5F5F"></path>
                            <path d="" id="Path-17" stroke="#979797"></path>
                        </g>
                        <path d="" id="Path-22" stroke="#979797"></path>
                    </g>
                </g>
            </g>
        </g>
    </g>
</svg>