<?xml version="1.0" encoding="UTF-8" standalone="no"?>
<svg width="46px" height="46px" viewBox="0 0 46 46" version="1.1" xmlns="http://www.w3.org/2000/svg" xmlns:xlink="http://www.w3.org/1999/xlink">
    <!-- Generator: Sketch 46.2 (44496) - http://www.bohemiancoding.com/sketch -->
    <title>c5</title>
    <desc>Created with Sketch.</desc>
    <defs>
        <polygon id="path-1" points="15.3770594 10.4027968 35.5769166 10.4027968 31.2483758 35.4199027 19.7056002 35.4199027"></polygon>
        <rect id="path-2" x="0.0490289492" y="23.5999501" width="29.0242248" height="5.57223683" rx="2.78611842"></rect>
    </defs>
    <g id="Symbols" stroke="none" stroke-width="1" fill="none" fill-rule="evenodd">
        <g id="c5">
            <g id="Group-11" transform="translate(0.000000, 2.000000)">
                <g id="c5">
                    <g id="Group-8" transform="translate(0.901961, 0.760000)">
                        <path d="M2,1.9997716e-14 L20.8539455,1.9997716e-14 L20.8539455,1.99840144e-14 C21.958515,1.78189982e-14 22.8539455,0.8954305 22.8539455,2 L22.8539455,35.461361 L22.8539455,35.461361 C22.8539455,36.5659304 21.958515,37.461361 20.8539455,37.461361 L2,37.461361 C0.8954305,37.461361 1.3527075e-16,36.5659304 0,35.461361 L0,2 L0,2 C-1.3527075e-16,0.8954305 0.8954305,2.15191905e-14 2,2.13162821e-14 L2,1.9997716e-14 Z M4.15594838,5.19890198 L4.15594838,5.19890198 C3.05137888,5.19890198 2.15594838,6.09433248 2.15594838,7.19890198 L2.15594838,30.262459 C2.15594838,31.3670285 3.05137888,32.262459 4.15594838,32.262459 L18.6979972,32.262459 C19.8025667,32.262459 20.6979972,31.3670285 20.6979972,30.262459 L20.6979972,7.19890198 C20.6979972,6.09433248 19.8025667,5.19890198 18.6979972,5.19890198 L4.15594838,5.19890198 Z M8.99459809,1.66494938 L8.99459809,1.66494938 C8.53483502,1.66494938 8.16212341,2.03766099 8.16212341,2.49742406 L8.16212341,2.49742406 L8.16212341,2.49742406 C8.16212341,2.95718714 8.53483502,3.32989875 8.99459809,3.32989875 L13.8593474,3.32989875 C14.3191105,3.32989875 14.6918221,2.95718714 14.6918221,2.49742406 L14.6918221,2.49742406 C14.6918221,2.03766099 14.3191105,1.66494938 13.8593474,1.66494938 L13.8593474,1.66494938 L8.99459809,1.66494938 Z" id="Combined-Shape" fill="#FFC001"></path>
                        <path d="M7.6142432,8.11098401 L3.84428277,13.9012908" id="Line-2" stroke="#FFC001" stroke-linecap="square"></path>
                        <path d="M10.4100852,8.11098401 L4.54324327,17.4657243" id="Line-2" stroke="#FFC001" stroke-linecap="square"></path>
                        <g id="Group-7" transform="translate(7.452652, 5.172638)">
                            <g id="Rectangle-29">
                                <use fill="#FFFFFF" fill-rule="evenodd" xlink:href="#path-1"></use>
                                <path stroke="#5F5F5F" stroke-width="1" d="M15.9710001,10.9027968 L20.1265177,34.9199027 L30.8274583,34.9199027 L34.9829759,10.9027968 L15.9710001,10.9027968 Z"></path>
                            </g>
                            <ellipse id="Oval-20" stroke="#5F5F5F" fill="#FFFFFF" cx="25.3789416" cy="19.2180582" rx="4.7067681" ry="4.80054652"></ellipse>
                            <polyline id="Path-18" stroke="#5F5F5F" points="18.4520866 10.4701873 14.1974946 0.336416447 10.0520683 6.15661029"></polyline>
                            <path d="M26.796844,26.3860685 C26.796844,21.3851937 21.9473465,17.3311836 14.5611414,17.3311836 C7.17493619,17.3311836 2.32543874,21.3851937 2.32543874,26.3860685 C2.32543874,26.8152676 3.5028647,26.4311387 5.99292609,26.3860685 C7.33745702,26.3617324 10.1935288,26.3617324 14.5611414,26.3860685 L21.1102656,26.3860685 C24.9013178,26.7958546 26.796844,26.7958546 26.796844,26.3860685 Z" id="Oval-19" stroke="#5F5F5F" fill="#FFFFFF"></path>
                            <path d="M2.32543874,28.5152984 C2.32543874,32.1826066 7.17493619,35.1555473 14.5611414,35.1555473 C21.9473465,35.1555473 26.796844,32.1826066 26.796844,28.5152984 C26.796844,28.2005524 2.32543874,28.0645337 2.32543874,28.5152984 Z" id="Oval-19" stroke="#5F5F5F" fill="#FFFFFF"></path>
                            <g id="Rectangle-27">
                                <use fill="#FFFFFF" fill-rule="evenodd" xlink:href="#path-2"></use>
                                <rect stroke="#5F5F5F" stroke-width="1" x="0.549028949" y="24.0999501" width="28.0242248" height="4.57223683" rx="2.28611842"></rect>
                            </g>
                            <path d="M2.18246842,27.1180587 C2.64143695,25.7972611 3.17154328,25.2905626 3.77278742,25.5979633 C4.67465363,26.0590643 5.21763516,27.7743654 6.15201357,27.1180587 C7.08639197,26.461752 7.67286205,24.9478621 8.44315111,25.4538861 C9.21344016,25.95991 9.63595982,28.0749309 10.9012958,27.1180587 C12.1666317,26.1611864 12.2905671,24.5499174 13.3362373,25.4538861 C14.3819074,26.3578547 14.6931353,28.7748116 16.5463308,27.3959604 C18.3995262,26.0171092 18.8574758,25.0406759 19.8397889,25.5979633 C20.8221019,26.1552506 21.1826539,27.9772606 22.2762587,27.3959604 C23.3698635,26.8146602 23.1688159,24.9295152 24.2285191,25.5979633 C25.2882223,26.2664113 26.3308358,28.1438668 26.8954921,27.3959604" id="Path-16" stroke="#5F5F5F"></path>
                            <path d="" id="Path-17" stroke="#979797"></path>
                        </g>
                        <path d="" id="Path-22" stroke="#979797"></path>
                    </g>
                </g>
            </g>
        </g>
    </g>
</svg>