<?xml version="1.0" encoding="UTF-8"?>
<svg width="100px" height="86px" viewBox="0 0 100 86" version="1.1" xmlns="http://www.w3.org/2000/svg" xmlns:xlink="http://www.w3.org/1999/xlink">
    <!-- Generator: Sketch 48.2 (47327) - http://www.bohemiancoding.com/sketch -->
    <title>It's Party time</title>
    <desc>Created with Sketch.</desc>
    <defs>
        <path d="M11,26 L31,26 C32.6568542,26 34,27.3431458 34,29 L34,41 L8,41 L8,29 C8,27.3431458 9.34314575,26 11,26 Z" id="path-1"></path>
        <path d="M6,38 L36,38 C38.209139,38 40,39.790861 40,42 L40,57 L2,57 L2,42 C2,39.790861 3.790861,38 6,38 Z" id="path-2"></path>
        <path d="M0.5,57 L41.5,57 C41.7761424,57 42,57.2238576 42,57.5 L42,57.5 C42,57.7761424 41.7761424,58 41.5,58 L0.5,58 C0.223857625,58 3.38176876e-17,57.7761424 0,57.5 L0,57.5 C-1.56449537e-16,57.2238576 0.223857625,57 0.5,57 Z" id="path-3"></path>
        <rect id="path-4" x="18" y="19" width="6" height="7.5"></rect>
    </defs>
    <g id="Page-1" stroke="none" stroke-width="1" fill="none" fill-rule="evenodd">
        <g id="It's-Party-time">
            <g transform="translate(0.000000, -2.000000)">
                <path d="M40,88 C17.90861,88 0,70.09139 0,48 C0,25.90861 17.90861,8 40,8 L60,8 C82.09139,8 100,25.90861 100,48 C100,70.09139 82.09139,88 60,88 L40,88 Z" id="Path-13" fill-opacity="0.140000001" fill="#FFFFFF" fill-rule="nonzero"></path>
                <g id="Group-21" transform="translate(16.000000, 0.000000)">
                    <path d="M20.6752208,3.98627852 L37.9490892,41.6032336 C38.0740374,41.8753305 37.979256,42.1978971 37.7269743,42.3591506 C33.5002767,45.060772 27.9897656,46.4115827 21.195441,46.4115827 C14.5244469,46.4115827 9.24931434,45.8150084 5.37004332,44.6218598 L5.37005189,44.6218319 C5.05333914,44.5244205 4.8755603,44.1887065 4.97297174,43.8719937 C4.97748177,43.8573303 4.98255255,43.8428453 4.9881729,43.8285706 L20.6752208,3.98627852 Z" id="Triangle" fill="#FFC001" transform="translate(21.475101, 25.198931) rotate(-15.000000) translate(-21.475101, -25.198931) "></path>
                    <g id="Group-10" transform="translate(18.000000, 2.000000)">
                        <path d="M21,18 C22.1045695,18 23,17.1045695 23,16 C23,15.2636203 22.3333333,13.930287 21,12 C19.6666667,13.930287 19,15.2636203 19,16 C19,17.1045695 19.8954305,18 21,18 Z" id="Oval-5" stroke="#5F5F5F" fill="#FFFFFF" stroke-linecap="square"></path>
                        <g id="Rectangle">
                            <use fill="#FFFFFF" fill-rule="evenodd" xlink:href="#path-1"></use>
                            <path stroke="#5F5F5F" stroke-width="1" d="M8.5,40.5 L33.5,40.5 L33.5,29 C33.5,27.6192881 32.3807119,26.5 31,26.5 L11,26.5 C9.61928813,26.5 8.5,27.6192881 8.5,29 L8.5,40.5 Z"></path>
                        </g>
                        <g id="Group-20" transform="translate(35.000000, 0.000000)" stroke="#FFFFFF">
                            <path d="M10.1011086,6.73256141 L6.59852744,6.73256141 L6.59852744,18.2432381 L6.25204919,18.3550217 C3.12900689,19.3626022 0.970301041,22.2798466 0.970301041,25.6132838 C0.970301041,25.8976146 0.985842496,26.1799327 1.01969321,26.5142566 L1.01969321,55.5655442 C1.01969321,56.3939713 1.69126608,57.0655442 2.51969321,57.0655442 L14.7426908,57.0655442 C15.5711179,57.0655442 16.2426908,56.3939713 16.2426908,55.5655442 L16.2426908,25.3050694 C16.2426908,25.0072905 16.2056152,24.7148347 16.1238154,24.3876913 C15.6405469,21.3953358 13.4067931,18.9652832 10.4781201,18.2220622 L10.1011086,18.1263865 L10.1011086,6.73256141 Z M10.1011086,4.60699982 L10.1011086,1.60469204 C10.1011086,1.32854967 9.87725094,1.10469204 9.60110857,1.10469204 L7.09852744,1.10469204 C6.82238507,1.10469204 6.59852744,1.32854967 6.59852744,1.60469204 L6.59852744,4.60699982 L10.1011086,4.60699982 Z" id="Combined-Shape"></path>
                            <polyline id="Rectangle-20" points="1.67197488 31.8459502 11.8027824 31.8459502 11.8027824 51.2541933 1.67197488 51.2541933"></polyline>
                        </g>
                        <g id="Rectangle">
                            <use fill="#FFFFFF" fill-rule="evenodd" xlink:href="#path-2"></use>
                            <path stroke="#5F5F5F" stroke-width="1" d="M2.5,56.5 L39.5,56.5 L39.5,42 C39.5,40.0670034 37.9329966,38.5 36,38.5 L6,38.5 C4.06700338,38.5 2.5,40.0670034 2.5,42 L2.5,56.5 Z"></path>
                        </g>
                        <path d="M5,47 L5,45 C5,42 6,41 9,41 L13,41" id="Rectangle" stroke="#5F5F5F" stroke-linecap="round"></path>
                        <g id="Rectangle-9">
                            <use fill="#FFFFFF" fill-rule="evenodd" xlink:href="#path-3"></use>
                            <path stroke="#FFFFFF" stroke-width="1" d="M0.5,57.5 L41.5,57.5 L0.5,57.5 Z"></path>
                        </g>
                        <g id="Rectangle-30">
                            <use fill="#FFFFFF" fill-rule="evenodd" xlink:href="#path-4"></use>
                            <rect stroke="#5F5F5F" stroke-width="1" x="18.5" y="19.5" width="5" height="6.5"></rect>
                        </g>
                    </g>
                    <polygon id="Star" fill="#FFFFFF" transform="translate(22.162433, 5.089302) rotate(-20.000000) translate(-22.162433, -5.089302) " points="22.1624328 6.65464438 20.6173478 7.46694362 20.9124328 5.74646622 19.6624328 4.52801736 21.3898903 4.27700309 22.1624328 2.71166104 22.9349753 4.27700309 24.6624328 4.52801736 23.4124328 5.74646622 23.7075177 7.46694362"></polygon>
                    <path d="M6.84793504,3.25231491 C10.847935,3.25231491 12.1812684,4.58564824 10.847935,7.25231491 C8.88544811,11.1772888 7.84793504,13.7523149 10.847935,15.7523149" id="Path-11" stroke="#FFFFFF" stroke-linecap="round" transform="translate(9.097935, 9.502315) rotate(-8.000000) translate(-9.097935, -9.502315) "></path>
                </g>
            </g>
        </g>
    </g>
</svg>