<?xml version="1.0" encoding="UTF-8" standalone="no"?>
<svg width="50px" height="50px" viewBox="0 0 50 50" version="1.1" xmlns="http://www.w3.org/2000/svg" xmlns:xlink="http://www.w3.org/1999/xlink">
    <!-- Generator: Sketch 45.2 (43514) - http://www.bohemiancoding.com/sketch -->
    <title>c3</title>
    <desc>Created with Sketch.</desc>
    <defs></defs>
    <g id="Symbols" stroke="none" stroke-width="1" fill="none" fill-rule="evenodd">
        <g id="c3">
            <g id="Group-19">
                <g id="c3">
                    <rect id="Rectangle-28" fill="#FFFFFF" x="0" y="0" width="50" height="50"></rect>
                    <g id="Group-10" transform="translate(1.000000, 4.000000)">
                        <path d="M12.3267406,5.22918767 L22.7625544,5.22918767 C22.7405163,5.38318754 22.7291133,5.54061862 22.7291133,5.700713 L22.7291133,5.700713 L22.7291133,7.58534253 C22.7291133,9.40744343 24.2062179,10.8845481 26.0283188,10.8845481 C27.8504197,10.8845481 29.3275244,9.40744343 29.3275244,7.58534253 L29.3275244,5.700713 C29.3275244,5.54061862 29.3161214,5.38318754 29.2940833,5.22918767 L31.9833053,5.22918767 L31.9833053,5.22918767 C33.6401595,5.22918767 34.9833053,6.57233342 34.9833053,8.22918767 L34.9833053,35.2187899 C34.9833053,36.8756441 33.6401595,38.2187899 31.9833053,38.2187899 L3.10598975,38.2187899 L3.10598975,38.2187899 C1.4491355,38.2187899 0.105989751,36.8756441 0.105989751,35.2187899 L0.105989751,8.22918767 L0.105989751,8.22918767 C0.105989751,6.57233342 1.4491355,5.22918767 3.10598975,5.22918767 L3.10598975,5.22918767 L5.79521171,5.22918767 C5.77317363,5.38318754 5.76177064,5.54061862 5.76177064,5.700713 L5.76177064,5.700713 L5.76177064,7.58534253 C5.76177064,9.40744343 7.23887527,10.8845481 9.06097616,10.8845481 L9.06097616,10.8845481 C10.8830771,10.8845481 12.3601817,9.40744343 12.3601817,7.58534253 L12.3601817,5.700713 C12.3601817,5.54061862 12.3487787,5.38318754 12.3267406,5.22918767 Z M3.87651035,13.7122282 L3.87651035,34.4485496 L31.0835596,34.4485496 L31.0835596,13.7122282 L3.87651035,13.7122282 Z" id="Combined-Shape" fill="#FFC001"></path>
                        <rect id="Rectangle-15" fill="#FFC001" x="7.64703094" y="0.516387351" width="2.82789045" height="8.48304057" rx="1.41394522"></rect>
                        <rect id="Rectangle-15" fill="#FFC001" x="24.6143736" y="0.516387351" width="2.82789045" height="8.48304057" rx="1.41394522"></rect>
                        <path d="M42.4591979,7.04482141 L40.2673871,7.04482141 L40.2673871,15.1649909 L39.9209089,15.2767744 C37.766725,15.9717742 36.2776236,17.9841247 36.2776236,20.2835188 C36.2776236,20.4993501 36.2905977,20.7134556 36.3190588,21.0154468 C36.3147837,21.0864678 36.312637,21.1578352 36.312637,21.2294915 L36.312637,40.9339869 C36.312637,41.762414 36.9842098,42.4339869 37.812637,42.4339869 L45.3128715,42.4339869 C46.1412987,42.4339869 46.8128715,41.762414 46.8128715,40.9339869 L46.8128715,21.2294915 C46.8128715,21.0806491 46.8036092,20.9330841 46.7852621,20.7873293 L46.782777,20.687101 C46.7929124,20.5533569 46.7980074,20.4187702 46.7980074,20.2835188 C46.7980074,17.8632324 45.1491793,15.772052 42.8362095,15.1850804 L42.4591979,15.0894047 L42.4591979,7.04482141 Z M42.4591979,5.24692804 L42.4591979,3.55535454 C42.4591979,3.27921216 42.2353403,3.05535454 41.9591979,3.05535454 L40.7673871,3.05535454 C40.4912448,3.05535454 40.2673871,3.27921216 40.2673871,3.55535454 L40.2673871,5.24692804 L42.4591979,5.24692804 Z" id="Combined-Shape" stroke="#5F5F5F"></path>
                        <polyline id="Rectangle-20" stroke="#5F5F5F" points="36.6294718 24.7017605 43.8110461 24.7017605 43.8110461 38.4599669 36.6294718 38.4599669"></polyline>
                        <path d="M34.6133403,21.1026189 C33.288328,22.5895012 33.0121963,22.7862744 33.7849452,21.6929386 C34.9440687,20.0529348 33.5839959,18.6348842 32.6258218,17.7155721 C31.9870391,17.1026974 32.5456093,16.3082158 34.3015327,15.3321272 C33.219005,16.0249168 33.219005,17.0228798 34.3015327,18.3260164 C35.3840604,19.6291529 35.4879962,20.5546871 34.6133403,21.1026189 Z" id="Path-4" fill="#5F5F5F"></path>
                        <path d="M31.7425244,21.1433553 C30.6037439,22.4212547 30.3664228,22.5903713 31.0305612,21.6507049 C32.0267686,20.2412053 30.8578554,19.0224632 30.0343537,18.2323614 C29.4853525,17.7056268 29.9654152,17.0228104 31.4745417,16.1839121 C30.5441644,16.7793293 30.5441644,17.6370277 31.4745417,18.7570071 C32.404919,19.8769864 32.4942466,20.6724358 31.7425244,21.1433553 Z" id="Path-4" fill="#5F5F5F"></path>
                        <path d="M23.5763213,34.8366113 C24.0876757,35.1540344 24.6910091,35.3373269 25.3371559,35.3373269 C26.4932313,35.3373269 27.5122532,34.750575 28.1126265,33.8586455 C28.9021725,34.4779554 29.8972224,34.8472302 30.9785274,34.8472302 C32.0215181,34.8472302 32.9842579,34.5036611 33.7597306,33.9235313 C34.3652328,34.7789226 35.3626039,35.3373269 36.490407,35.3373269 C38.3368009,35.3373269 39.8335988,33.8406402 39.8335988,31.9943836 C39.8335988,30.148127 38.3368009,28.6514403 36.490407,28.6514403 C36.1157893,28.6514403 35.7555628,28.7130514 35.4193088,28.8266927 C34.8334554,26.9309139 33.0668542,25.5535454 30.9785274,25.5535454 C28.8748432,25.5535454 27.0976339,26.9512466 26.525013,28.8686009 C26.1559034,28.7282748 25.7555032,28.6514403 25.3371559,28.6514403 C23.833069,28.6514403 22.5609691,29.6446205 22.1409901,31.0108928 C21.6296357,30.6934698 21.0263023,30.5101773 20.3801555,30.5101773 C18.5337616,30.5101773 17.0369636,32.006864 17.0369636,33.8531206 C17.0369636,35.6993771 18.5337616,37.1960638 20.3801555,37.1960638 C21.8842424,37.1960638 23.1563423,36.2028836 23.5763213,34.8366113 Z" id="Combined-Shape" stroke="#5F5F5F" fill="#FFFFFF" stroke-linecap="round" stroke-linejoin="round"></path>
                        <path d="M15.3332673,32.3678241 L40.8647423,32.3678241 C40.8647423,39.4176221 35.1493269,43.3406539 28.0990048,43.3406539 C21.0486826,43.3406539 15.3332673,39.4176221 15.3332673,32.3678241 Z" id="Oval-7" stroke="#5F5F5F" fill="#FFFFFF"></path>
                        <path d="M30.0440146,34.3316544 C30.6734046,36.370156 31.3854545,37.7542797 32.1801643,38.4840253 C33.7433091,39.9193897 35.2208394,40.8016353 37.7455439,41.1751989" id="Path-7" stroke="#5F5F5F" stroke-linecap="round" stroke-linejoin="round" transform="translate(33.894779, 37.753427) scale(-1, 1) rotate(-4.000000) translate(-33.894779, -37.753427) "></path>
                    </g>
                </g>
            </g>
        </g>
    </g>
</svg>