<?xml version="1.0" encoding="UTF-8" standalone="no"?>
<svg width="46px" height="46px" viewBox="0 0 46 46" version="1.1" xmlns="http://www.w3.org/2000/svg" xmlns:xlink="http://www.w3.org/1999/xlink">
    <!-- Generator: Sketch 46.2 (44496) - http://www.bohemiancoding.com/sketch -->
    <title>c3</title>
    <desc>Created with Sketch.</desc>
    <defs></defs>
    <g id="Symbols" stroke="none" stroke-width="1" fill="none" fill-rule="evenodd">
        <g id="c3">
            <g transform="translate(0.000000, 3.000000)" id="Group-10">
                <g transform="translate(0.920000, 0.680000)">
                    <path d="M11.3406014,4.81085266 L20.94155,4.81085266 C20.921275,4.95253254 20.9107843,5.09736913 20.9107843,5.24465596 L20.9107843,5.24465596 L20.9107843,6.97851513 C20.9107843,8.65484795 22.2697205,10.0137842 23.9460533,10.0137842 C25.6223862,10.0137842 26.9813224,8.65484795 26.9813224,6.97851513 L26.9813224,5.24465596 C26.9813224,5.09736913 26.9708317,4.95253254 26.9505566,4.81085266 L29.1846408,4.81085266 L29.1846408,4.81085266 C30.8414951,4.81085266 32.1846408,6.15399841 32.1846408,7.81085266 L32.1846408,32.1612867 C32.1846408,33.818141 30.8414951,35.1612867 29.1846408,35.1612867 L3.09751057,35.1612867 L3.09751057,35.1612867 C1.44065632,35.1612867 0.0975105708,33.818141 0.0975105708,32.1612867 L0.0975105708,7.81085266 L0.0975105708,7.81085266 C0.0975105708,6.15399841 1.44065632,4.81085266 3.09751057,4.81085266 L3.09751057,4.81085266 L5.33159478,4.81085266 C5.31131974,4.95253254 5.30082899,5.09736913 5.30082899,5.24465596 L5.30082899,5.24465596 L5.30082899,6.97851513 C5.30082899,8.65484795 6.65976525,10.0137842 8.33609807,10.0137842 C10.0124309,10.0137842 11.3713672,8.65484795 11.3713672,6.97851513 L11.3713672,6.97851513 L11.3713672,5.24465596 C11.3713672,5.09736913 11.3608764,4.95253254 11.3406014,4.81085266 Z M3.56638952,12.61525 L3.56638952,31.6926657 L28.5968749,31.6926657 L28.5968749,12.61525 L3.56638952,12.61525 Z" id="Combined-Shape" fill="#FFC001"></path>
                    <rect id="Rectangle-15" fill="#FFC001" x="7.03526847" y="0.475076363" width="2.60165921" height="7.80439733" rx="1.30082961"></rect>
                    <rect id="Rectangle-15" fill="#FFC001" x="22.6452237" y="0.475076363" width="2.60165921" height="7.80439733" rx="1.30082961"></rect>
                    <path d="M39.0224621,6.5212357 L37.0859962,6.5212357 L37.0859962,13.9809168 L36.7395179,14.0927003 C34.7740727,14.7268077 33.4154137,16.5628802 33.4154137,18.6608373 C33.4154137,18.89429 33.432047,19.1254955 33.4649466,19.3533262 L33.4672965,19.4774685 C33.4542176,19.6009092 33.447626,19.7255694 33.447626,19.8511322 L33.447626,37.499268 C33.447626,38.3276951 34.1191989,38.999268 34.947626,38.999268 L41.5278418,38.999268 C42.3562689,38.999268 43.0278418,38.3276951 43.0278418,37.499268 L43.0278418,19.8511322 C43.0278418,19.6720883 43.0144393,19.4949093 42.9879526,19.3205346 L42.985267,19.1908985 C43.0044814,19.015831 43.0141668,18.8389797 43.0141668,18.6608373 C43.0141668,16.4525842 41.5097698,14.5445833 39.3994736,14.009045 L39.0224621,13.9133693 L39.0224621,6.5212357 Z M39.0224621,4.7871738 L39.0224621,3.35092617 C39.0224621,3.0747838 38.7986045,2.85092617 38.5224621,2.85092617 L37.5859962,2.85092617 C37.3098538,2.85092617 37.0859962,3.0747838 37.0859962,3.35092617 L37.0859962,4.7871738 L39.0224621,4.7871738 Z" id="Combined-Shape" stroke="#5F5F5F"></path>
                    <polyline id="Rectangle-20" stroke="#5F5F5F" points="33.699114 22.7256197 40.3061624 22.7256197 40.3061624 35.3831695 33.699114 35.3831695"></polyline>
                    <path d="M31.8442731,19.4144094 C30.6252617,20.7823411 30.3712206,20.9633725 31.0821496,19.9575035 C32.1485432,18.4487 30.8972762,17.1440935 30.015756,16.2983264 C29.4280759,15.7344816 29.9419606,15.0035585 31.55741,14.105557 C30.5614846,14.7429234 30.5614846,15.6610494 31.55741,16.8599351 C32.5533355,18.0588207 32.6489565,18.9103121 31.8442731,19.4144094 Z" id="Path-4" fill="#5F5F5F"></path>
                    <path d="M29.2031225,19.4518868 C28.1554444,20.6275544 27.937109,20.7831416 28.5481163,19.9186485 C29.4646271,18.6219089 28.389227,17.5006662 27.6316054,16.7737725 C27.1265243,16.2891767 27.568182,15.6609856 28.9565783,14.8891991 C28.1006312,15.436983 28.1006312,16.2260655 28.9565783,17.2564465 C29.8125255,18.2868275 29.8947069,19.018641 29.2031225,19.4518868 Z" id="Path-4" fill="#5F5F5F"></path>
                    <path d="M21.6902156,32.0496824 C22.1606617,32.3417116 22.7157284,32.5103407 23.3101835,32.5103407 C24.3737728,32.5103407 25.311273,31.970529 25.8636164,31.1499539 C26.5899987,31.7197189 27.5054446,32.0594518 28.5002452,32.0594518 C29.4597967,32.0594518 30.3455173,31.7433682 31.0589521,31.2096488 C31.6160142,31.9966088 32.5335956,32.5103407 33.5711744,32.5103407 C35.2698568,32.5103407 36.6469109,31.133389 36.6469109,29.4348329 C36.6469109,27.7362768 35.2698568,26.3593251 33.5711744,26.3593251 C33.2265262,26.3593251 32.8951178,26.4160073 32.5857641,26.5205573 C32.0467789,24.7764408 30.4215059,23.5092617 28.5002452,23.5092617 C26.5648558,23.5092617 24.9298232,24.7951469 24.4030119,26.5591129 C24.0634311,26.4300128 23.6950629,26.3593251 23.3101835,26.3593251 C21.9264235,26.3593251 20.7560915,27.2730509 20.3697109,28.5300214 C19.8992648,28.2379922 19.3441981,28.0693631 18.749743,28.0693631 C17.0510607,28.0693631 15.6740065,29.4463149 15.6740065,31.1448709 C15.6740065,32.843427 17.0510607,34.2203787 18.749743,34.2203787 C20.133503,34.2203787 21.303835,33.3066529 21.6902156,32.0496824 Z" id="Combined-Shape" stroke="#5F5F5F" fill="#FFFFFF" stroke-linecap="round" stroke-linejoin="round"></path>
                    <path d="M14.1066059,29.7783982 L37.5955629,29.7783982 C37.5955629,36.2642123 32.3373808,39.8734016 25.8510844,39.8734016 C19.364788,39.8734016 14.1066059,36.2642123 14.1066059,29.7783982 Z" id="Oval-7" stroke="#5F5F5F" fill="#FFFFFF"></path>
                    <path d="M27.6404934,31.585122 C28.2195322,33.4605436 28.8746181,34.7339373 29.6057511,35.4053033 C31.0438444,36.7258385 32.4031723,37.5375044 34.7259004,37.881183" id="Path-7" stroke="#5F5F5F" stroke-linecap="round" stroke-linejoin="round" transform="translate(31.183197, 34.733153) scale(-1, 1) rotate(-4.000000) translate(-31.183197, -34.733153) "></path>
                </g>
            </g>
        </g>
    </g>
</svg>