<?xml version="1.0" encoding="UTF-8" standalone="no"?>
<svg width="24px" height="23px" viewBox="0 0 24 23" version="1.1" xmlns="http://www.w3.org/2000/svg" xmlns:xlink="http://www.w3.org/1999/xlink">
    <!-- Generator: Sketch 46.2 (44496) - http://www.bohemiancoding.com/sketch -->
    <title>Artboard 3</title>
    <desc>Created with Sketch.</desc>
    <defs></defs>
    <g id="Page-1" stroke="none" stroke-width="1" fill="none" fill-rule="evenodd">
        <g id="Artboard-3" fill="#5F5F5F">
            <g id="Group-15" transform="translate(-1.000000, -2.000000)">
                <path d="M14.0740013,17.4384226 L14.0740013,22.8078172 L14.0740013,22.8078172 C14.0740013,23.3309237 13.6499397,23.7549853 13.1268333,23.7549853 C12.6037268,23.7549853 12.1796652,23.3309237 12.1796652,22.8078172 L12.1796652,17.4072586 C10.5302064,17.1632652 8.95637669,16.3515911 7.77668294,14.9945087 C5.15241198,11.9756303 5.47230452,7.40095389 8.49118292,4.77668294 C11.5100613,2.15241198 16.0847377,2.47230452 18.7090087,5.49118292 C21.3332797,8.51006132 21.0133871,13.0847377 17.9945087,15.7090087 C16.8480412,16.7056177 15.477193,17.2776128 14.0740013,17.4384226 Z M13.2243177,16.5658416 C16.7266446,16.5658416 19.5658416,13.7266446 19.5658416,10.2243177 C19.5658416,6.72199072 16.7266446,3.88279375 13.2243177,3.88279375 C9.72199072,3.88279375 6.88279375,6.72199072 6.88279375,10.2243177 C6.88279375,13.7266446 9.72199072,16.5658416 13.2243177,16.5658416 Z" id="Combined-Shape" transform="translate(13.242846, 13.377493) rotate(-43.000000) translate(-13.242846, -13.377493) "></path>
            </g>
        </g>
    </g>
</svg>