<?xml version="1.0" encoding="UTF-8"?>
<svg width="100px" height="80px" viewBox="0 0 100 80" version="1.1" xmlns="http://www.w3.org/2000/svg" xmlns:xlink="http://www.w3.org/1999/xlink">
    <!-- Generator: Sketch 48.2 (47327) - http://www.bohemiancoding.com/sketch -->
    <title>Start a Hangout</title>
    <desc>Created with Sketch.</desc>
    <defs>
        <path d="M2.73633813,16.5511496 L29.4311113,16.5511471 C30.5356808,16.5511471 31.4311113,17.4465776 31.4311113,18.5511471 C31.4311113,18.5511479 31.4311113,18.5511488 31.4311113,18.5511496 L31.4311018,21.9290303 C31.4311004,23.0335988 30.5356703,23.9290278 29.4311018,23.9290278 L2.73633813,23.9290303 C1.63176863,23.9290303 0.736338129,23.0335998 0.736338129,21.9290303 L0.736338129,18.5511496 C0.736338129,17.4465801 1.63176863,16.5511496 2.73633813,16.5511496 Z" id="path-1"></path>
    </defs>
    <g id="Page-1" stroke="none" stroke-width="1" fill="none" fill-rule="evenodd">
        <g id="Start-a-Hangout">
            <g id="Group-31">
                <g>
                    <path d="M40,80 C17.90861,80 0,62.09139 0,40 C0,17.90861 17.90861,0 40,0 L60,0 C82.09139,0 100,17.90861 100,40 C100,62.09139 82.09139,80 60,80 L40,80 Z" id="Path-13" fill-opacity="0.140000001" fill="#FFFFFF" fill-rule="nonzero"></path>
                    <g id="Group-33" transform="translate(14.000000, 3.000000)">
                        <g id="Group-19" fill="#FFC001">
                            <ellipse id="Oval" transform="translate(40.341281, 12.964119) rotate(-11.000000) translate(-40.341281, -12.964119) " cx="40.3412809" cy="12.964119" rx="5.46376812" ry="5.01369863"></ellipse>
                            <path d="M54.1825993,1.78685928 C54.1302633,0.788229749 57.047648,-0.866722421 56.836181,4.651908 C56.7555538,12.6671123 53.51814,17.7692055 51.1301283,19.9715347 C49.597451,27.3384196 50.1861395,31.9216327 51.1563559,34.9019952 C53.9297751,43.4215319 38.2738241,39.3962674 38.2738241,35.5771401 C39.6979768,29.6298875 38.3308662,25.5012078 37.6159415,23.0239927 C35.2901527,21.2492851 33.4091693,19.3981923 31.9729913,17.4707145 C30.5368134,15.5432367 28.8905839,12.7922903 27.0343028,9.21787529 C26.9470762,7.55349273 27.5866612,7.01928733 28.9530579,7.61525907 C30.22828,8.17146382 33.2015308,13.5491828 33.8132425,14.370154 C34.890376,15.8157624 36.4668242,17.2352027 39.1159415,18.5239927 C42.0449867,19.0565464 46.373625,19.9703944 49.4490082,16.5548353 C51.3415953,14.4529043 54.5751189,9.27658079 54.1825993,1.78685928 Z" id="Combined-Shape-Copy" transform="translate(41.936800, 20.350856) scale(-1, 1) rotate(3.000000) translate(-41.936800, -20.350856) "></path>
                            <ellipse id="Oval" transform="translate(14.032345, 24.353492) rotate(-11.000000) translate(-14.032345, -24.353492) " cx="14.0323452" cy="24.3534917" rx="5.10706118" ry="4.68637488"></ellipse>
                            <path d="M26.0370878,14.4098456 C25.9847519,13.4112161 28.8759686,11.2569491 28.6645016,16.7755795 C28.5838744,24.7907838 25.3464606,29.892877 22.9584489,32.0952063 C21.4257716,39.4620912 22.0100322,42.6593203 20.169781,45.7598808 C16.7530815,47.441001 9.94977531,48.6125574 9.94977531,44.7934301 C10.6647,39.7999027 9.66639217,34.8058099 8.95146747,32.3285949 C6.79720053,29.4373782 5.35229991,27.3434621 4.61676562,26.0468467 C3.88123132,24.7502313 2.90075483,21.9643943 1.67533615,17.6893356 C1.93843139,16.3403842 2.59546175,16.1390553 3.64642724,17.0853489 C4.74562951,18.0750751 6.39695583,23.0977766 7.00866754,23.9187478 C8.08580101,25.3643561 8.66361971,26.8361324 11.2648655,28.7025516 C12.7889777,29.1233625 15.9157062,31.4629284 21.7465853,28.0787938 C23.6391725,25.9768628 26.4296075,21.8995671 26.0370878,14.4098456 Z" id="Combined-Shape-Copy" transform="translate(15.175450, 30.244027) scale(-1, 1) rotate(3.000000) translate(-15.175450, -30.244027) "></path>
                        </g>
                        <g id="Group-23" transform="translate(15.000000, 29.000000)">
                            <g id="c1">
                                <g id="Group-3">
                                    <g id="Group-2" transform="translate(0.296878, 0.379003)">
                                        <path d="M30.0295952,11.3506694 C30.0295952,4.94726625 23.8268032,0.979510466 16.1752715,0.979510466 C8.52373985,0.979510466 2.32094786,4.94726625 2.32094786,11.3506694 L30.0295952,11.3506694 Z" id="Oval-3" stroke="#5F5F5F" fill="#FFFFFF"></path>
                                        <path d="M2.94578119,15.8614536 C2.78740005,16.2080334 2.37925936,16.3600427 2.03417344,16.200976 C1.68908753,16.0419092 1.5377334,15.6320017 1.69611454,15.2854219 C3.27156975,11.8379095 5.77135127,11.1471859 8.73138765,13.3619265 C11.1051483,15.1380073 13.4582305,15.2145503 15.9212969,13.6123878 C18.1939864,11.9953455 21.1425851,12.3486683 24.5615879,14.4900139 C26.901953,15.4021515 28.7441671,14.7568857 30.2786988,12.4594535 C30.4902229,12.142769 30.9173141,12.058262 31.2326336,12.2707018 C31.5479532,12.4831417 31.6320959,12.9120818 31.4205718,13.2287663 C29.5369613,16.0488238 27.0213298,16.9299651 23.9507682,15.7206656 C20.8395629,13.7846442 18.4587338,13.4993558 16.6925752,14.7552699 C13.7237049,16.6872961 10.7447424,16.590394 7.90992821,14.4693464 C5.66138978,12.7869585 4.16136459,13.2014358 2.94578119,15.8614536 Z" id="Path-6" fill="#FFFFFF" fill-rule="nonzero"></path>
                                        <g id="Rectangle-6">
                                            <use fill="#FFFFFF" fill-rule="evenodd" xlink:href="#path-1"></use>
                                            <path stroke="#5F5F5F" stroke-width="1" d="M2.73633813,17.0511496 C1.907911,17.0511496 1.23633813,17.7227225 1.23633813,18.5511496 L1.23633813,21.9290303 C1.23633813,22.7574575 1.907911,23.4290303 2.73633808,23.4290303 L29.4311018,23.4290278 C30.2595281,23.4290278 30.9311007,22.7574561 30.9311018,21.9290289 L30.9311113,18.5511471 C30.9311113,17.7227199 30.2595384,17.0511471 29.4311114,17.0511471 L2.73633818,17.0511496 Z"></path>
                                        </g>
                                    </g>
                                </g>
                            </g>
                        </g>
                        <polygon id="Path-2-Copy" stroke="#FFFFFF" stroke-linecap="round" points="46 32.5 62 32.5 59 52 49 52"></polygon>
                        <path d="M44.5,30.5 L63.5,30.5" id="Line" stroke="#FFFFFF" stroke-linecap="round"></path>
                        <polyline id="Path-3" stroke="#FFFFFF" stroke-linecap="round" points="60 30.5 63 25 67 25.5"></polyline>
                        <path d="M61,36.5 C57.9135802,40.8333333 53.7469136,43.5 48.5,44.5" id="Path-5" stroke="#FFFFFF" stroke-linecap="round"></path>
                    </g>
                </g>
            </g>
        </g>
    </g>
</svg>