<?xml version="1.0" encoding="UTF-8" standalone="no"?>
<svg width="500" height="200" viewBox="0 0 50 200" version="1.1" xmlns="http://www.w3.org/2000/svg" xmlns:xlink="http://www.w3.org/1999/xlink">

    <defs>
     <g id="Page-1"  fill-rule="evenodd">
        <g id="Artboard">
            <g id="Group-4" transform="translate(13.000000, 19.000000)" fill="#FFFFFF">
                <path d="M1.84782609,3.38768116 C2.86835226,3.38768116 3.69565217,2.6293229 3.69565217,1.69384058 C3.69565217,0.758358259 2.86835226,0 1.84782609,0 C0.827299919,0 -2.22044605e-16,0.758358259 -2.22044605e-16,1.69384058 C-2.22044605e-16,2.6293229 0.827299919,3.38768116 1.84782609,3.38768116 Z" id="Oval-6"></path>
                <ellipse id="Oval-6" cx="8.15217391" cy="1.69384058" rx="1.84782609" ry="1.69384058"></ellipse>
                <ellipse id="Oval-6" cx="14.4565217" cy="1.69384058" rx="1.84782609" ry="1.69384058"></ellipse>
            </g>
            <rect id="Rectangle-11" stroke="#FFFFFF" stroke-width="1.5" x="8.75" y="10.75" width="24.5" height="20.5" rx="10.25"></rect>
        </g>
    </g>

    <g id="Page-2" fill-rule="evenodd">
        <g id="Artboard-3">
            <g id="Group-3" transform="translate(7.000000, 5.000000)">
                <circle id="Oval" fill="#FFFFFF" cx="21.5019531" cy="21.5019531" r="21.4154908"></circle>
                <path d="M14.5220818,11.2388954 C14.2789981,11.8511372 14.1004836,12.5125096 13.9751436,13.1852198 C13.8498036,13.8579299 13.7776381,14.5495365 13.754849,15.241143 C13.7320599,15.9327495 13.7586472,16.6319146 13.8346108,17.3197418 C13.8725927,17.6636554 13.921969,18.0113483 13.9827399,18.3514827 L14.0321163,18.6084731 C14.0397127,18.6500451 14.0511072,18.6991756 14.0625018,18.7445268 L14.0928872,18.8843599 L14.1080799,18.956166 L14.1232727,19.0355307 L14.1460618,19.1564673 C14.1612545,19.2396113 14.1802454,19.3227552 14.1992363,19.4058992 C14.3511636,20.0748301 14.5600636,20.7475403 14.8107436,21.3937955 C15.0652218,22.0400508 15.3652781,22.6636305 15.7223072,23.2494174 C16.0755381,23.8352044 16.4857418,24.3794193 16.9529182,24.8518282 C17.4200945,25.3280163 17.9442436,25.7361775 18.5215673,26.0460777 C19.0988909,26.3559779 19.7217927,26.5713963 20.37508,26.6847744 C20.7017237,26.7414635 21.0359637,26.7716976 21.3702037,26.7830354 C21.5373237,26.7868147 21.7082419,26.7868147 21.87916,26.7792562 C21.96272,26.7754769 22.0538764,26.7716976 22.1412346,26.7641391 C22.2285928,26.7603598 22.315951,26.7528013 22.4033091,26.7452427 C22.7565401,26.7187878 23.1021746,26.6734366 23.4478092,26.6167475 C23.7934437,26.5600585 24.1352801,26.4882523 24.4695201,26.4013291 C25.1417983,26.2237034 25.7912874,25.9818301 26.3914001,25.6643713 C26.9915128,25.3431333 27.5460474,24.9463099 28.0132238,24.4739011 C28.4804001,24.0014923 28.8678147,23.453498 29.1184947,22.8563733 C29.2438347,22.5578109 29.3387892,22.2479107 29.3881656,21.9380105 C29.4033583,21.8586458 29.4109547,21.7830604 29.418551,21.7036957 C29.4223492,21.6356689 29.4299456,21.5714213 29.4261474,21.5071737 C29.4261474,21.4429261 29.418551,21.3748992 29.4071565,21.3106516 C29.395762,21.246404 29.3843674,21.1821564 29.3653765,21.1179088 C29.3463856,21.0536612 29.3235965,20.9894136 29.2970092,20.9289453 C29.270422,20.8684769 29.2400365,20.8042293 29.2058529,20.743761 C29.1374856,20.6228243 29.0539256,20.505667 28.9551729,20.3998474 C28.7614656,20.1844289 28.5145838,19.9954654 28.2411147,19.8442946 C27.9676456,19.6931238 27.663791,19.5759664 27.3447437,19.4966017 C27.0256965,19.417237 26.6952546,19.3681065 26.3572165,19.3492101 C25.6811401,19.3114174 24.989871,19.3945614 24.3137946,19.5646286 C23.9757564,19.6477725 23.6377182,19.7535921 23.3072764,19.878308 C22.9768346,20.003024 22.650191,20.142857 22.3311437,20.2978071 C22.2513819,20.339379 22.17162,20.3771717 22.0918582,20.4187437 C22.0120964,20.4603157 21.9361328,20.5018877 21.8563709,20.5434597 L21.6170855,20.6757341 L21.3815982,20.8080086 C21.0701473,20.9894136 20.7586964,21.1783771 20.45864,21.3748992 C19.8547291,21.7717226 19.2812036,22.2063387 18.74566,22.6825268 C18.2139145,23.1587149 17.7201509,23.6802543 17.2909563,24.2433656 C16.8617618,24.8064769 16.5009345,25.4187187 16.23886,26.064974 C15.9767854,26.7112293 15.8134636,27.3952773 15.7906745,28.0868838 C15.7754818,28.4307974 15.802069,28.7747111 15.8590418,29.1148454 C15.9198127,29.4512005 16.0147672,29.7837763 16.1439054,30.101235 C16.4097781,30.7323732 16.8085872,31.3106016 17.3327363,31.7678934 C17.8568854,32.2251851 18.4911818,32.5577609 19.1672582,32.7882964 C19.5052964,32.9016746 19.8585273,32.9885978 20.2117582,33.0566247 C20.5687873,33.1208723 20.9296146,33.1662235 21.29424,33.1926784 C22.023491,33.2418089 22.7603382,33.2229126 23.4933873,33.1511064 C24.2264364,33.0793003 24.9556874,32.9545843 25.6773419,32.7882964 C27.1168528,32.4519414 28.5259783,31.9530776 29.855342,31.2841467 C28.5601619,32.013546 27.1700274,32.5842158 25.7305165,32.9923771 C25.0088619,33.1964577 24.2758128,33.355187 23.5351673,33.4647859 C22.7907237,33.5743847 22.0386837,33.6310738 21.2790473,33.6121774 C20.8992291,33.6046189 20.5194109,33.5743847 20.1395927,33.5252542 C19.7597746,33.4723444 19.3837546,33.396759 19.0115327,33.2947187 C18.2708873,33.0830795 17.5454345,32.7505037 16.9225327,32.2591986 C16.61488,32.013546 16.3262181,31.7301007 16.0831345,31.4126419 C15.8362527,31.0989625 15.6387472,30.7512696 15.4754254,30.3884596 C15.3159018,30.0256496 15.19436,29.6439433 15.1145981,29.2546784 C15.0386345,28.8654135 15.0006527,28.4685901 15.0044509,28.0717667 C15.0120472,27.2781199 15.175369,26.4958109 15.4526363,25.7664116 C15.7299036,25.0332331 16.11352,24.3491852 16.5655036,23.718047 C17.0174872,23.0869088 17.5378382,22.5124596 18.0961709,21.987141 C18.6583018,21.4618224 19.2584146,20.981855 19.8851146,20.5472389 C20.2003637,20.3280412 20.5194109,20.1201813 20.8460546,19.9236593 L21.0929364,19.7762677 L21.3398182,19.6326554 C21.5069382,19.5381737 21.6778564,19.4436919 21.8487746,19.3567687 C22.1944091,19.179143 22.54764,19.0166343 22.9122655,18.873022 C23.276891,18.7294098 23.6491128,18.6009146 24.028931,18.4988743 C24.7885674,18.2947936 25.5899837,18.173857 26.4027946,18.2003119 C26.8092001,18.2116497 27.2194037,18.2607802 27.622011,18.355262 C28.0284165,18.4497437 28.4272256,18.5895767 28.8070438,18.7898781 C29.186862,18.9864002 29.5476892,19.2471698 29.8591401,19.5759664 C30.0148656,19.738475 30.1553983,19.9236593 30.273142,20.1201813 C30.3339129,20.2184424 30.3870874,20.324262 30.4364638,20.4300815 C30.482042,20.5359011 30.5276202,20.6455 30.5618038,20.7588781 C30.5997856,20.8722562 30.6263729,20.9894136 30.649162,21.106571 C30.6681529,21.2237284 30.6833456,21.3408858 30.690942,21.4618224 C30.6985383,21.5789798 30.6947402,21.6999165 30.6871438,21.8170739 C30.6795474,21.9228934 30.6681529,22.028713 30.6529602,22.1345326 C30.5921892,22.5578109 30.482042,22.9621928 30.3263165,23.3514577 C30.0186638,24.1299875 29.5514874,24.8253733 28.9893565,25.4187187 C28.4272256,26.0120642 27.7701401,26.5071487 27.0674765,26.9039721 C26.3648128,27.3007955 25.616571,27.5993579 24.8569346,27.8185556 C24.4771164,27.9281544 24.0897019,28.0188569 23.7022873,28.0906631 C23.3148728,28.1624692 22.9274582,28.2191583 22.5362455,28.2607302 C22.4374928,28.2682888 22.3425382,28.2796266 22.2437855,28.2871851 C22.1450328,28.2947437 22.0500782,28.3023022 21.9475273,28.3098608 C21.7462237,28.3211986 21.54492,28.3287571 21.3398182,28.3287571 C20.9334128,28.3287571 20.5232091,28.3023022 20.1130055,28.2418339 C19.2963964,28.1246765 18.4873836,27.8714654 17.7467382,27.4973176 C17.0022945,27.1231698 16.3300163,26.6243061 15.7412981,26.0574155 C15.15258,25.4905249 14.6474218,24.8518282 14.2182272,24.179118 C13.7852345,23.5064078 13.4244072,22.8034635 13.1167545,22.0778435 C12.8091017,21.3522236 12.5584217,20.6114865 12.3609163,19.8405153 C12.3381272,19.7422543 12.3115399,19.6477725 12.292549,19.5457322 L12.2583654,19.3945614 L12.250769,19.3529894 L12.2469708,19.3303138 C12.2469708,19.3265345 12.2469708,19.3340931 12.2469708,19.3340931 L12.2317781,19.2698455 L12.2013926,19.1413503 C12.1899981,19.095999 12.1824017,19.0582063 12.1710072,19.0052965 L12.1102363,18.718072 C12.0304745,18.3325863 11.9659054,17.9471007 11.9127308,17.5578359 C11.8101799,16.7793061 11.7608035,15.9932178 11.7683999,15.2071296 C11.7759963,14.4210413 11.8367672,13.6311737 11.9659054,12.8450854 C12.0950435,12.0589971 12.2811545,11.2804674 12.5622199,10.5057169 C12.7597254,9.96528121 13.3598381,9.68939446 13.8991799,9.88213726 C14.4423199,10.0786593 14.7195872,10.6757841 14.5258799,11.2124405 C14.5220818,11.2199991 14.5220818,11.2237783 14.5182836,11.2313369 L14.5220818,11.2388954 Z" id="Shape" fill="#FFC001" fill-rule="nonzero"></path>
            </g>
        </g>
    </g>
    
    </defs>
   
</svg>