<?xml version="1.0" encoding="UTF-8"?>
<svg width="25px" height="23px" viewBox="0 0 25 23" version="1.1" xmlns="http://www.w3.org/2000/svg" xmlns:xlink="http://www.w3.org/1999/xlink">
    <!-- Generator: Sketch 46.2 (44496) - http://www.bohemiancoding.com/sketch -->
    <title>back icon</title>
    <desc>Created with Sketch.</desc>
    <defs>
        <path d="M2.81626543,10.1837348 L2.81626543,2.40813324 C2.81626543,2.18272773 2.63353816,2.00000046 2.40813264,2.00000046 C2.18272713,2.00000046 1.99999986,2.18272773 1.99999986,2.40813324 L1.99999986,2.40813324 L1.99999986,10.5854478 C1.99999986,10.6997991 2.04702789,10.8031664 2.1227983,10.8772642 C2.19689176,10.9529981 2.3002338,11.0000003 2.41455381,11.0000003 L10.5918683,11.0000003 C10.8172738,11.0000003 11.0000011,10.8172731 11.0000011,10.5918676 L11.0000011,10.5918676 L11.0000011,10.5918676 C11.0000011,10.366462 10.8172738,10.1837348 10.5918683,10.1837348 L2.81626543,10.1837348 Z" id="path-1"></path>
        <filter x="-94.4%" y="-72.2%" width="288.9%" height="288.9%" filterUnits="objectBoundingBox" id="filter-2">
            <feMorphology radius="0.5" operator="dilate" in="SourceAlpha" result="shadowSpreadOuter1"></feMorphology>
            <feOffset dx="0" dy="2" in="shadowSpreadOuter1" result="shadowOffsetOuter1"></feOffset>
            <feGaussianBlur stdDeviation="2" in="shadowOffsetOuter1" result="shadowBlurOuter1"></feGaussianBlur>
            <feColorMatrix values="0 0 0 0 0   0 0 0 0 0   0 0 0 0 0  0 0 0 0.324784873 0" type="matrix" in="shadowBlurOuter1"></feColorMatrix>
        </filter>
        <path d="M1.42424242,6 L12.5757576,6 L12.5757576,6 C12.8100602,6 13,6.1899398 13,6.42424242 L13,6.42424242 L13,6.42424242 C13,6.65854505 12.8100602,6.84848485 12.5757576,6.84848485 L1.42424242,6.84848485 L1.42424242,6.84848485 C1.1899398,6.84848485 1,6.65854505 1,6.42424242 L1,6.42424242 L1,6.42424242 C1,6.1899398 1.1899398,6 1.42424242,6 Z" id="path-3"></path>
        <filter x="-70.8%" y="-650.0%" width="241.7%" height="1800.0%" filterUnits="objectBoundingBox" id="filter-4">
            <feMorphology radius="0.5" operator="dilate" in="SourceAlpha" result="shadowSpreadOuter1"></feMorphology>
            <feOffset dx="0" dy="2" in="shadowSpreadOuter1" result="shadowOffsetOuter1"></feOffset>
            <feGaussianBlur stdDeviation="2" in="shadowOffsetOuter1" result="shadowBlurOuter1"></feGaussianBlur>
            <feColorMatrix values="0 0 0 0 0   0 0 0 0 0   0 0 0 0 0  0 0 0 0.324784873 0" type="matrix" in="shadowBlurOuter1"></feColorMatrix>
        </filter>
    </defs>
    <g id="Page-1" stroke="none" stroke-width="1" fill="none" fill-rule="evenodd">
        <g id="more-Styleguide" transform="translate(-1849.000000, -896.000000)">
            <g id="Group-34" transform="translate(1825.000000, 882.000000)">
                <g id="back-icon" transform="translate(31.000000, 18.000000)">
                    <g id="Combined-Shape" transform="translate(6.500000, 6.500000) rotate(-315.000000) translate(-6.500000, -6.500000) ">
                        <use fill="black" fill-opacity="1" filter="url(#filter-2)" xlink:href="#path-1"></use>
                        <use fill="#FFFFFF" fill-rule="evenodd" xlink:href="#path-1"></use>
                    </g>
                    <g id="Rectangle-18">
                        <use fill="black" fill-opacity="1" filter="url(#filter-4)" xlink:href="#path-3"></use>
                        <use fill="#FFFFFF" fill-rule="evenodd" xlink:href="#path-3"></use>
                    </g>
                </g>
            </g>
        </g>
    </g>
</svg>