<?xml version="1.0" encoding="UTF-8"?>
<svg width="15px" height="13px" viewBox="0 0 15 13" version="1.1" xmlns="http://www.w3.org/2000/svg" xmlns:xlink="http://www.w3.org/1999/xlink">
    <!-- Generator: Sketch 46.2 (44496) - http://www.bohemiancoding.com/sketch -->
    <title>Camera icon</title>
    <desc>Created with Sketch.</desc>
    <defs></defs>
    <g id="Page-1" stroke="none" stroke-width="1" fill="none" fill-rule="evenodd" opacity="0.6">
        <g id="more-Styleguide" transform="translate(-727.000000, -768.000000)" stroke="#FFFFFF">
            <g id="Group-8" transform="translate(575.000000, 659.000000)">
                <g id="Camera-icon" transform="translate(152.000000, 109.000000)">
                    <rect id="Rectangle-4" stroke-width="0.5" x="2.5" y="3.625" width="1" height="1"></rect>
                    <path d="M2,2.375 C1.17157288,2.375 0.5,3.04657288 0.5,3.875 L0.5,10.7499181 C0.5,11.5783453 1.17157288,12.2499181 2,12.2499181 L13,12.2499181 C13.8284271,12.2499181 14.5,11.5783453 14.5,10.7499181 L14.5,3.875 C14.5,3.04657288 13.8284271,2.375 13,2.375 L10.5809579,2.375 L10.0379791,1.31575059 C9.78127629,0.814971624 9.26587696,0.5 8.7031373,0.5 L6.31701589,0.5 C5.76322423,0.5 5.25448549,0.805129986 4.99371767,1.29368434 L4.41656116,2.375 L2,2.375 Z" id="Rectangle-2"></path>
                    <circle id="Oval-5" cx="7.6875" cy="7.3125" r="2.8125"></circle>
                </g>
            </g>
        </g>
    </g>
</svg>