<?xml version="1.0" encoding="UTF-8"?>
<svg width="14px" height="15px" viewBox="0 0 14 15" version="1.1" xmlns="http://www.w3.org/2000/svg" xmlns:xlink="http://www.w3.org/1999/xlink">
    <!-- Generator: Sketch 46.2 (44496) - http://www.bohemiancoding.com/sketch -->
    <title>search icon</title>
    <desc>Created with Sketch.</desc>
    <defs></defs>
    <g id="Page-1" stroke="none" stroke-width="1" fill="none" fill-rule="evenodd" opacity="0.6">
        <g id="more-Styleguide" transform="translate(-1512.000000, -937.000000)" fill="#3D3D3D">
            <g id="Group-33" transform="translate(1415.000000, 882.000000)">
                <g id="Group-19" transform="translate(84.000000, 53.000000)">
                    <path d="M21.1231044,13.041061 L21.1231044,17.2902459 L21.1231044,17.2902459 C21.1231044,17.6814512 20.8059699,17.9985857 20.4147646,17.9985857 L20.4147646,17.9985857 C20.0235593,17.9985857 19.7064248,17.6814512 19.7064248,17.2902459 L19.7064248,12.9681786 C18.4805536,12.7458085 17.3074795,12.1105719 16.4136534,11.0823426 C14.3802576,8.74318829 14.5620669,5.25595852 16.8197358,3.29339686 C19.0774048,1.3308352 22.556,1.63612384 24.5893958,3.97527811 C26.6227916,6.31443238 26.4409823,9.80166216 24.1833134,11.7642238 C23.2975156,12.5342361 22.2237697,12.9551377 21.1231044,13.041061 Z M20.4876683,12.4281341 C23.1068844,12.4281341 25.2301785,10.2282045 25.2301785,7.51445394 C25.2301785,4.80070335 23.1068844,2.60077382 20.4876683,2.60077382 C17.8684523,2.60077382 15.7451582,4.80070335 15.7451582,7.51445394 C15.7451582,10.2282045 17.8684523,12.4281341 20.4876683,12.4281341 Z" id="search-icon" transform="translate(20.501525, 9.999293) rotate(-43.000000) translate(-20.501525, -9.999293) "></path>
                </g>
            </g>
        </g>
    </g>
</svg>