<?xml version="1.0" encoding="UTF-8"?>
<svg width="35px" height="35px" viewBox="0 0 35 35" version="1.1" xmlns="http://www.w3.org/2000/svg" xmlns:xlink="http://www.w3.org/1999/xlink">
    <!-- Generator: Sketch 46.2 (44496) - http://www.bohemiancoding.com/sketch -->
    <title>amenities icon</title>
    <desc>Created with Sketch.</desc>
    <defs>
        <polygon id="path-1" points="0 7.80769231 27.8846154 7.80769231 27.8846154 13.162723 25.2289377 13.1633766 25.2289377 27.8846154 2.65567766 27.8846154 2.65567766 13.1591285 0 13.1591285"></polygon>
        <rect id="path-2" x="2.23076923" y="5.57692308" width="8.92307692" height="1.11538462" rx="0.557692308"></rect>
        <path d="M14.7536908,5.58305169 L24.851653,6.80533515 L24.851653,6.80533515 C25.102725,6.83572555 25.2915702,7.04880749 25.2915702,7.30171208 L25.2915702,7.41627618 L25.2915702,7.41627618 C25.2915702,7.68924755 25.0702832,7.91053457 24.7973118,7.91053457 C24.7774603,7.91053457 24.7576267,7.90933858 24.737919,7.90695311 L14.6399569,6.68466966 L14.6399569,6.68466966 C14.3888848,6.65427925 14.2000396,6.44119732 14.2000396,6.18829272 L14.2000396,6.07372863 L14.2000396,6.07372863 C14.2000396,5.80075725 14.4213266,5.57947023 14.694298,5.57947023 C14.7141496,5.57947023 14.7339831,5.58066622 14.7536908,5.58305169 Z" id="path-3"></path>
    </defs>
    <g id="Page-1" stroke="none" stroke-width="1" fill="none" fill-rule="evenodd">
        <g id="'Fun'ch-with-friends-Style-Guide" transform="translate(-3046.000000, -2427.000000)">
            <g id="Group-33" transform="translate(2838.000000, 2155.000000)">
                <g id="Group-7" transform="translate(194.000000, 272.000000)">
                    <g id="amenities-icon" transform="translate(14.000000, 0.000000)">
                       
                        <g id="Group-3" transform="translate(3.500000, 4.000000)">
                            <g id="Group-5">
                                <g id="Rectangle">
                                    <use fill="#FFC001" fill-rule="evenodd" xlink:href="#path-1"></use>
                                    <path stroke="#FFC001" stroke-width="1" d="M0.5,8.30769231 L0.5,12.6591285 L3.15567766,12.6591285 L3.15567766,27.3846154 L24.7289377,27.3846154 L24.7289377,12.6634996 L27.3846154,12.662846 L27.3846154,8.30769231 L0.5,8.30769231 Z"></path>
                                </g>
                                <path d="M13.2277372,8.24938731 C12.2279978,8.9757405 10.0730216,7.49367274 8.85625461,5.81893669 C7.63948765,4.14420065 7.46355205,2.19773322 8.46329147,1.47138003 C9.46303088,0.745026827 11.6180071,2.22709459 12.834774,3.90183064 C14.051541,5.57656669 14.2274766,7.52303411 13.2277372,8.24938731 Z M14.7442627,7.39214618 C13.6740754,6.77427325 13.6455859,4.8200785 14.6806297,3.02733005 C15.7156735,1.23458161 17.4223005,0.282156823 18.4924879,0.900029759 C19.5626752,1.51790269 19.5911646,3.47209744 18.5561208,5.26484589 C17.521077,7.05759434 15.81445,8.01001912 14.7442627,7.39214618 Z" id="Combined-Shape" stroke="#FFC001"></path>
                                <g id="Rectangle-5" transform="translate(6.692308, 6.134615) rotate(24.000000) translate(-6.692308, -6.134615) ">
                                    <use fill="#D8D8D8" fill-rule="evenodd" xlink:href="#path-2"></use>
                                    <rect stroke="#FFC001" stroke-width="1" x="2.73076923" y="6.07692308" width="7.92307692" height="1" rx="0.5"></rect>
                                </g>
                                <g id="Rectangle-5" transform="translate(19.745805, 6.745002) rotate(-20.000000) translate(-19.745805, -6.745002) ">
                                    <use fill="#D8D8D8" fill-rule="evenodd" xlink:href="#path-3"></use>
                                    <path stroke="#FFC001" stroke-width="1" d="M14.7000396,6.08020712 L14.7000396,6.18829272 L24.7915702,7.40979768 L24.7915702,7.30171208 L14.7000396,6.08020712 Z"></path>
                                </g>
                                <rect id="Rectangle-6" fill="#FFFFFF" x="0" y="12.2692308" width="27.8846154" height="1.11538462"></rect>
                            </g>
                        </g>
                    </g>
                </g>
            </g>
        </g>
    </g>
</svg>