<?xml version="1.0" encoding="UTF-8"?>
<svg width="22px" height="22px" viewBox="0 0 22 22" version="1.1" xmlns="http://www.w3.org/2000/svg" xmlns:xlink="http://www.w3.org/1999/xlink">
    <!-- Generator: Sketch 46.2 (44496) - http://www.bohemiancoding.com/sketch -->
    <title>call icon 3</title>
    <desc>Created with Sketch.</desc>
    <defs></defs>
    <g id="Page-1" stroke="none" stroke-width="1" fill="none" fill-rule="evenodd">
        <g id="call-icon-3">
            <g id="Oval-5">
                <g id="path-1-link" fill-rule="nonzero" fill="#000000">
                    <circle id="path-1" cx="11" cy="11" r="11"></circle>
                </g>
                <g id="path-1-link" fill="#FFFFFF">
                    <circle id="path-1" cx="11" cy="11" r="11"></circle>
                </g>
            </g>
            <g id="Call-icon-1" transform="translate(3.000000, 4.000000)" stroke="#1492D0">
                <g id="Group" transform="translate(7.304703, 8.101400) rotate(-35.000000) translate(-7.304703, -8.101400) translate(3.804703, 1.101400)">
                    <path d="M4.33436532,0.130030961 C1.94056146,0.130030961 0.568453579,3.16656139 0.568453579,6.75726719 C0.568453579,10.347973 1.94056146,13.1331269 4.33436532,13.1331269" id="Oval-16"></path>
                    <path d="M4.04782311,3.37958666 C3.67874278,4.33615307 3.46749226,5.44686085 3.46749226,6.63157895 C3.46749226,7.82872469 3.68319806,8.95029933 4.05949011,9.91362341" id="Oval-16"></path>
                    <path d="M4.0178767,13.114746 L5.20123839,13.1981424 C5.95528661,13.1981424 6.56656347,12.5868656 6.56656347,11.8328173 L6.56656347,10.9659442 C6.56656347,10.2118961 5.95528661,9.60061922 5.20123839,9.60061922 L4.31912226,9.60030371 L3.6080191,9.5957477" id="Rectangle-2"></path>
                    <path d="M4.00465538,3.61124738 L5.18801708,3.69464378 C5.94206529,3.69464378 6.55334216,3.08336693 6.55334216,2.32931868 L6.55334216,1.46244561 C6.55334216,0.708397428 5.94206529,0.0971205856 5.18801708,0.0971205856 L4.30590094,0.0968050698 L3.60825118,0.0688003916" id="Rectangle-2" transform="translate(5.080797, 1.881722) scale(-1, 1) rotate(-180.000000) translate(-5.080797, -1.881722) "></path>
                </g>
            </g>
        </g>
    </g>
</svg>