<?xml version="1.0" encoding="UTF-8"?>
<svg width="17px" height="17px" viewBox="0 0 17 17" version="1.1" xmlns="http://www.w3.org/2000/svg" xmlns:xlink="http://www.w3.org/1999/xlink">
    <!-- Generator: Sketch 46.2 (44496) - http://www.bohemiancoding.com/sketch -->
    <title>Cash icon</title>
    <desc>Created with Sketch.</desc>
    <defs></defs>
    <g id="Page-1" stroke="none" stroke-width="1" fill="none" fill-rule="evenodd">
        <g id="Cash-icon">
            <g id="Group-21" opacity="0.6" transform="translate(1.000000, 4.000000)">
                <g id="Rectangle-19" transform="translate(7.500000, 4.500000) rotate(90.000000) translate(-7.500000, -4.500000) translate(3.000000, -3.000000)">
                    <g id="path-1-link" fill="#FFFFFF">
                        <path d="M1.24795876,0.208727263 L7.77989503,0.368571971 L7.77989503,0.368571971 C8.32561027,0.381926311 8.75978469,0.830446221 8.75539881,1.37630721 L8.6573428,13.5802381 L8.6573428,13.5802381 C8.65293065,14.12937 8.20652472,14.5722035 7.65737508,14.5722035 L1.22349482,14.5722035 L1.22349482,14.5722035 C0.671210072,14.5722035 0.223494822,14.1244883 0.223494822,13.5722035 L0.223494822,1.20842798 L0.223494822,1.20842798 C0.223494822,0.656143226 0.671210072,0.208427976 1.22349482,0.208427976 C1.23165038,0.208427976 1.23980564,0.208527746 1.24795876,0.208727263 Z" id="path-1"></path>
                    </g>
                    <rect id="Rectangle-path" stroke="#3D3D3D" stroke-width="0.7" x="0.35" y="0.35" width="8.3" height="14.3" rx="1"></rect>
                </g>
                <path d="M5.91904686,3.2394958 L5.79999924,3.58963585 L7.60672193,3.58963585 C7.56470512,3.80672269 7.4596631,3.98179272 7.27759027,4.11484594 C7.03949504,4.28991597 6.68935498,4.38095238 6.22717011,4.38095238 L5.84901884,4.38095238 L5.84901884,4.78011204 C6.03109167,4.78011204 6.1921561,4.82913165 6.33221212,4.92016807 C6.44425694,4.99719888 6.57030736,5.1232493 6.70336058,5.30532213 L7.96386478,7 L8.74117571,7 L7.28459307,5.1162465 C7.11652585,4.89215686 6.99747823,4.75910364 6.91344462,4.70308123 C7.29159588,4.64005602 7.59271632,4.5 7.83081156,4.28291317 C8.02688999,4.10084034 8.14593761,3.8697479 8.18095162,3.58963585 L8.97927095,3.58963585 L9.09831856,3.2394958 L8.18795442,3.2394958 C8.15294041,2.86834734 7.99887879,2.57422969 7.73277235,2.35014006 L8.99327655,2.35014006 L9.11232417,2 L5.92604966,2 L5.80700204,2.35014006 L6.45125974,2.35014006 C6.8154054,2.35014006 7.10252025,2.44117647 7.31260428,2.6232493 C7.48067151,2.77731092 7.57871072,2.98039216 7.61372473,3.2394958 L5.91904686,3.2394958 Z" id="₹" fill="#3D3D3D" fill-rule="nonzero"></path>
            </g>
        </g>
    </g>
</svg>