<?xml version="1.0" encoding="UTF-8"?>
<svg width="21px" height="21px" viewBox="0 0 21 21" version="1.1" xmlns="http://www.w3.org/2000/svg" xmlns:xlink="http://www.w3.org/1999/xlink">
    <!-- Generator: Sketch 46.2 (44496) - http://www.bohemiancoding.com/sketch -->
    <title>Alert icon</title>
    <desc>Created with Sketch.</desc>
    <defs></defs>
    <g id="Page-1" stroke="none" stroke-width="1" fill="none" fill-rule="evenodd">
        <g id="Catch-up-over-a-Styleguide" transform="translate(-234.000000, -1397.000000)">
            <g id="Alert-icon" transform="translate(234.000000, 1397.000000)">
                <circle id="Oval-7" fill="#159ADC" cx="10.6999969" cy="10.1999512" r="10"></circle>
                <g id="Group-23" transform="translate(0.399994, 0.000000)" stroke="#FFFFFF" stroke-linecap="round">
                    <path d="M10.5,17.625 C12.8256957,17.625 14.8911359,16.5107139 16.1915683,14.7868942 C17.0914405,13.5940468 17.625,12.1093331 17.625,10.5 C17.625,6.56497116 14.4350288,3.375 10.5,3.375 C6.56497116,3.375 3.375,6.56497116 3.375,10.5" id="Oval-10" stroke-linejoin="bevel" stroke-dasharray="1,2,1,2" transform="translate(10.500000, 10.500000) rotate(30.000000) translate(-10.500000, -10.500000) "></path>
                    <path d="M14.2813297,4.46007919 C13.1854481,3.77254776 11.8891502,3.375 10.5,3.375 C6.56497116,3.375 3.375,6.56497116 3.375,10.5 C3.375,12.2986125 4.0414478,13.9415678 5.1408726,15.1953951 C6.23586014,16.4441619 7.76033676,17.3069354 9.48364712,17.5530603" id="Oval-4"></path>
                    <polyline id="Rectangle-20" transform="translate(13.432585, 4.121538) rotate(65.000000) translate(-13.432585, -4.121538) " points="12.1098 2.55214879 14.7553707 3.01569618 14.3710248 5.6909266"></polyline>
                    <path d="M10.2947482,6.38534111 L10.2947482,11.2224243" id="Path-3"></path>
                    <path d="M14.3960008,11.2440564 L10.3378515,11.2440564" id="Path-3"></path>
                </g>
            </g>
        </g>
    </g>
</svg>