<?xml version="1.0" encoding="UTF-8"?>
<svg width="35px" height="35px" viewBox="0 0 35 35" version="1.1" xmlns="http://www.w3.org/2000/svg" xmlns:xlink="http://www.w3.org/1999/xlink">
    <!-- Generator: Sketch 46.2 (44496) - http://www.bohemiancoding.com/sketch -->
    <title>Cuisines icon</title>
    <desc>Created with Sketch.</desc>
    <defs></defs>
    <g id="Page-1" stroke="none" stroke-width="1" fill="none" fill-rule="evenodd">
        <g id="'Fun'ch-with-friends-Style-Guide" transform="translate(-2914.000000, -2429.000000)">
            <g id="Group-33" transform="translate(2838.000000, 2155.000000)">
                <g id="Cuisines-icon" transform="translate(76.000000, 274.000000)">
                   
                    <g id="Group-17" transform="translate(4.000000, 4.000000)">
                        <path d="M19.1571364,27 L6.75386575,27 L6.75386575,17.6384579 C3.0238087,17.6384579 0,14.8997411 0,11.5213627 C0,8.23938288 2.85370809,5.56108127 6.43634461,5.41090824 C6.84973887,2.31687834 9.78875934,-0.0546250034 13.3045397,0.00095723346 C16.7217871,0.054981727 19.5061291,2.38333545 19.9294082,5.36518301 C23.3033475,5.72730755 25.92,8.32702347 25.92,11.4802705 C25.92,14.8813435 22.8758785,17.6384579 19.1207644,17.6384579 L19.1571364,27 Z M6.75386575,4.97652076 L6.75386575,4.97652076" id="Combined-Shape" fill="#FFC001"></path>
                        <path d="M10.8,20.52 L10.8,24.84" id="Line-2" stroke="#FFFFFF" stroke-linecap="round"></path>
                        <path d="M15.12,20.52 L15.12,24.84" id="Line-2" stroke="#FFFFFF" stroke-linecap="round"></path>
                    </g>
                </g>
            </g>
        </g>
    </g>
</svg>