<?xml version="1.0" encoding="UTF-8"?>
<svg width="28px" height="29px" viewBox="0 0 28 29" version="1.1" xmlns="http://www.w3.org/2000/svg" xmlns:xlink="http://www.w3.org/1999/xlink">
    <!-- Generator: Sketch 46.2 (44496) - http://www.bohemiancoding.com/sketch -->
    <title>Cusines icon big</title>
    <desc>Created with Sketch.</desc>
    <defs></defs>
    <g id="Page-1" stroke="none" stroke-width="1" fill="none" fill-rule="evenodd">
        <g id="'Fun'ch-with-friends-Style-Guide" transform="translate(-3632.000000, -2627.000000)">
            <g id="Group-54" transform="translate(3601.000000, 2589.000000)">
                <g id="Cusines-icon-big" transform="translate(31.000000, 38.000000)">
                    <path d="M20.6944375,29 L7.29584263,29 L7.29584263,18.9450103 C3.26646001,18.9450103 0,16.0034256 0,12.374797 C0,8.84970754 3.08270936,5.97301321 6.9528414,5.81171626 C7.39940928,2.48849896 10.5742771,-0.0586712999 14.372188,0.00102813964 C18.0636589,0.0590544476 21.0714357,2.55987882 21.5286817,5.76260397 C25.1733692,6.15155255 28,8.94384002 28,12.3306609 C28,15.9836652 24.7115972,18.9450103 20.6551468,18.9450103 L20.6944375,29 Z M7.29584263,5.34515192 L7.29584263,5.34515192" id="Combined-Shape" fill="#FFC001"></path>
                    <path d="M12,22 L12,27" id="Line-2" stroke="#FFFFFF" stroke-linecap="round"></path>
                    <path d="M16,22 L16,27" id="Line-2" stroke="#FFFFFF" stroke-linecap="round"></path>
                </g>
            </g>
        </g>
    </g>
</svg>