<?xml version="1.0" encoding="UTF-8"?>
<svg width="22px" height="22px" viewBox="0 0 22 22" version="1.1" xmlns="http://www.w3.org/2000/svg" xmlns:xlink="http://www.w3.org/1999/xlink">
    <!-- Generator: Sketch 46.2 (44496) - http://www.bohemiancoding.com/sketch -->
    <title>direction icon</title>
    <desc>Created with Sketch.</desc>
    <defs>
        <path d="M18.0397399,10.1410142 L21.4884815,10.1410142 L21.4884815,10.1410142 C21.79548,10.1410142 22.0443515,10.3898857 22.0443515,10.6968842 L22.0443515,10.6968842 L22.0443515,10.6968842 C22.0443515,11.0038827 21.79548,11.2527542 21.4884815,11.2527542 L18.0653891,11.2527542 M4.87161988,11.2527542 L1.40401451,11.2527542 L1.40401451,11.2527542 C1.097016,11.2527542 0.848144531,11.0038827 0.848144531,10.6968842 L0.848144531,10.6968842 L0.848144531,10.6968842 C0.848144531,10.3898857 1.097016,10.1410142 1.40401451,10.1410142 L4.84671702,10.1410142" id="path-1"></path>
        <path d="M18.0397399,10.1410142 L21.4884815,10.1410142 L21.4884815,10.1410142 C21.79548,10.1410142 22.0443515,10.3898857 22.0443515,10.6968842 L22.0443515,10.6968842 L22.0443515,10.6968842 C22.0443515,11.0038827 21.79548,11.2527542 21.4884815,11.2527542 L18.0653891,11.2527542 M4.87161988,11.2527542 L1.40401451,11.2527542 L1.40401451,11.2527542 C1.097016,11.2527542 0.848144531,11.0038827 0.848144531,10.6968842 L0.848144531,10.6968842 L0.848144531,10.6968842 C0.848144531,10.3898857 1.097016,10.1410142 1.40401451,10.1410142 L4.84671702,10.1410142" id="path-2"></path>
    </defs>
    <g id="Page-1" stroke="none" stroke-width="1" fill="none" fill-rule="evenodd">
        <g id="'Fun'ch-with-friends-Style-Guide" transform="translate(-1038.000000, -1786.000000)">
            <g id="Group-38" transform="translate(1007.000000, 1704.000000)">
                <g id="Group-3" transform="translate(31.000000, 82.000000)">
                    <g id="direction-icon">
                        <circle id="Oval-10" stroke="#6B6B6B" cx="11.409674" cy="10.6968842" r="6.72630966"></circle>
                        <g id="Rectangle-31">
                            <use fill="#D8D8D8" fill-rule="evenodd" xlink:href="#path-1"></use>
                            <path stroke="#6B6B6B" stroke-width="1" d="M18.5514086,10.6410142 L18.5539865,10.7527542 L21.4884815,10.7527542 C21.5193376,10.7527542 21.5443515,10.7277403 21.5443515,10.6968842 C21.5443515,10.666028 21.5193376,10.6410142 21.4884815,10.6410142 L18.5514086,10.6410142 Z M4.36029451,10.7527542 L4.35779155,10.6410142 L1.40401451,10.6410142 C1.37315837,10.6410142 1.34814453,10.666028 1.34814453,10.6968842 C1.34814453,10.7277403 1.37315837,10.7527542 1.40401451,10.7527542 L4.36029451,10.7527542 Z"></path>
                        </g>
                        <g id="Rectangle-31" transform="translate(11.446248, 10.696884) rotate(-90.000000) translate(-11.446248, -10.696884) ">
                            <use fill="#D8D8D8" fill-rule="evenodd" xlink:href="#path-2"></use>
                            <path stroke="#6B6B6B" stroke-width="1" d="M18.5514086,10.6410142 L18.5539865,10.7527542 L21.4884815,10.7527542 C21.5193376,10.7527542 21.5443515,10.7277403 21.5443515,10.6968842 C21.5443515,10.666028 21.5193376,10.6410142 21.4884815,10.6410142 L18.5514086,10.6410142 Z M4.36029451,10.7527542 L4.35779155,10.6410142 L1.40401451,10.6410142 C1.37315837,10.6410142 1.34814453,10.666028 1.34814453,10.6968842 C1.34814453,10.7277403 1.37315837,10.7527542 1.40401451,10.7527542 L4.36029451,10.7527542 Z"></path>
                        </g>
                        <circle id="Oval-11" stroke="#6B6B6B" cx="11.409674" cy="10.6968842" r="2.77934987"></circle>
                    </g>
                </g>
            </g>
        </g>
    </g>
</svg>