<?xml version="1.0" encoding="UTF-8"?>
<svg width="17px" height="17px" viewBox="0 0 17 17" version="1.1" xmlns="http://www.w3.org/2000/svg" xmlns:xlink="http://www.w3.org/1999/xlink">
    <!-- Generator: Sketch 46.2 (44496) - http://www.bohemiancoding.com/sketch -->
    <title>ewallet icon</title>
    <desc>Created with Sketch.</desc>
    <defs></defs>
    <g id="Page-1" stroke="none" stroke-width="1" fill="none" fill-rule="evenodd">
        <g id="'Fun'ch-with-friends-Style-Guide" transform="translate(-3029.000000, -2725.000000)">
            <g id="Group-33" transform="translate(2838.000000, 2155.000000)">
                <g id="ewallet-icon" transform="translate(191.000000, 570.000000)">
                    
                    <g id="Group-23" opacity="0.6" transform="translate(1.500000, 4.000000)">
                        <g id="Group-22">
                            <path d="M0.298993426,1.25 L13.9388827,1.25" id="Path-2" stroke="#3D3D3D" stroke-width="0.5"></path>
                            <path d="M3.5,-2.15 C3.14101491,-2.15 2.85,-1.85898509 2.85,-1.5 L2.85,10.5 C2.85,10.8589851 3.14101491,11.15 3.5,11.15 L10.5,11.15 C10.8589851,11.15 11.15,10.8589851 11.15,10.5 L11.15,-1.5 C11.15,-1.85898509 10.8589851,-2.15 10.5,-2.15 L3.5,-2.15 Z" id="Rectangle-19" stroke="#3D3D3D" stroke-width="0.7" transform="translate(7.000000, 4.500000) rotate(90.000000) translate(-7.000000, -4.500000) "></path>
                            <path d="M5.46,7.36998779 C4.03,7.36998779 3,6.33998779 3,4.82998779 C3,3.42998779 4,2.29998779 5.38,2.29998779 C6.84,2.29998779 7.7,3.43998779 7.7,4.88998779 L7.7,5.07998779 L3.79,5.07998779 C3.85,5.98998779 4.49,6.74998779 5.53,6.74998779 C6.08,6.74998779 6.64,6.52998779 7.02,6.13998779 L7.38,6.62998779 C6.9,7.10998779 6.25,7.36998779 5.46,7.36998779 Z M6.96,4.52998779 C6.95,3.80998779 6.47,2.91998779 5.37,2.91998779 C4.34,2.91998779 3.83,3.78998779 3.79,4.52998779 L6.96,4.52998779 Z" id="e" fill="#3D3D3D"></path>
                            <path d="M14,6 L12,6 L12,6 C11.4477153,6 11,5.55228475 11,5 L11,4 L11,4 C11,3.44771525 11.4477153,3 12,3 L14,3" id="Rectangle-20" stroke="#3D3D3D" stroke-width="0.7"></path>
                        </g>
                    </g>
                </g>
            </g>
        </g>
    </g>
</svg>