<?xml version="1.0" encoding="UTF-8"?>
<svg width="14px" height="16px" viewBox="0 0 14 16" version="1.1" xmlns="http://www.w3.org/2000/svg" xmlns:xlink="http://www.w3.org/1999/xlink">
    <!-- Generator: Sketch 46.2 (44496) - http://www.bohemiancoding.com/sketch -->
    <title>Filter icon</title>
    <desc>Created with Sketch.</desc>
    <defs></defs>
    <g id="Page-1" stroke="none" stroke-width="1" fill="none" fill-rule="evenodd">
        <g id="'Fun'ch-with-friends-Style-Guide" transform="translate(-3112.000000, -1024.000000)" stroke="#5F5F5F">
            <g id="Group-44" transform="translate(2839.000000, 847.000000)">
                <path d="M273.891933,177.5 C273.821878,177.5 273.753228,177.517876 273.693051,177.551604 C273.508729,177.654915 273.446844,177.877904 273.518805,178.006904 L278.290801,184.403159 C278.409363,184.605577 278.473593,184.834628 278.477213,185.068616 L278.586527,192.133093 C278.588143,192.23752 278.63597,192.337166 278.719337,192.406981 C278.885302,192.545965 279.138464,192.526763 279.279452,192.36566 L281.287379,190.071254 C281.340126,190.010981 281.371324,189.936712 281.377025,189.85912 L281.733753,185.004056 C281.748286,184.806257 281.806109,184.614017 281.932185,184.394616 L286.45419,178.04698 C286.484328,177.993086 286.5,177.933119 286.5,177.872358 C286.5,177.669205 286.327028,177.5 286.108218,177.5 L273.891933,177.5 Z" id="Filter-icon"></path>
            </g>
        </g>
    </g>
</svg>