<?xml version="1.0" encoding="UTF-8"?>
<svg width="17px" height="15px" viewBox="0 0 17 15" version="1.1" xmlns="http://www.w3.org/2000/svg" xmlns:xlink="http://www.w3.org/1999/xlink">
    <!-- Generator: Sketch 46.2 (44496) - http://www.bohemiancoding.com/sketch -->
    <title>happy hours icon</title>
    <desc>Created with Sketch.</desc>
    <defs>
        <path d="M1.23601573,1.34416781 L6.97144443,2.00166883 L6.97144443,2.00166883 C7.2239005,2.03061002 7.41449815,2.24430583 7.41449815,2.49841537 L7.41449815,2.57916926 L7.41449815,2.57916926 C7.41449815,2.83862044 7.2041714,3.04894718 6.94472022,3.04894718 C6.92684185,3.04894718 6.90897805,3.04792658 6.89121601,3.04589037 L1.1557873,2.38838935 L1.1557873,2.38838935 C0.903331227,2.35944816 0.712733584,2.14575236 0.712733584,1.89164282 L0.712733584,1.81088893 L0.712733584,1.81088893 C0.712733584,1.55143775 0.923060326,1.341111 1.18251151,1.341111 C1.20038989,1.341111 1.21825368,1.3421316 1.23601573,1.34416781 Z" id="path-1"></path>
        <path d="M9.0084918,2.24230564 L15.8213638,2.50295218 L15.8213638,2.50295218 C16.0898723,2.51322477 16.3022488,2.73388176 16.3022488,3.00258667 L16.3022488,3.0552739 L16.3022488,3.0552739 C16.3022488,3.33141628 16.0783912,3.5552739 15.8022488,3.5552739 C15.7958754,3.5552739 15.7895026,3.55515204 15.7831338,3.55490838 L8.97026182,3.29426184 L8.97026182,3.29426184 C8.70175334,3.28398925 8.48937681,3.06333226 8.48937681,2.79462735 L8.48937681,2.74194012 L8.48937681,2.74194012 C8.48937681,2.46579774 8.71323443,2.24194012 8.98937681,2.24194012 C8.99575022,2.24194012 9.00212305,2.24206198 9.0084918,2.24230564 Z" id="path-2"></path>
    </defs>
    <g id="Page-1" stroke="none" stroke-width="1" fill="none" fill-rule="evenodd" opacity="0.6">
        <g id="'Fun'ch-with-friends-Style-Guide" transform="translate(-2977.000000, -1228.000000)">
            <g id="Group-44" transform="translate(2839.000000, 847.000000)">
                <g id="happy-hours-icon" transform="translate(138.000000, 382.000000)">
                    <path d="M1.44444444,4.27777778 L1.44444444,5.99655341 L2.79365079,5.99655341 L2.79365079,13.4777778 L13.2619048,13.4777778 L13.2619048,5.99883465 L14.6111111,5.99850262 L14.6111111,4.27777778 L1.44444444,4.27777778 Z" id="Rectangle" stroke="#3D3D3D"></path>
                    <path d="M8.33402946,3.7144703 C7.84137059,4.07240792 6.77942571,3.34206377 6.17981842,2.51677513 C5.58021113,1.69148649 5.4935123,0.732292092 5.98617118,0.374354468 C6.47883005,0.0164168444 7.54077493,0.746761 8.14038222,1.57204964 C8.73998951,2.39733827 8.82668833,3.35653267 8.33402946,3.7144703 Z M9.08135396,3.29203277 C8.55397925,2.98755284 8.53994001,2.02455051 9.04999644,1.14110686 C9.56005287,0.257663217 10.401057,-0.21167961 10.9284317,0.092800319 C11.4558064,0.397280248 11.4698456,1.36028258 10.9597892,2.24372622 C10.4497328,3.12716987 9.60872867,3.5965127 9.08135396,3.29203277 Z" id="Combined-Shape" stroke="#3D3D3D"></path>
                    <g id="Rectangle-5" transform="translate(4.063616, 2.195029) rotate(24.000000) translate(-4.063616, -2.195029) ">
                        <use fill="#D8D8D8" fill-rule="evenodd" xlink:href="#path-1"></use>
                        <path stroke="#3D3D3D" stroke-width="1" d="M1.21273358,1.84477356 L1.21273358,1.89164282 L6.91449815,2.54528463 L6.91449815,2.49841537 L1.21273358,1.84477356 Z"></path>
                    </g>
                    <g id="Rectangle-5" transform="translate(12.395813, 2.898607) rotate(-20.000000) translate(-12.395813, -2.898607) ">
                        <use fill="#D8D8D8" fill-rule="evenodd" xlink:href="#path-2"></use>
                        <path stroke="#3D3D3D" stroke-width="1" d="M8.98937681,2.74194012 L8.98937681,2.79462735 L15.8022488,3.0552739 L15.8022488,3.00258667 L8.98937681,2.74194012 Z"></path>
                    </g>
                </g>
            </g>
        </g>
    </g>
</svg>