<?xml version="1.0" encoding="UTF-8"?>
<svg width="16px" height="11px" viewBox="0 0 16 11" version="1.1" xmlns="http://www.w3.org/2000/svg" xmlns:xlink="http://www.w3.org/1999/xlink">
    <!-- Generator: Sketch 46.2 (44496) - http://www.bohemiancoding.com/sketch -->
    <title>Home delivery</title>
    <desc>Created with Sketch.</desc>
    <defs></defs>
    <g id="Page-1" stroke="none" stroke-width="1" fill="none" fill-rule="evenodd" opacity="0.6">
        <g id="Artboard-7" transform="translate(-165.000000, -505.000000)">
            <g id="Home-delivery" transform="translate(164.000000, 505.000000)">
                <path d="M3.23808278,0.35 L5.22233075,10.1292536 C5.28380795,10.4322405 5.55018905,10.65 5.85934998,10.65 L12.975358,10.65 C13.289494,10.65 13.5586791,10.4253445 13.6148734,10.1162755 L15.3905599,0.35 L3.23808278,0.35 Z" id="Rectangle-10" stroke="#3D3D3D" stroke-width="0.7"></path>
                <polyline id="Rectangle-12" stroke="#3D3D3D" stroke-width="0.7" stroke-linejoin="round" transform="translate(3.073601, 2.478282) rotate(43.000000) translate(-3.073601, -2.478282) " points="4.6418291 2.99459038 3.27536107 4.26884242 1.50537377 0.687722098"></polyline>
                <polyline id="Rectangle-12" stroke="#3D3D3D" stroke-width="0.7" stroke-linejoin="round" transform="translate(15.520171, 2.480510) scale(-1, 1) rotate(43.000000) translate(-15.520171, -2.480510) " points="17.0883982 2.99681787 15.7219301 4.27106992 13.9519428 0.689949597"></polyline>
                <path d="M14.5266215,0.393976013 L12.31303,3.32737303 C12.1901988,3.49014595 11.9981001,3.58584157 11.7941821,3.58584157 L10.1799927,3.58584157 L10.1799927,4.28584157 L11.7941821,4.28584157 C12.217704,4.28584157 12.6166783,4.08708912 12.8717893,3.7490223 L15.0853807,0.815625283 L14.5266215,0.393976013 Z M8.87823486,3.58584157 L6.79587051,3.58584157 C6.58998782,3.58584157 6.39627811,3.48830297 6.27367933,3.32290277 L4.05642797,0.331569347 L3.49406823,0.748404486 L5.7113196,3.73973791 C5.96594783,4.08326139 6.36826799,4.28584157 6.79587051,4.28584157 L8.87823486,4.28584157 L8.87823486,3.58584157 Z" id="Rectangle-13" fill="#3D3D3D" fill-rule="nonzero"></path>
                <path d="M8.17833659,4.28769844 C8.17833659,5.03328285 8.78275218,5.63769844 9.52833659,5.63769844 C10.273921,5.63769844 10.8783366,5.03328285 10.8783366,4.28769844 L10.1783366,4.28769844 C10.1783366,4.64668353 9.88732168,4.93769844 9.52833659,4.93769844 C9.1693515,4.93769844 8.87833659,4.64668353 8.87833659,4.28769844 L8.17833659,4.28769844 Z" id="Oval-4" fill="#3D3D3D" fill-rule="nonzero"></path>
            </g>
        </g>
    </g>
</svg>