<?xml version="1.0" encoding="UTF-8"?>
<svg width="16px" height="16px" viewBox="0 0 16 16" version="1.1" xmlns="http://www.w3.org/2000/svg" xmlns:xlink="http://www.w3.org/1999/xlink">
    <!-- Generator: Sketch 46.2 (44496) - http://www.bohemiancoding.com/sketch -->
    <title>loteasy icon</title>
    <desc>Created with Sketch.</desc>
    <defs></defs>
    <g id="Page-1" stroke="none" stroke-width="1" fill="none" fill-rule="evenodd">
        <g id="'Fun'ch-with-friends-Style-Guide" transform="translate(-2449.000000, -1131.000000)">
            <g id="Group-45" transform="translate(2382.000000, 847.000000)">
                <g id="loteasy-icon" transform="translate(68.000000, 285.000000)">
                    <circle id="Oval-14" stroke="#FFFFFF" fill="#FFC001" cx="7" cy="7" r="7"></circle>
                    <path d="M4.90757365,2.85780107 C4.81767322,3.08422853 4.75165258,3.32882609 4.70529767,3.57761675 C4.65894275,3.82640741 4.63225356,4.08218657 4.62382539,4.33796573 C4.61539723,4.5937449 4.62523009,4.85231946 4.65332398,5.10670092 C4.66737092,5.23389166 4.68563195,5.36248009 4.70810706,5.48827312 L4.72636808,5.58331674 C4.72917747,5.59869144 4.73339155,5.61686155 4.73760564,5.63363395 L4.74884319,5.68534887 L4.75446197,5.71190517 L4.76008075,5.74125688 L4.76850891,5.78598329 C4.77412769,5.8167327 4.78115116,5.84748211 4.78817463,5.87823151 C4.84436241,6.12562447 4.9216206,6.37441514 5.01433043,6.61342189 C5.10844495,6.85242865 5.2194158,7.08304921 5.35145707,7.29969276 C5.48209365,7.51633632 5.63380064,7.71760517 5.80657804,7.89231771 C5.97935545,8.06842795 6.17320327,8.21937959 6.38671681,8.33399102 C6.60023035,8.44860245 6.83060023,8.52827137 7.07220766,8.57020238 C7.19301137,8.59116788 7.31662448,8.60234948 7.44023758,8.60654259 C7.50204413,8.60794029 7.56525538,8.60794029 7.62846662,8.60514488 C7.6593699,8.60374718 7.69308256,8.60234948 7.72539054,8.59955408 C7.75769851,8.59815638 7.79000648,8.59536098 7.82231445,8.59256558 C7.95295102,8.58278168 8.08077821,8.56600928 8.20860539,8.54504377 C8.33643258,8.52407826 8.46285507,8.49752196 8.58646818,8.46537485 C8.83509908,8.39968293 9.07530181,8.31023011 9.29724352,8.19282328 C9.51918523,8.07401875 9.72427061,7.92726022 9.89704801,7.75254767 C10.0698254,7.57783513 10.2131042,7.37516858 10.3058141,7.15433193 C10.352169,7.0439136 10.3872863,6.92930217 10.4055474,6.81469074 C10.4111661,6.78533904 10.4139755,6.75738503 10.4167849,6.72803332 C10.4181896,6.70287472 10.420999,6.67911381 10.4195943,6.6553529 C10.4195943,6.631592 10.4167849,6.60643339 10.4125708,6.58267249 C10.4083568,6.55891158 10.4041427,6.53515068 10.3971192,6.51138977 C10.3900957,6.48762886 10.3816676,6.46386796 10.3718347,6.44150475 C10.3620018,6.41914155 10.3507643,6.39538064 10.338122,6.37301744 C10.3128375,6.32829102 10.2819343,6.28496231 10.2454122,6.2458267 C10.1737728,6.16615778 10.0824677,6.09627277 9.98132967,6.04036475 C9.88019168,5.98445674 9.76781613,5.94112803 9.6498218,5.91177632 C9.53182748,5.88242461 9.40961907,5.86425451 9.28460127,5.85726601 C9.03456568,5.843289 8.7789113,5.87403841 8.52887571,5.93693493 C8.40385791,5.96768434 8.27884011,6.00681995 8.1566317,6.05294406 C8.03442329,6.09906817 7.91361958,6.15078308 7.79562525,6.20808879 C7.76612667,6.2234635 7.73662809,6.2374405 7.70712951,6.25281521 C7.67763093,6.26818991 7.64953704,6.28356461 7.62003846,6.29893932 L7.53154271,6.34785883 L7.44445166,6.39677834 C7.32926673,6.46386796 7.21408179,6.53375297 7.10311093,6.60643339 C6.87976453,6.75319193 6.66765568,6.91392747 6.46959378,7.09003771 C6.27293657,7.26614796 6.0903263,7.4590306 5.93159584,7.66728795 C5.77286538,7.87554531 5.63941941,8.10197276 5.5424955,8.34097952 C5.44557159,8.57998628 5.38516974,8.83297004 5.37674157,9.0887492 C5.37112279,9.21593993 5.38095565,9.34313067 5.40202607,9.4689237 C5.42450118,9.59331903 5.45961854,9.71631666 5.50737814,9.83372349 C5.60570675,10.0671394 5.75319966,10.2809876 5.94704748,10.4501093 C6.1408953,10.6192311 6.37547926,10.7422287 6.62551485,10.8274884 C6.75053265,10.8694194 6.88116923,10.9015665 7.0118058,10.9267252 C7.14384707,10.9504861 7.27729304,10.9672585 7.41214369,10.9770424 C7.68184501,10.9952125 7.95435572,10.988224 8.22546173,10.9616677 C8.49656774,10.9351114 8.76626905,10.8889872 9.03316098,10.8274884 C9.56554014,10.7030931 10.0866817,10.5185967 10.5783248,10.2712037 C10.099324,10.5409599 9.58520586,10.7520126 9.0528267,10.9029643 C8.78593477,10.9784401 8.51482876,11.0371435 8.24091336,11.0776768 C7.96559327,11.1182101 7.68746379,11.1391756 7.40652492,11.1321871 C7.26605548,11.1293917 7.12558604,11.1182101 6.98511661,11.10004 C6.84464717,11.0804722 6.70558243,11.0525182 6.56792238,11.0147803 C6.29400699,10.9365091 6.02571036,10.8135114 5.79534049,10.6318104 C5.68156025,10.5409599 5.57480347,10.4361323 5.48490304,10.3187255 C5.3935979,10.2027164 5.3205538,10.0741279 5.26015194,9.93994871 C5.20115478,9.80576948 5.15620456,9.66460175 5.12670597,9.52063861 C5.09861209,9.37667547 5.08456514,9.22991694 5.08596984,9.0831584 C5.08877923,8.78964133 5.14918108,8.50031736 5.25172377,8.23056119 C5.35426646,7.95940733 5.49614059,7.70642356 5.66329922,7.47300761 C5.83045785,7.23959165 6.02290097,7.0271412 6.22939104,6.83286085 C6.43728581,6.6385805 6.65922752,6.46107256 6.89100209,6.30033702 C7.00759172,6.2192704 7.12558604,6.14239688 7.24638976,6.06971646 L7.33769489,6.01520615 L7.42900003,5.96209353 C7.49080658,5.92715103 7.55401782,5.89220852 7.61722907,5.86006141 C7.74505626,5.79436949 7.87569283,5.73426838 8.01054349,5.68115577 C8.14539415,5.62804315 8.28305419,5.58052134 8.42352363,5.54278343 C8.7044625,5.46730761 9.00085301,5.4225812 9.3014576,5.4323651 C9.4517599,5.4365582 9.60346689,5.45472831 9.75236449,5.48967082 C9.90266679,5.52461333 10.0501597,5.57632824 10.1906291,5.65040636 C10.3310986,5.72308678 10.4645445,5.8195281 10.5797295,5.94112803 C10.6373219,6.00122914 10.6892956,6.06971646 10.7328412,6.14239688 C10.7553163,6.17873709 10.774982,6.2178727 10.793243,6.25700831 C10.8100993,6.29614392 10.8269557,6.33667723 10.8395979,6.37860824 C10.8536449,6.42053925 10.8634777,6.46386796 10.8719059,6.50719667 C10.8789294,6.55052538 10.8845481,6.59385409 10.8873575,6.6385805 C10.8901669,6.68190921 10.8887622,6.72663562 10.8859528,6.76996433 C10.8831435,6.80909994 10.8789294,6.84823555 10.8733106,6.88737116 C10.8508355,7.0439136 10.8100993,7.19346754 10.7525069,7.33743067 C10.6387266,7.62535694 10.4659492,7.88253381 10.2580545,8.10197276 C10.0501597,8.32141171 9.80714757,8.50451046 9.54727912,8.651269 C9.28741066,8.79802753 9.01068587,8.90844586 8.729747,8.98951248 C8.58927756,9.03004579 8.44599874,9.0635906 8.30271992,9.0901469 C8.15944109,9.11670321 8.01616227,9.13766872 7.87147875,9.15304342 C7.83495669,9.15583882 7.79983934,9.16003192 7.76331728,9.16282732 C7.72679523,9.16562272 7.69167787,9.16841812 7.65375112,9.17121352 C7.57930232,9.17540663 7.50485352,9.17820203 7.42900003,9.17820203 C7.27869773,9.17820203 7.12699074,9.16841812 6.97528375,9.14605492 C6.67327446,9.10272621 6.37407456,9.00908028 6.10015916,8.87070795 C5.82483907,8.73233562 5.57620817,8.54783917 5.35848054,8.33818412 C5.14075292,8.12852907 4.95392857,7.89231771 4.79519811,7.64352705 C4.63506295,7.39473639 4.50161699,7.13476412 4.38783674,6.86640566 C4.2740565,6.59804719 4.18134667,6.32409792 4.10830257,6.03896705 C4.0998744,6.00262684 4.09004154,5.96768434 4.08301807,5.92994643 L4.07037582,5.87403841 L4.06756643,5.85866371 L4.06616173,5.85027751 C4.06616173,5.84887981 4.06616173,5.85167521 4.06616173,5.85167521 L4.06054296,5.8279143 L4.0493054,5.78039249 C4.04509132,5.76362009 4.04228193,5.74964308 4.03806785,5.73007528 L4.01559274,5.62385005 C3.98609416,5.48128462 3.96221435,5.33871918 3.94254863,5.19475605 C3.90462188,4.90682977 3.88636086,4.6161081 3.88917025,4.32538643 C3.89197963,4.03466476 3.91445474,3.74254539 3.96221435,3.45182372 C4.00997396,3.16110204 4.07880398,2.87317577 4.18275137,2.5866472 C4.25579547,2.38677605 4.47773718,2.28474393 4.67720378,2.35602665 C4.87807507,2.42870706 4.98061776,2.64954372 4.90897835,2.84801717 C4.90757365,2.85081257 4.90757365,2.85221027 4.90616896,2.85500567 L4.90757365,2.85780107 Z" id="Shape" fill="#FFFFFF" fill-rule="nonzero"></path>
                </g>
            </g>
        </g>
    </g>
</svg>