<?xml version="1.0" encoding="UTF-8"?>
<svg width="23px" height="23px" viewBox="0 0 23 23" version="1.1" xmlns="http://www.w3.org/2000/svg" xmlns:xlink="http://www.w3.org/1999/xlink">
    <!-- Generator: Sketch 46.2 (44496) - http://www.bohemiancoding.com/sketch -->
    <title>Group 19</title>
    <desc>Created with Sketch.</desc>
    <defs>
        <rect id="path-1" x="3" y="9" width="1" height="5"></rect>
        <rect id="path-2" x="13" y="9" width="1" height="5"></rect>
    </defs>
    <g id="Page-1" stroke="none" stroke-width="1" fill="none" fill-rule="evenodd">
        <g id="6" transform="translate(-28.000000, -471.000000)">
            <g id="Group-19" transform="translate(28.000000, 471.000000)">
                <rect id="Rectangle-6"  x="0.5" y="0.100006104" width="22" height="22"></rect>
                <g id="Group-8" transform="translate(3.000000, 4.000000)">
                    <rect id="Rectangle" stroke="#979797" x="0.5" y="0.5" width="16" height="9"></rect>
                    <g id="Rectangle-2" transform="translate(3.500000, 11.500000) rotate(20.000000) translate(-3.500000, -11.500000) ">
                        <use fill="#D8D8D8" fill-rule="evenodd" xlink:href="#path-1"></use>
                        <rect stroke="#979797" stroke-width="1" x="3.5" y="9.5" width="1" height="4"></rect>
                    </g>
                    <g id="Rectangle-2" transform="translate(13.500000, 11.500000) rotate(-20.000000) translate(-13.500000, -11.500000) ">
                        <use fill="#D8D8D8" fill-rule="evenodd" xlink:href="#path-2"></use>
                        <rect stroke="#979797" stroke-width="1" x="13.5" y="9.5" width="1" height="4"></rect>
                    </g>
                    <path d="M2.32104492,7.31445312 C4.49677989,6.8202052 5.64536764,6.51910428 5.76680818,6.41115036 C5.88824871,6.30319644 6.54512505,5.51873128 7.73743719,4.05775487 C9.05465546,5.6266852 9.81730492,6.41115036 10.0253855,6.41115036 C10.2334662,6.41115036 11.8904503,5.11711782 14.9963379,2.52905273" id="Path-17" stroke="#979797" stroke-linecap="round" stroke-linejoin="round"></path>
                </g>
            </g>
        </g>
    </g>
</svg>