<?xml version="1.0" encoding="UTF-8"?>
<svg width="16px" height="15px" viewBox="0 0 16 15" version="1.1" xmlns="http://www.w3.org/2000/svg" xmlns:xlink="http://www.w3.org/1999/xlink">
    <!-- Generator: Sketch 46.2 (44496) - http://www.bohemiancoding.com/sketch -->
    <title>Parties icon</title>
    <desc>Created with Sketch.</desc>
    <defs></defs>
    <g id="Page-1" stroke="none" stroke-width="1" fill="none" fill-rule="evenodd" opacity="0.6">
        <g id="Artboard-7" transform="translate(-166.000000, -475.000000)">
            <g id="Parties-icon" transform="translate(166.000000, 475.000000)">
                <g id="Group-13">
                    <path d="M1.53772625,1.22718308 L0.915010227,6.83162725 C0.902760944,6.94187079 0.896622223,7.05270777 0.896622223,7.16362975 C0.896622223,8.8240244 2.24263804,10.1700402 3.9030327,10.1700402 C4.01395467,10.1700402 4.12479165,10.1639015 4.23503519,10.1516522 C5.88527444,9.9682923 7.07441508,8.48186649 6.89105517,6.83162725 L6.26833915,1.22718308 L1.53772625,1.22718308 Z" id="Rectangle-9" stroke="#3D3D3D" stroke-width="0.7"></path>
                    <g id="Group-14" transform="translate(2.238764, 9.634813)" fill-rule="nonzero" fill="#3D3D3D">
                        <polygon id="Line-3" points="1.34233112 0.805688071 1.34233112 4.76997379 2.09233112 4.76997379 2.09233112 0.805688071"></polygon>
                        <path d="M1.21360941,3.5268204 L1.21360941,5.66967754 L1.21360941,5.66967754 C1.21360941,5.87678432 1.38150263,6.04467754 1.58860941,6.04467754 L1.58860941,6.04467754 L1.58860941,6.04467754 C1.79571619,6.04467754 1.96360941,5.87678432 1.96360941,5.66967754 L1.96360941,3.5268204 L1.96360941,3.5268204 C1.96360941,3.31971362 1.79571619,3.1518204 1.58860941,3.1518204 L1.58860941,3.1518204 L1.58860941,3.1518204 C1.38150263,3.1518204 1.21360941,3.31971362 1.21360941,3.5268204 Z" id="Line-3" transform="translate(1.713609, 4.598249) rotate(90.000000) translate(-1.713609, -4.598249) "></path>
                    </g>
                    <path d="M1.27478772,6.44273418 L6.60722732,6.44273418" id="Line-4" stroke="#3D3D3D" stroke-width="0.7" stroke-linecap="square"></path>
                </g>
                <g id="Group-13" transform="translate(8.000000, 2.000000)">
                    <path d="M1.54704017,1.23692956 L0.972328686,5.83462143 C0.956913695,5.95794136 0.949183815,6.08210068 0.949183815,6.20638031 C0.949183815,7.86169695 2.29108309,9.20359622 3.94639973,9.20359622 C4.07067936,9.20359622 4.19483868,9.19586634 4.31815861,9.18045135 C5.96069269,8.97513459 7.12578753,7.47715551 6.92047077,5.83462143 L6.34575928,1.23692956 L1.54704017,1.23692956 Z" id="Rectangle-9" stroke="#3D3D3D" stroke-width="0.7"></path>
                    <polygon id="Line-3" fill="#3D3D3D" fill-rule="nonzero" points="3.52391257 9.48130683 3.52391257 12.4063068 4.28224591 12.4063068 4.28224591 9.48130683"></polygon>
                    <path d="M3.39931618,11.1437851 L3.39931618,13.3104517 L3.39931618,13.3104517 C3.39931618,13.5198597 3.56907488,13.6896184 3.77848285,13.6896184 L3.77848285,13.6896184 L3.77848285,13.6896184 C3.98789081,13.6896184 4.15764951,13.5198597 4.15764951,13.3104517 L4.15764951,11.1437851 L4.15764951,11.1437851 C4.15764951,10.9343771 3.98789081,10.7646184 3.77848285,10.7646184 L3.77848285,10.7646184 L3.77848285,10.7646184 C3.56907488,10.7646184 3.39931618,10.9343771 3.39931618,11.1437851 Z" id="Line-3" fill="#3D3D3D" fill-rule="nonzero" transform="translate(3.899316, 12.227118) rotate(90.000000) translate(-3.899316, -12.227118) "></path>
                    <path d="M1.67373702,4.34765345 L6.3699108,4.34765345" id="Line-4" stroke="#3D3D3D" stroke-width="0.7" stroke-linecap="square"></path>
                </g>
            </g>
        </g>
    </g>
</svg>