<?xml version="1.0" encoding="UTF-8"?>
<svg width="14px" height="17px" viewBox="0 0 14 17" version="1.1" xmlns="http://www.w3.org/2000/svg" xmlns:xlink="http://www.w3.org/1999/xlink">
    <!-- Generator: Sketch 46.2 (44496) - http://www.bohemiancoding.com/sketch -->
    <title>phone icon 2</title>
    <desc>Created with Sketch.</desc>
    <defs></defs>
    <g id="Page-1" stroke="none" stroke-width="1" fill="none" fill-rule="evenodd" opacity="0.6">
        <g id="phone-icon-2" transform="translate(-3.000000, 0.000000)" stroke="#3D3D3D">
            <g id="Page-1">
                <g id="'Fun'ch-with-friends-Style-Guide">
                    <g id="Group-28">
                        <g id="phone-icon-2" transform="translate(8.438796, 9.240250) rotate(-35.000000) translate(-8.438796, -9.240250) translate(4.438796, 1.240250)">
                            <path d="M5.29411765,0.05882353 C2.37025721,0.05882353 0.694325442,3.76772855 0.694325442,8.15351921 C0.694325442,12.5393099 2.37025721,15.9411765 5.29411765,15.9411765" id="Oval-16"></path>
                            <path d="M4.9441268,4.02792371 C4.49332154,5.19630125 4.23529412,6.55295147 4.23529412,8 C4.23529412,9.4622281 4.49876335,10.8321513 4.9583772,12.0087828" id="Oval-16"></path>
                            <path d="M4.49410398,4.34739263 L6.35294118,4.32352941 C7.24634298,4.32352941 7.97058824,3.59928415 7.97058824,2.70588235 L7.97058824,1.64705882 C7.97058824,0.75365702 7.24634298,0.02941176 6.35294118,0.02941176 L5.03341687,0.05918649 C4.38219971,0.05918649 3.59715177,0.421600702 3.05658867,0.926777242 L3.02602544,0.90537664" id="Rectangle-2"></path>
                            <path d="M2.76462314,14.8581142 C3.51777927,15.5784917 4.30412375,15.9340064 4.987258,15.9340064 L6.35294118,15.9705882 C7.24634298,15.9705882 7.97058824,15.246343 7.97058824,14.3529412 L7.97058824,13.2941176 C7.97058824,12.4007158 7.24634298,11.6764706 6.35294118,11.6764706 L5.27343063,11.6760425 L4.48231226,11.6896724" id="Rectangle-2"></path>
                        </g>
                    </g>
                </g>
            </g>
        </g>
    </g>
</svg>