<?xml version="1.0" encoding="UTF-8"?>
<svg width="14px" height="18px" viewBox="0 0 14 18" version="1.1" xmlns="http://www.w3.org/2000/svg" xmlns:xlink="http://www.w3.org/1999/xlink">
    <!-- Generator: Sketch 46.2 (44496) - http://www.bohemiancoding.com/sketch -->
    <title>Recommendation icon 2</title>
    <desc>Created with Sketch.</desc>
    <defs></defs>
    <g id="Page-1" stroke="none" stroke-width="1" fill="none" fill-rule="evenodd" opacity="0.6">
        <g id="Recommendation-icon-2" stroke="#3D3D3D">
            <g id="Page-1">
                <g id="'Fun'ch-with-friends-Flow">
                    <g id="Group-51">
                        <g id="Recommendation-icon-2">
                            <polygon id="Combined-Shape" stroke-width="0.800000012" points="2.45025254 2.42772229 2.45025254 5.03850982 0.604146972 6.88461538 2.45025254 8.73072095 2.45025254 11.4184316 5.13796314 11.4184316 7.03846154 13.31893 8.93895993 11.4184316 11.5497475 11.4184316 11.5497475 8.80764403 13.395853 6.96153846 11.5497475 5.1154329 11.5497475 2.42772229 8.86203686 2.42772229 6.96153846 0.527223895 5.06104007 2.42772229"></polygon>
                            <ellipse id="Oval-23" stroke-width="0.800000012" stroke-linecap="round" stroke-linejoin="round" cx="7" cy="6.92307692" rx="2.625" ry="2.59615385"></ellipse>
                            <path d="M2.72398261,11.8830152 L2.47069176,16.5973118 C2.84348827,16.361564 3.24079019,16.1702841 3.66209761,16.0237918 L3.79346632,15.9781138 L3.92483504,16.0237918 C4.36612684,16.1772329 4.78108178,16.3798112 5.16912534,16.6311595 L5.42354099,11.8830152 L5.42354099,11.8830152" id="Rectangle-47" stroke-width="0.800000012" transform="translate(3.947116, 14.257087) scale(-1, 1) rotate(-20.000000) translate(-3.947116, -14.257087) "></path>
                            <path d="M8.82933665,11.9301964 L8.58477832,16.5973848 C8.95757484,16.361637 9.35487677,16.1703571 9.77618421,16.0238648 L9.90755293,15.9781867 L10.0389216,16.0238648 C10.4802134,16.1773058 10.8951684,16.3798842 11.2832119,16.6312325 L11.5288951,11.9301964 L11.5288951,11.9301964" id="Rectangle-47" stroke-width="0.799999952" transform="translate(10.056837, 14.280714) rotate(-20.000000) translate(-10.056837, -14.280714) "></path>
                        </g>
                    </g>
                </g>
            </g>
        </g>
    </g>
</svg>