<?xml version="1.0" encoding="UTF-8"?>
<svg width="23px" height="22px" viewBox="0 0 23 22" version="1.1" xmlns="http://www.w3.org/2000/svg" xmlns:xlink="http://www.w3.org/1999/xlink">
    <!-- Generator: Sketch 46.2 (44496) - http://www.bohemiancoding.com/sketch -->
    <title>Group 15</title>
    <desc>Created with Sketch.</desc>
    <defs></defs>
    <g id="Page-1" stroke="none" stroke-width="1" fill="none" fill-rule="evenodd">
        <g id="6" transform="translate(-28.000000, -200.000000)">
            <g id="Group-15" transform="translate(28.000000, 200.000000)">
                <rect id="Rectangle-6" x="0.5" y="0" width="22" height="22"></rect>
                <g id="Group-17" transform="translate(3.000000, 1.000000)">
                    <path d="M14.8565691,8.53126793 C14.8565691,8.37363893 14.851499,8.21729542 14.8414965,8.06241908 C14.6192668,4.62148642 11.9623477,1.9047619 8.38066552,1.9047619 C4.75505916,1.9047619 2.0770367,4.68852846 1.91275987,8.18933647 C1.90744557,8.30258656 1.9047619,8.41658704 1.9047619,8.53126793" id="Oval-5" stroke="#8B8B8B" stroke-linecap="round" stroke-linejoin="round"></path>
                    <path d="M0.800548735,8.57142857 L15.8337984,8.57142857 L15.8337984,8.57142857 C16.0967911,8.57142857 16.3099888,8.78462631 16.3099888,9.04761905 L16.3099888,9.04761905 L16.3099888,9.04761905 C16.3099888,9.31061179 16.0967911,9.52380952 15.8337984,9.52380952 L0.800548735,9.52380952 L0.800548735,9.52380952 C0.537555997,9.52380952 0.324358259,9.31061179 0.324358259,9.04761905 L0.324358259,9.04761905 L0.324358259,9.04761905 C0.324358259,8.78462631 0.537555997,8.57142857 0.800548735,8.57142857 Z" id="Rectangle-19" fill="#8B8B8B"></path>
                    <path d="M1.9047619,11.4677749 C2.39440014,12.9470393 4.5328776,16.1962891 8.62165179,19.7930618 C12.3058501,16.1290923 14.2798462,12.9513688 14.7619048,11.4677749" id="Oval-5" stroke="#8B8B8B" stroke-linecap="round"></path>
                    <circle id="Oval-22" stroke="#8B8B8B" cx="8.57142857" cy="0.952380952" r="1"></circle>
                </g>
            </g>
        </g>
    </g>
</svg>