<?xml version="1.0" encoding="UTF-8"?>
<svg width="29px" height="25px" viewBox="0 0 29 25" version="1.1" xmlns="http://www.w3.org/2000/svg" xmlns:xlink="http://www.w3.org/1999/xlink">
    <!-- Generator: Sketch 46.2 (44496) - http://www.bohemiancoding.com/sketch -->
    <title>Reviews icon</title>
    <desc>Created with Sketch.</desc>
    <defs></defs>
    <g id="Page-1" stroke="none" stroke-width="1" fill="none" fill-rule="evenodd">
        <g id="'Fun'ch-with-friends-Style-Guide" transform="translate(-4713.000000, -2630.000000)" fill="#FFC001">
            <g id="Group-56" transform="translate(4682.000000, 2589.000000)">
                <path d="M34,41 L57,41 L57,41 C58.6568542,41 60,42.3431458 60,44 L60,59.3396226 L60,59.3396226 C60,60.9964769 58.6568542,62.3396226 57,62.3396226 L45.0390994,62.3396226 L42.0702756,65.6226415 L38.8342792,62.3396226 L34,62.3396226 L34,62.3396226 C32.3431458,62.3396226 31,60.9964769 31,59.3396226 L31,44 L31,44 C31,42.3431458 32.3431458,41 34,41 L34,41 Z M35.6509434,47.0188679 C35.1976531,47.0188679 34.8301887,47.3863323 34.8301887,47.8396226 L34.8301887,47.8396226 L34.8301887,47.8396226 C34.8301887,48.292913 35.1976531,48.6603774 35.6509434,48.6603774 L55.8962264,48.6603774 C56.3495167,48.6603774 56.7169811,48.292913 56.7169811,47.8396226 C56.7169811,47.3863323 56.3495167,47.0188679 55.8962264,47.0188679 L55.8962264,47.0188679 L35.6509434,47.0188679 Z M35.6509434,52.490566 C35.1976531,52.490566 34.8301887,52.8580304 34.8301887,53.3113208 C34.8301887,53.7646111 35.1976531,54.1320755 35.6509434,54.1320755 L46.5943396,54.1320755 C47.0476299,54.1320755 47.4150943,53.7646111 47.4150943,53.3113208 L47.4150943,53.3113208 C47.4150943,52.8580304 47.0476299,52.490566 46.5943396,52.490566 L35.6509434,52.490566 Z" id="Reviews-icon"></path>
            </g>
        </g>
    </g>
</svg>