<?xml version="1.0" encoding="UTF-8"?>
<svg width="257px" height="4px" viewBox="0 0 257 4" version="1.1" xmlns="http://www.w3.org/2000/svg" xmlns:xlink="http://www.w3.org/1999/xlink">
    <!-- Generator: Sketch 46.2 (44496) - http://www.bohemiancoding.com/sketch -->
    <title>step 1</title>
    <desc>Created with Sketch.</desc>
    <defs></defs>
    <g id="Page-1" stroke="none" stroke-width="1" fill="none" fill-rule="evenodd">
        <g id="'Fun'ch-with-friends-Style-Guide" transform="translate(-1500.000000, -935.000000)">
            <g id="Group-36" transform="translate(1467.000000, 847.000000)">
                <g id="step-1" transform="translate(33.000000, 88.000000)">
                    <path d="M2,2.64519205e-20 L83,0 L83,4 L2,4 L2,4 C0.8954305,4 1.3527075e-16,3.1045695 0,2 L0,2 L0,2 C-1.3527075e-16,0.8954305 0.8954305,4.2495073e-16 2,2.22044605e-16 Z" id="Rectangle-6" fill="#1496D6"></path>
                    <path d="M87.5,0.5 L87.5,3.5 L169.5,3.5 L169.5,0.5 L87.5,0.5 Z" id="Rectangle-6" stroke="#3D3D3D" opacity="0.2"></path>
                    <path d="M174.5,0.5 L174.5,3.5 L255,3.5 C255.828427,3.5 256.5,2.82842712 256.5,2 C256.5,1.17157288 255.828427,0.5 255,0.5 L174.5,0.5 Z" id="Rectangle-6" stroke="#3D3D3D" opacity="0.2"></path>
                </g>
            </g>
        </g>
    </g>
</svg>