<?xml version="1.0" encoding="UTF-8"?>
<svg width="35px" height="31px" viewBox="0 0 35 31" version="1.1" xmlns="http://www.w3.org/2000/svg" xmlns:xlink="http://www.w3.org/1999/xlink">
    <!-- Generator: Sketch 46.2 (44496) - http://www.bohemiancoding.com/sketch -->
    <title>Camera icon 2</title>
    <desc>Created with Sketch.</desc>
    <defs>
        <path d="M2,4.46081295 L9.60556909,4.46081295 L11.3793375,1.07243573 L11.3793375,1.07243573 C11.7244621,0.413154372 12.4070835,1.02487701e-15 13.151236,8.8817842e-16 L21.9261834,0 L21.9261834,1.77635684e-15 C22.6821468,1.63748862e-15 23.3735107,0.426238794 23.7130708,1.10164946 L25.4018769,4.46081295 L33,4.46081295 L33,4.46081295 C34.1045695,4.46081295 35,5.35624345 35,6.46081295 L35,28.3333333 L35,28.3333333 C35,29.4379028 34.1045695,30.3333333 33,30.3333333 L2,30.3333333 L2,30.3333333 C0.8954305,30.3333333 1.3527075e-16,29.4379028 0,28.3333333 L0,6.46081295 L3.55271368e-15,6.46081295 C3.41744293e-15,5.35624345 0.8954305,4.46081295 2,4.46081295 Z" id="path-1"></path>
    </defs>
    <g id="Page-1" stroke="none" stroke-width="1" fill="none" fill-rule="evenodd" opacity="0.400022645">
        <g id="no-memories" transform="translate(-144.000000, -377.000000)">
            <g id="Camera-icon-2" transform="translate(144.000000, 377.000000)">
                <g id="Rectangle-2">
                    <use fill="#3D3D3D" fill-rule="evenodd" xlink:href="#path-1"></use>
                    <path stroke="#3D3D3D" stroke-width="1" d="M2,4.96081295 C1.17157288,4.96081295 0.5,5.63238583 0.5,6.46081295 L0.5,28.3333333 C0.5,29.1617605 1.17157288,29.8333333 2,29.8333333 L33,29.8333333 C33.8284271,29.8333333 34.5,29.1617605 34.5,28.3333333 L34.5,6.46081295 C34.5,5.63238583 33.8284271,4.96081295 33,4.96081295 L25.0936176,4.96081295 L23.2663489,1.32623709 C23.0116789,0.819679095 22.4931559,0.5 21.9261834,0.5 L13.151236,0.5 C12.5931217,0.5 12.0811556,0.809865779 11.8223121,1.3043268 L9.90819243,4.96081295 L2,4.96081295 Z"></path>
                </g>
                <rect id="Rectangle-4" fill="#FFFFFF" x="4.66666667" y="7" width="2.33333333" height="2.33333333"></rect>
                <circle id="Oval-5" fill="#FFFFFF" cx="18.6666667" cy="16.3333333" r="7"></circle>
            </g>
        </g>
    </g>
</svg>