<?xml version="1.0" encoding="UTF-8"?>
<svg width="32px" height="32px" viewBox="0 0 32 32" version="1.1" xmlns="http://www.w3.org/2000/svg" xmlns:xlink="http://www.w3.org/1999/xlink">
    <!-- Generator: Sketch 46.2 (44496) - http://www.bohemiancoding.com/sketch -->
    <title>Camera icon</title>
    <desc>Created with Sketch.</desc>
    <defs></defs>
    <g id="Page-1" stroke="none" stroke-width="1" fill="none" fill-rule="evenodd">
        <g id="memories-styleguide" transform="translate(-1485.000000, -943.000000)">
            <g id="Group-30" transform="translate(1407.000000, 686.000000)">
                <g id="Camera-icon" transform="translate(78.000000, 257.000000)">
                    <rect id="Rectangle-29" fill="#EBEAEA" x="0" y="0" width="32" height="32"></rect>
                    <g id="Group-24" opacity="0.6" transform="translate(1.000000, 3.000000)" stroke="#3D3D3D">
                        <rect id="Rectangle-4" x="5" y="7.25" width="2" height="2"></rect>
                        <path d="M4,4.25 C2.06700338,4.25 0.5,5.81700338 0.5,7.75 L0.5,21.4998363 C0.5,23.4328329 2.06700338,24.9998363 4,24.9998363 L26,24.9998363 C27.9329966,24.9998363 29.5,23.4328329 29.5,21.4998363 L29.5,7.75 C29.5,5.81700338 27.9329966,4.25 26,4.25 L21.4674766,4.25 L20.5209056,2.40341804 C19.9219322,1.23493379 18.7193338,0.5 17.4062746,0.5 L12.6340318,0.5 C11.3418512,0.5 10.1547942,1.21196997 9.54633594,2.35193012 L8.53323362,4.25 L4,4.25 Z" id="Rectangle-2"></path>
                        <circle id="Oval-5" cx="15.375" cy="14.625" r="5.625"></circle>
                    </g>
                </g>
            </g>
        </g>
    </g>
</svg>