<?xml version="1.0" encoding="UTF-8"?>
<svg width="8px" height="9px" viewBox="0 0 8 9" version="1.1" xmlns="http://www.w3.org/2000/svg" xmlns:xlink="http://www.w3.org/1999/xlink">
    <!-- Generator: Sketch 46.2 (44496) - http://www.bohemiancoding.com/sketch -->
    <title>Close icon</title>
    <desc>Created with Sketch.</desc>
    <defs></defs>
    <g id="Page-1" stroke="none" stroke-width="1" fill="none" fill-rule="evenodd" opacity="0.600000024">
        <g id="memories-styleguide" transform="translate(-1205.000000, -116.000000)" fill-rule="nonzero" fill="#3D3D3D">
            <path d="M1209,119.545188 L1205.89852,116.443705 C1205.69297,116.238156 1205.35971,116.238156 1205.15416,116.443705 C1204.94861,116.649253 1204.94861,116.982512 1205.15416,117.18806 L1208.25564,120.289543 L1205.15416,123.391026 C1204.94861,123.596575 1204.94861,123.929834 1205.15416,124.135382 C1205.35971,124.34093 1205.69297,124.34093 1205.89852,124.135382 L1209,121.033899 L1212.10148,124.135382 C1212.30703,124.34093 1212.64029,124.34093 1212.84584,124.135382 C1213.05139,123.929834 1213.05139,123.596575 1212.84584,123.391026 L1209.74436,120.289543 L1212.84584,117.18806 C1213.05139,116.982512 1213.05139,116.649253 1212.84584,116.443705 C1212.64029,116.238156 1212.30703,116.238156 1212.10148,116.443705 L1209,119.545188 Z" id="Close-icon"></path>
        </g>
    </g>
</svg>