<?xml version="1.0" encoding="UTF-8"?>
<svg width="17px" height="17px" viewBox="0 0 17 17" version="1.1" xmlns="http://www.w3.org/2000/svg" xmlns:xlink="http://www.w3.org/1999/xlink">
    <!-- Generator: Sketch 46.2 (44496) - http://www.bohemiancoding.com/sketch -->
    <title>Delete icon</title>
    <desc>Created with Sketch.</desc>
    <defs>
        <rect id="path-1" x="0" y="0.928571429" width="11.1428571" height="1" rx="0.5"></rect>
        <rect id="path-2" x="2.78571429" y="0" width="5.57142857" height="1"></rect>
    </defs>
    <g id="Page-1" stroke="none" stroke-width="1" fill="none" fill-rule="evenodd">
        <g id="memories-styleguide" transform="translate(-1082.000000, -107.000000)">
            <g id="Delete-icon" transform="translate(1082.000000, 107.000000)">
                <rect id="Rectangle-28" x="0" y="0" width="17" height="17"></rect>
                <g id="Group" opacity="0.6" transform="translate(3.000000, 2.000000)">
                    <g id="Group-2">
                        <path d="M1.42857143,2.35714286 L1.42857143,11 C1.42857143,11.8284271 2.1001443,12.5 2.92857143,12.5 L8.21428571,12.5 C9.04271284,12.5 9.71428571,11.8284271 9.71428571,11 L9.71428571,2.35714286 L1.42857143,2.35714286 Z" id="Rectangle-19" stroke="#3D3D3D"></path>
                        <g id="Rectangle-22">
                            <use fill="#D8D8D8" fill-rule="evenodd" xlink:href="#path-1"></use>
                            <rect stroke="#3D3D3D" stroke-width="1" x="0.5" y="1.42857143" width="10.1428571" height="1" rx="0.5"></rect>
                        </g>
                        <g id="Rectangle-22">
                            <use fill="#D8D8D8" fill-rule="evenodd" xlink:href="#path-2"></use>
                            <rect stroke="#3D3D3D" stroke-width="1" x="3.28571429" y="0.5" width="4.57142857" height="1"></rect>
                        </g>
                        <path d="M4.25,5.10714286 L4.25,9.75" id="Line-5" stroke="#3D3D3D" stroke-linecap="round"></path>
                        <path d="M6.89285714,5.10714286 L6.89285714,9.75" id="Line-5" stroke="#3D3D3D" stroke-linecap="round"></path>
                    </g>
                </g>
            </g>
        </g>
    </g>
</svg>