<?xml version="1.0" encoding="UTF-8"?>
<svg width="17px" height="17px" viewBox="0 0 17 17" version="1.1" xmlns="http://www.w3.org/2000/svg" xmlns:xlink="http://www.w3.org/1999/xlink">
    <!-- Generator: Sketch 46.2 (44496) - http://www.bohemiancoding.com/sketch -->
    <title>Edit icon</title>
    <desc>Created with Sketch.</desc>
    <defs></defs>
    <g id="Page-1" stroke="none" stroke-width="1" fill="none" fill-rule="evenodd">
        <g id="memories-styleguide" transform="translate(-1028.000000, -107.000000)">
            <g id="Edit-icon" transform="translate(1028.000000, 107.000000)">
                <rect id="Rectangle-28"  x="0" y="0" width="17" height="17"></rect>
                <g id="edit" opacity="0.25" transform="translate(1.000000, 0.000000)">
                    <path d="M0.0236326624,14.1273783 L4.29029933,14.1273783" id="Line" stroke="#fff" stroke-linecap="square"></path>
                    <g id="Rectangle-19" transform="translate(9.482130, 7.925299) rotate(30.000000) translate(-9.482130, -7.925299) translate(6.482130, 0.925299)">
                        <g id="path-1-link" fill="#fff">
                            <path d="M2.82298594,0.358525354 L4.08289997,0.358525354 L4.08289997,0.358525354 C4.87819008,0.358525354 5.52289997,0.783854842 5.52289997,1.30852535 C5.52289997,1.32671386 5.52210826,1.34489863 5.5205257,1.36305715 L4.59670378,11.9630735 L2.55434774,13.9286933 L0.452033136,11.9630735 L1.38536035,1.25399356 L1.38536035,1.25399356 C1.42916832,0.751336399 2.05980523,0.358525354 2.82298594,0.358525354 Z" id="path-1"></path>
                        </g>
                        <path d="M1.18527782,11.824747 L2.54579645,13.0968032 L3.88940659,11.8036758 L4.80171283,1.33579126 C4.80270211,1.32216581 4.80270211,1.32216581 4.80289997,1.30852535 C4.80289997,1.0461901 4.48054502,0.833525354 4.08289997,0.833525354 L2.82298594,0.833525354 C2.44139558,0.833525354 2.1260772,1.02993087 2.10417322,1.28125946 L1.18527782,11.824747 Z" id="Shape" stroke="#fff"></path>
                    </g>
                </g>
            </g>
        </g>
    </g>
</svg>