<?xml version="1.0" encoding="UTF-8"?>
<svg width="44px" height="54px" viewBox="0 0 44 54" version="1.1" xmlns="http://www.w3.org/2000/svg" xmlns:xlink="http://www.w3.org/1999/xlink">
    <!-- Generator: Sketch 46.2 (44496) - http://www.bohemiancoding.com/sketch -->
    <title>Calender Icon</title>
    <desc>Created with Sketch.</desc>
    <defs></defs>
    <g id="Page-1" stroke="none" stroke-width="1" fill="none" fill-rule="evenodd">
        <g id="Events-Styleguide" transform="translate(-166.000000, -1311.000000)">
            <g id="Group-8" transform="translate(135.000000, 31.000000)">
                <g id="Calender-Icon" transform="translate(31.000000, 1280.000000)">
                    <path d="M35.3535837,6 L43,6 L43,6 C43.5522847,6 44,6.44771525 44,7 L44,53 C44,53.5522847 43.5522847,54 43,54 L1,54 C0.44771525,54 2.8967998e-16,53.5522847 2.22044605e-16,53 L-8.17119174e-14,7 L-8.33777491e-14,7 C-8.44264393e-14,6.44771525 0.44771525,6 1,6 L1,6 L8.64198713,6 L8.64198713,11.7777112 C8.64198713,12.8822807 9.53741763,13.7777112 10.6419871,13.7777112 L13.7127039,13.7777112 C14.8172734,13.7777112 15.7127039,12.8822807 15.7127039,11.7777112 L15.7127039,6 L28.282867,6 L28.282867,11.7777112 C28.282867,12.8822807 29.1782975,13.7777112 30.282867,13.7777112 L33.3535837,13.7777112 C34.4581532,13.7777112 35.3535837,12.8822807 35.3535837,11.7777112 L35.3535837,6 Z M2.20328998,28.6709135 L2.20328998,51.9016321 L41.8625097,51.9016321 L41.8625097,28.6709135 L2.20328998,28.6709135 Z" id="Combined-Shape" fill="#1181B9"></path>
                    <path d="M10.5,1.05332109e-14 L13.5,2.06899952e-15 L13.5,8.21565038e-15 C13.7761424,7.67439645e-15 14,0.223857625 14,0.5 L14,11.5 L14,11.5 C14,11.7761424 13.7761424,12 13.5,12 L10.5,12 L10.5,12 C10.2238576,12 10,11.7761424 10,11.5 L10,0.5 L10,0.5 C10,0.223857625 10.2238576,8.24023138e-15 10.5,3.77475828e-15 Z" id="Rectangle-9" fill="#1181B9"></path>
                    <path d="M30.5,1.05332109e-14 L33.5,2.06899952e-15 L33.5,8.32667268e-15 C33.7761424,7.78541876e-15 34,0.223857625 34,0.5 L34,11.5 L34,11.5 C34,11.7761424 33.7761424,12 33.5,12 L30.5,12 L30.5,12 C30.2238576,12 30,11.7761424 30,11.5 L30,0.5 L30,0.5 C30,0.223857625 30.2238576,8.24023138e-15 30.5,3.77475828e-15 Z" id="Rectangle-9" fill="#1181B9"></path>
                    
                </g>
            </g>
        </g>
    </g>
</svg>