<?xml version="1.0" encoding="UTF-8" standalone="no"?>
<svg width="42px" height="35px" viewBox="0 0 42 35" version="1.1" xmlns="http://www.w3.org/2000/svg" xmlns:xlink="http://www.w3.org/1999/xlink">
    <!-- Generator: Sketch 46.2 (44496) - http://www.bohemiancoding.com/sketch -->
    <title>Artboard 2</title>
    <desc>Created with Sketch.</desc>
    <defs></defs>
    <g id="Page-1" stroke="none" stroke-width="1" fill="none" fill-rule="evenodd">
        <g id="Artboard-2" stroke="#000" stroke-width="1.5">
            <g id="Group" transform="translate(9.000000, 6.000000)">
                <path d="M16.4881963,0.75 L9.12461761,0.75 L7.63994065,3.54655353 L1,3.54655353 C0.861928813,3.54655353 0.75,3.65848235 0.75,3.79655353 L0.75,21 C0.75,21.1380712 0.861928813,21.25 1,21.25 L24.6636524,21.25 C24.8017236,21.25 24.9136524,21.1380712 24.9136524,21 L24.9136524,3.79655353 C24.9136524,3.65848235 24.8017236,3.54655353 24.6636524,3.54655353 L17.9728732,3.54655353 L16.4881963,0.75 Z" id="Combined-Shape"></path>
                <path d="M12.7323794,8.04818739 C9.87097835,6.12493955 6.35007675,8.40660952 7.58853029,11.7869844 C8.82698383,15.1673593 11.9610911,16.4681052 12.7323794,16.9308336 C15.6461394,15.7723287 17.4401363,14.1111487 18.1143701,11.9472936 C18.8713696,9.25431199 17.5729706,7.49454769 15.3158118,7.34226909 C14.4377311,7.28302961 13.576587,7.51833571 12.7323794,8.04818739 Z" id="Oval-18"></path>
            </g>
        </g>
    </g>
</svg>